<?xml version="1.0" encoding="UTF-8" standalone="no"?>
<!-- Created with matplotlib (https://matplotlib.org/) -->

<svg
   height="300pt"
   version="1.1"
   viewBox="0 0 749.99999 299.99999"
   width="750pt"
   id="svg4833"
   sodipodi:docname="AGfuel_simulations.svg"
   inkscape:version="1.2.1 (9c6d41e410, 2022-07-14)"
   xmlns:inkscape="http://www.inkscape.org/namespaces/inkscape"
   xmlns:sodipodi="http://sodipodi.sourceforge.net/DTD/sodipodi-0.dtd"
   xmlns:xlink="http://www.w3.org/1999/xlink"
   xmlns="http://www.w3.org/2000/svg"
   xmlns:svg="http://www.w3.org/2000/svg">
  <sodipodi:namedview
     id="namedview4835"
     pagecolor="#ffffff"
     bordercolor="#666666"
     borderopacity="1.0"
     inkscape:showpageshadow="2"
     inkscape:pageopacity="0.0"
     inkscape:pagecheckerboard="0"
     inkscape:deskcolor="#d1d1d1"
     inkscape:document-units="pt"
     showgrid="false"
     inkscape:zoom="1.1731405"
     inkscape:cx="366.53751"
     inkscape:cy="236.97076"
     inkscape:window-width="1920"
     inkscape:window-height="986"
     inkscape:window-x="-11"
     inkscape:window-y="-11"
     inkscape:window-maximized="1"
     inkscape:current-layer="svg4833" />
  <defs
     id="defs4392">
    <style
       type="text/css"
       id="style4390">
*{stroke-linecap:butt;stroke-linejoin:round;}
  </style>
  </defs>
  <g
     id="g6683"
     transform="translate(79.562591,-52.438981)"
     inkscape:export-filename="AGfuel_simulations.png"
     inkscape:export-xdpi="600"
     inkscape:export-ydpi="600">
    <g
       id="figure_1">
      <g
         id="patch_1" />
      <g
         id="axes_1">
        <g
           id="patch_2">
          <path
             d="M 172.8,307.944 H 405.70435 V 78.624 H 172.8 Z"
             style="fill:#ffffff"
             id="path4397" />
        </g>
        <g
           id="matplotlib.axis_1">
          <g
             id="xtick_1">
            <g
               id="line2d_1">
              <defs
                 id="defs4401">
                <path
                   d="M 0,0 V -3"
                   id="mb024ca4d91"
                   style="stroke:#000000" />
              </defs>
              <g
                 id="g4405">
                <use
                   style="stroke:#000000"
                   x="172.8"
                   xlink:href="#mb024ca4d91"
                   y="307.944"
                   id="use4403" />
              </g>
            </g>
            <g
               id="line2d_2">
              <defs
                 id="defs4409">
                <path
                   d="M 0,0 V 3"
                   id="m5982dd063c"
                   style="stroke:#000000" />
              </defs>
              <g
                 id="g4413">
                <use
                   style="stroke:#000000"
                   x="172.8"
                   xlink:href="#m5982dd063c"
                   y="78.624001"
                   id="use4411" />
              </g>
            </g>
            <g
               id="text_1">
              <!-- 0 -->
              <defs
                 id="defs4417">
                <path
                   d="m 31.78125,66.40625 q -7.609375,0 -11.453125,-7.5 Q 16.5,51.421875 16.5,36.375 q 0,-14.984375 3.828125,-22.484375 3.84375,-7.5 11.453125,-7.5 7.671875,0 11.5,7.5 3.84375,7.5 3.84375,22.484375 0,15.046875 -3.84375,22.53125 -3.828125,7.5 -11.5,7.5 z m 0,7.8125 q 12.265625,0 18.734375,-9.703125 6.46875,-9.6875 6.46875,-28.140625 0,-18.40625 -6.46875,-28.109375 -6.46875,-9.6875 -18.734375,-9.6875 -12.25,0 -18.71875,9.6875 Q 6.59375,17.96875 6.59375,36.375 q 0,18.453125 6.46875,28.140625 6.46875,9.703125 18.71875,9.703125 z"
                   id="DejaVuSans-48" />
              </defs>
              <g
                 transform="matrix(0.12,0,0,-0.12,168.9825,320.56212)"
                 id="g4421">
                <use
                   xlink:href="#DejaVuSans-48"
                   id="use4419" />
              </g>
            </g>
          </g>
          <g
             id="xtick_2">
            <g
               id="line2d_3">
              <g
                 id="g4427">
                <use
                   style="stroke:#000000"
                   x="237.49565"
                   xlink:href="#mb024ca4d91"
                   y="307.944"
                   id="use4425" />
              </g>
            </g>
            <g
               id="line2d_4">
              <g
                 id="g4432">
                <use
                   style="stroke:#000000"
                   x="237.49565"
                   xlink:href="#m5982dd063c"
                   y="78.624001"
                   id="use4430" />
              </g>
            </g>
            <g
               id="text_2">
              <!-- 50 -->
              <defs
                 id="defs4436">
                <path
                   d="m 10.796875,72.90625 h 38.71875 v -8.3125 h -29.6875 V 46.734375 q 2.140625,0.734375 4.28125,1.09375 2.15625,0.359375 4.3125,0.359375 Q 40.625,48.1875 47.75,41.5 54.890625,34.8125 54.890625,23.390625 54.890625,11.625 47.5625,5.09375 40.234375,-1.421875 26.90625,-1.421875 q -4.59375,0 -9.359375,0.78125 -4.75,0.78125 -9.828125,2.34375 V 11.625 q 4.390625,-2.390625 9.078125,-3.5625 4.6875,-1.171875 9.90625,-1.171875 8.453125,0 13.375,4.4375 4.9375,4.4375 4.9375,12.0625 0,7.609375 -4.9375,12.046875 -4.921875,4.453125 -13.375,4.453125 -3.953125,0 -7.890625,-0.875 -3.921875,-0.875 -8.015625,-2.734375 z"
                   id="DejaVuSans-53" />
              </defs>
              <g
                 transform="matrix(0.12,0,0,-0.12,229.86065,320.56212)"
                 id="g4442">
                <use
                   xlink:href="#DejaVuSans-53"
                   id="use4438" />
                <use
                   x="63.623047"
                   xlink:href="#DejaVuSans-48"
                   id="use4440" />
              </g>
            </g>
          </g>
          <g
             id="xtick_3">
            <g
               id="line2d_5">
              <g
                 id="g4448">
                <use
                   style="stroke:#000000"
                   x="302.19131"
                   xlink:href="#mb024ca4d91"
                   y="307.944"
                   id="use4446" />
              </g>
            </g>
            <g
               id="line2d_6">
              <g
                 id="g4453">
                <use
                   style="stroke:#000000"
                   x="302.19131"
                   xlink:href="#m5982dd063c"
                   y="78.624001"
                   id="use4451" />
              </g>
            </g>
            <g
               id="text_3">
              <!-- 100 -->
              <defs
                 id="defs4457">
                <path
                   d="m 12.40625,8.296875 h 16.109375 v 55.625 L 10.984375,60.40625 v 8.984375 l 17.4375,3.515625 H 38.28125 V 8.296875 H 54.390625 V 0 H 12.40625 Z"
                   id="DejaVuSans-49" />
              </defs>
              <g
                 transform="matrix(0.12,0,0,-0.12,290.7388,320.56212)"
                 id="g4465">
                <use
                   xlink:href="#DejaVuSans-49"
                   id="use4459" />
                <use
                   x="63.623047"
                   xlink:href="#DejaVuSans-48"
                   id="use4461" />
                <use
                   x="127.24609"
                   xlink:href="#DejaVuSans-48"
                   id="use4463" />
              </g>
            </g>
          </g>
          <g
             id="xtick_4">
            <g
               id="line2d_7">
              <g
                 id="g4471">
                <use
                   style="stroke:#000000"
                   x="366.88696"
                   xlink:href="#mb024ca4d91"
                   y="307.944"
                   id="use4469" />
              </g>
            </g>
            <g
               id="line2d_8">
              <g
                 id="g4476">
                <use
                   style="stroke:#000000"
                   x="366.88696"
                   xlink:href="#m5982dd063c"
                   y="78.624001"
                   id="use4474" />
              </g>
            </g>
            <g
               id="text_4">
              <!-- 150 -->
              <g
                 transform="matrix(0.12,0,0,-0.12,355.43446,320.56212)"
                 id="g4485">
                <use
                   xlink:href="#DejaVuSans-49"
                   id="use4479" />
                <use
                   x="63.623047"
                   xlink:href="#DejaVuSans-53"
                   id="use4481" />
                <use
                   x="127.24609"
                   xlink:href="#DejaVuSans-48"
                   id="use4483" />
              </g>
            </g>
          </g>
          <g
             id="text_5">
            <!-- Time(min) -->
            <defs
               id="defs4496">
              <path
                 d="M -0.296875,72.90625 H 61.375 v -8.3125 H 35.5 V 0 H 25.59375 V 64.59375 H -0.296875 Z"
                 id="DejaVuSans-84" />
              <path
                 d="M 9.421875,54.6875 H 18.40625 V 0 H 9.421875 Z m 0,21.296875 H 18.40625 V 64.59375 H 9.421875 Z"
                 id="DejaVuSans-105" />
              <path
                 d="M 52,44.1875 Q 55.375,50.25 60.0625,53.125 64.75,56 71.09375,56 q 8.546875,0 13.1875,-5.984375 4.640625,-5.96875 4.640625,-17 V 0 h -9.03125 v 32.71875 q 0,7.859375 -2.796875,11.65625 -2.78125,3.8125 -8.484375,3.8125 -6.984375,0 -11.046875,-4.640625 -4.046875,-4.625 -4.046875,-12.640625 V 0 h -9.03125 v 32.71875 q 0,7.90625 -2.78125,11.6875 -2.78125,3.78125 -8.59375,3.78125 -6.890625,0 -10.953125,-4.65625 -4.046875,-4.65625 -4.046875,-12.625 V 0 h -9.03125 v 54.6875 h 9.03125 v -8.5 q 3.078125,5.03125 7.375,7.421875 Q 29.78125,56 35.6875,56 41.65625,56 45.828125,52.96875 50,49.953125 52,44.1875 Z"
                 id="DejaVuSans-109" />
              <path
                 d="m 56.203125,29.59375 v -4.390625 h -41.3125 q 0.59375,-9.28125 5.59375,-14.140625 5,-4.859375 13.9375,-4.859375 5.171875,0 10.03125,1.265625 4.859375,1.265625 9.65625,3.8125 v -8.5 q -4.84375,-2.046875 -9.921875,-3.125 -5.078125,-1.078125 -10.296875,-1.078125 -13.09375,0 -20.734375,7.609375 -7.640625,7.625 -7.640625,20.625 0,13.421875 7.25,21.296875 Q 20.015625,56 32.328125,56 q 11.03125,0 17.453125,-7.109375 6.421875,-7.09375 6.421875,-19.296875 z m -8.984375,2.640625 q -0.09375,7.359375 -4.125,11.75 -4.03125,4.40625 -10.671875,4.40625 -7.515625,0 -12.03125,-4.25 -4.515625,-4.25 -5.203125,-11.96875 z"
                 id="DejaVuSans-101" />
              <path
                 d="M 31,75.875 Q 24.46875,64.65625 21.28125,53.65625 18.109375,42.671875 18.109375,31.390625 18.109375,20.125 21.3125,9.0625 24.515625,-2 31,-13.1875 H 23.1875 Q 15.875,-1.703125 12.234375,9.375 8.59375,20.453125 8.59375,31.390625 q 0,10.890625 3.609375,21.921875 3.625,11.046875 10.984375,22.5625 z"
                 id="DejaVuSans-40" />
              <path
                 d="M 54.890625,33.015625 V 0 H 45.90625 v 32.71875 q 0,7.765625 -3.03125,11.609375 -3.03125,3.859375 -9.078125,3.859375 -7.28125,0 -11.484375,-4.640625 -4.203125,-4.625 -4.203125,-12.640625 V 0 h -9.03125 v 54.6875 h 9.03125 v -8.5 q 3.234375,4.9375 7.59375,7.375 4.375,2.4375 10.09375,2.4375 9.421875,0 14.25,-5.828125 4.84375,-5.828125 4.84375,-17.15625 z"
                 id="DejaVuSans-110" />
              <path
                 d="m 8.015625,75.875 h 7.8125 q 7.3125,-11.515625 10.953125,-22.5625 3.640625,-11.03125 3.640625,-21.921875 0,-10.9375 -3.640625,-22.015625 -3.640625,-11.078125 -10.953125,-22.5625 h -7.8125 Q 14.5,-2 17.703125,9.0625 20.90625,20.125 20.90625,31.390625 q 0,11.28125 -3.203125,22.265625 -3.203125,11 -9.6875,22.21875 z"
                 id="DejaVuSans-41" />
            </defs>
            <g
               transform="matrix(0.12,0,0,-0.12,258.57624,336.17588)"
               id="g4516">
              <use
                 xlink:href="#DejaVuSans-84"
                 id="use4498" />
              <use
                 x="57.958984"
                 xlink:href="#DejaVuSans-105"
                 id="use4500" />
              <use
                 x="85.742188"
                 xlink:href="#DejaVuSans-109"
                 id="use4502" />
              <use
                 x="183.1543"
                 xlink:href="#DejaVuSans-101"
                 id="use4504" />
              <use
                 x="244.67773"
                 xlink:href="#DejaVuSans-40"
                 id="use4506"
                 transform="translate(25)" />
              <use
                 x="283.69141"
                 xlink:href="#DejaVuSans-109"
                 id="use4508"
                 transform="translate(25)" />
              <use
                 x="381.10352"
                 xlink:href="#DejaVuSans-105"
                 id="use4510"
                 transform="translate(25)" />
              <use
                 x="408.88672"
                 xlink:href="#DejaVuSans-110"
                 id="use4512"
                 transform="translate(25)" />
              <use
                 x="472.26562"
                 xlink:href="#DejaVuSans-41"
                 id="use4514"
                 transform="translate(25)" />
            </g>
          </g>
        </g>
        <g
           id="matplotlib.axis_2">
          <g
             id="ytick_1">
            <g
               id="line2d_9">
              <defs
                 id="defs4521">
                <path
                   d="M 0,0 H 3"
                   id="mac69d2a98e"
                   style="stroke:#000000" />
              </defs>
              <g
                 id="g4525">
                <use
                   style="stroke:#000000"
                   x="172.8"
                   xlink:href="#mac69d2a98e"
                   y="297.52036"
                   id="use4523" />
              </g>
            </g>
            <g
               id="line2d_10">
              <defs
                 id="defs4529">
                <path
                   d="M 0,0 H -3"
                   id="mfbc427d050"
                   style="stroke:#000000" />
              </defs>
              <g
                 id="g4533">
                <use
                   style="stroke:#000000"
                   x="405.70435"
                   xlink:href="#mfbc427d050"
                   y="297.52036"
                   id="use4531" />
              </g>
            </g>
            <g
               id="text_6">
              <!-- 0 -->
              <g
                 transform="matrix(0.12,0,0,-0.12,161.665,302.07943)"
                 id="g4538">
                <use
                   xlink:href="#DejaVuSans-48"
                   id="use4536" />
              </g>
            </g>
          </g>
          <g
             id="ytick_2">
            <g
               id="line2d_11">
              <g
                 id="g4544">
                <use
                   style="stroke:#000000"
                   x="172.8"
                   xlink:href="#mac69d2a98e"
                   y="255.82582"
                   id="use4542" />
              </g>
            </g>
            <g
               id="line2d_12">
              <g
                 id="g4549">
                <use
                   style="stroke:#000000"
                   x="405.70435"
                   xlink:href="#mfbc427d050"
                   y="255.82582"
                   id="use4547" />
              </g>
            </g>
            <g
               id="text_7">
              <!-- 20 -->
              <defs
                 id="defs4553">
                <path
                   d="M 19.1875,8.296875 H 53.609375 V 0 H 7.328125 v 8.296875 q 5.609375,5.8125 15.296875,15.59375 9.703125,9.796875 12.1875,12.640625 4.734375,5.3125 6.609375,9 1.890625,3.6875 1.890625,7.25 0,5.8125 -4.078125,9.46875 -4.078125,3.671875 -10.625,3.671875 -4.640625,0 -9.796875,-1.609375 -5.140625,-1.609375 -11,-4.890625 v 9.96875 Q 13.765625,71.78125 18.9375,73 q 5.1875,1.21875 9.484375,1.21875 11.328125,0 18.0625,-5.671875 6.734375,-5.65625 6.734375,-15.125 0,-4.5 -1.6875,-8.53125 Q 49.859375,40.875 45.40625,35.40625 44.1875,33.984375 37.640625,27.21875 31.109375,20.453125 19.1875,8.296875 Z"
                   id="DejaVuSans-50" />
              </defs>
              <g
                 transform="matrix(0.12,0,0,-0.12,154.03,260.38488)"
                 id="g4559">
                <use
                   xlink:href="#DejaVuSans-50"
                   id="use4555" />
                <use
                   x="63.623047"
                   xlink:href="#DejaVuSans-48"
                   id="use4557" />
              </g>
            </g>
          </g>
          <g
             id="ytick_3">
            <g
               id="line2d_13">
              <g
                 id="g4565">
                <use
                   style="stroke:#000000"
                   x="172.8"
                   xlink:href="#mac69d2a98e"
                   y="214.13127"
                   id="use4563" />
              </g>
            </g>
            <g
               id="line2d_14">
              <g
                 id="g4570">
                <use
                   style="stroke:#000000"
                   x="405.70435"
                   xlink:href="#mfbc427d050"
                   y="214.13127"
                   id="use4568" />
              </g>
            </g>
            <g
               id="text_8">
              <!-- 40 -->
              <defs
                 id="defs4574">
                <path
                   d="M 37.796875,64.3125 12.890625,25.390625 h 24.90625 z m -2.59375,8.59375 h 12.40625 V 25.390625 h 10.40625 V 17.1875 H 47.609375 V 0 h -9.8125 V 17.1875 H 4.890625 v 9.515625 z"
                   id="DejaVuSans-52" />
              </defs>
              <g
                 transform="matrix(0.12,0,0,-0.12,154.03,218.69033)"
                 id="g4580">
                <use
                   xlink:href="#DejaVuSans-52"
                   id="use4576" />
                <use
                   x="63.623047"
                   xlink:href="#DejaVuSans-48"
                   id="use4578" />
              </g>
            </g>
          </g>
          <g
             id="ytick_4">
            <g
               id="line2d_15">
              <g
                 id="g4586">
                <use
                   style="stroke:#000000"
                   x="172.8"
                   xlink:href="#mac69d2a98e"
                   y="172.43672"
                   id="use4584" />
              </g>
            </g>
            <g
               id="line2d_16">
              <g
                 id="g4591">
                <use
                   style="stroke:#000000"
                   x="405.70435"
                   xlink:href="#mfbc427d050"
                   y="172.43672"
                   id="use4589" />
              </g>
            </g>
            <g
               id="text_9">
              <!-- 60 -->
              <defs
                 id="defs4595">
                <path
                   d="m 33.015625,40.375 q -6.640625,0 -10.53125,-4.546875 -3.875,-4.53125 -3.875,-12.4375 0,-7.859375 3.875,-12.4375 3.890625,-4.5625 10.53125,-4.5625 6.640625,0 10.515625,4.5625 3.875,4.578125 3.875,12.4375 0,7.90625 -3.875,12.4375 Q 39.65625,40.375 33.015625,40.375 Z M 52.59375,71.296875 V 62.3125 q -3.71875,1.75 -7.5,2.671875 -3.78125,0.9375 -7.5,0.9375 -9.765625,0 -14.921875,-6.59375 -5.140625,-6.59375 -5.875,-19.921875 2.875,4.25 7.21875,6.515625 4.359375,2.265625 9.578125,2.265625 10.984375,0 17.359375,-6.671875 6.375,-6.65625 6.375,-18.125 0,-11.234375 -6.640625,-18.03125 -6.640625,-6.78125 -17.671875,-6.78125 -12.65625,0 -19.34375,9.6875 -6.6875,9.703125 -6.6875,28.109375 0,17.28125 8.203125,27.5625 8.203125,10.28125 22.015625,10.28125 3.71875,0 7.5,-0.734375 3.78125,-0.734375 7.890625,-2.1875 z"
                   id="DejaVuSans-54" />
              </defs>
              <g
                 transform="matrix(0.12,0,0,-0.12,154.03,176.99579)"
                 id="g4601">
                <use
                   xlink:href="#DejaVuSans-54"
                   id="use4597" />
                <use
                   x="63.623047"
                   xlink:href="#DejaVuSans-48"
                   id="use4599" />
              </g>
            </g>
          </g>
          <g
             id="ytick_5">
            <g
               id="line2d_17">
              <g
                 id="g4607">
                <use
                   style="stroke:#000000"
                   x="172.8"
                   xlink:href="#mac69d2a98e"
                   y="130.74219"
                   id="use4605" />
              </g>
            </g>
            <g
               id="line2d_18">
              <g
                 id="g4612">
                <use
                   style="stroke:#000000"
                   x="405.70435"
                   xlink:href="#mfbc427d050"
                   y="130.74219"
                   id="use4610" />
              </g>
            </g>
            <g
               id="text_10">
              <!-- 80 -->
              <defs
                 id="defs4616">
                <path
                   d="m 31.78125,34.625 q -7.03125,0 -11.0625,-3.765625 -4.015625,-3.765625 -4.015625,-10.34375 0,-6.59375 4.015625,-10.359375 4.03125,-3.765625 11.0625,-3.765625 7.03125,0 11.078125,3.78125 4.0625,3.796875 4.0625,10.34375 0,6.578125 -4.03125,10.34375 Q 38.875,34.625 31.78125,34.625 Z m -9.859375,4.1875 Q 15.578125,40.375 12.03125,44.71875 8.5,49.078125 8.5,55.328125 q 0,8.734375 6.21875,13.8125 6.234375,5.078125 17.0625,5.078125 10.890625,0 17.09375,-5.078125 6.203125,-5.078125 6.203125,-13.8125 0,-6.25 -3.546875,-10.609375 Q 48,40.375 41.703125,38.8125 q 7.125,-1.65625 11.09375,-6.5 3.984375,-4.828125 3.984375,-11.796875 0,-10.609375 -6.46875,-16.28125 -6.46875,-5.65625 -18.53125,-5.65625 -12.046875,0 -18.53125,5.65625 -6.46875,5.671875 -6.46875,16.28125 0,6.96875 4,11.796875 4.015625,4.84375 11.140625,6.5 z M 18.3125,54.390625 q 0,-5.65625 3.53125,-8.828125 3.546875,-3.171875 9.9375,-3.171875 6.359375,0 9.9375,3.171875 3.59375,3.171875 3.59375,8.828125 0,5.671875 -3.59375,8.84375 -3.578125,3.171875 -9.9375,3.171875 -6.390625,0 -9.9375,-3.171875 Q 18.3125,60.0625 18.3125,54.390625 Z"
                   id="DejaVuSans-56" />
              </defs>
              <g
                 transform="matrix(0.12,0,0,-0.12,154.03,135.30124)"
                 id="g4622">
                <use
                   xlink:href="#DejaVuSans-56"
                   id="use4618" />
                <use
                   x="63.623047"
                   xlink:href="#DejaVuSans-48"
                   id="use4620" />
              </g>
            </g>
          </g>
          <g
             id="ytick_6">
            <g
               id="line2d_19">
              <g
                 id="g4628">
                <use
                   style="stroke:#000000"
                   x="172.8"
                   xlink:href="#mac69d2a98e"
                   y="89.047638"
                   id="use4626" />
              </g>
            </g>
            <g
               id="line2d_20">
              <g
                 id="g4633">
                <use
                   style="stroke:#000000"
                   x="405.70435"
                   xlink:href="#mfbc427d050"
                   y="89.047638"
                   id="use4631" />
              </g>
            </g>
            <g
               id="text_11">
              <!-- 100 -->
              <g
                 transform="matrix(0.12,0,0,-0.12,146.395,93.606699)"
                 id="g4642">
                <use
                   xlink:href="#DejaVuSans-49"
                   id="use4636" />
                <use
                   x="63.623047"
                   xlink:href="#DejaVuSans-48"
                   id="use4638" />
                <use
                   x="127.24609"
                   xlink:href="#DejaVuSans-48"
                   id="use4640" />
              </g>
            </g>
          </g>
          <g
             id="text_12">
            <!-- Reacted reporter (%) -->
            <defs
               id="defs4656">
              <path
                 d="m 44.390625,34.1875 q 3.171875,-1.078125 6.171875,-4.59375 3,-3.515625 6.03125,-9.671875 L 66.609375,0 H 56 l -9.3125,18.703125 q -3.625,7.328125 -7.015625,9.71875 -3.390625,2.390625 -9.25,2.390625 h -10.75 V 0 H 9.8125 v 72.90625 h 22.265625 q 12.5,0 18.65625,-5.234375 6.15625,-5.21875 6.15625,-15.765625 0,-6.890625 -3.203125,-11.4375 -3.203125,-4.53125 -9.296875,-6.28125 z m -24.71875,30.609375 v -25.875 h 12.40625 q 7.125,0 10.765625,3.296875 3.640625,3.296875 3.640625,9.6875 0,6.390625 -3.640625,9.640625 -3.640625,3.25 -10.765625,3.25 z"
                 id="DejaVuSans-82" />
              <path
                 d="m 34.28125,27.484375 q -10.890625,0 -15.09375,-2.484375 -4.203125,-2.484375 -4.203125,-8.5 0,-4.78125 3.15625,-7.59375 3.15625,-2.796875 8.5625,-2.796875 7.484375,0 12,5.296875 4.515625,5.296875 4.515625,14.078125 v 2 z m 17.921875,3.71875 V 0 H 43.21875 v 8.296875 q -3.078125,-4.96875 -7.671875,-7.34375 -4.59375,-2.375 -11.234375,-2.375 -8.390625,0 -13.359375,4.71875 Q 6,8.015625 6,15.921875 q 0,9.21875 6.171875,13.90625 6.1875,4.6875 18.4375,4.6875 H 43.21875 v 0.890625 q 0,6.203125 -4.078125,9.59375 -4.078125,3.390625 -11.453125,3.390625 -4.6875,0 -9.140625,-1.125 -4.4375,-1.125 -8.53125,-3.375 v 8.3125 q 4.921875,1.90625 9.5625,2.84375 Q 24.21875,56 28.609375,56 q 11.875,0 17.734375,-6.15625 5.859375,-6.140625 5.859375,-18.640625 z"
                 id="DejaVuSans-97" />
              <path
                 d="M 48.78125,52.59375 V 44.1875 q -3.8125,2.109375 -7.640625,3.15625 -3.828125,1.046875 -7.734375,1.046875 -8.75,0 -13.59375,-5.546875 -4.828125,-5.53125 -4.828125,-15.546875 0,-10.015625 4.828125,-15.5625 4.84375,-5.53125 13.59375,-5.53125 3.90625,0 7.734375,1.046875 3.828125,1.046875 7.640625,3.15625 v -8.3125 q -3.765625,-1.75 -7.796875,-2.625 -4.015625,-0.890625 -8.5625,-0.890625 -12.359375,0 -19.640625,7.765625 -7.265625,7.765625 -7.265625,20.953125 0,13.375 7.34375,21.03125 Q 20.21875,56 33.015625,56 q 4.140625,0 8.09375,-0.859375 3.953125,-0.84375 7.671875,-2.546875 z"
                 id="DejaVuSans-99" />
              <path
                 d="M 18.3125,70.21875 V 54.6875 h 18.5 v -6.984375 h -18.5 v -29.6875 q 0,-6.6875 1.828125,-8.59375 1.828125,-1.90625 7.453125,-1.90625 H 36.8125 V 0 H 27.59375 Q 17.1875,0 13.234375,3.875 9.28125,7.765625 9.28125,18.015625 v 29.6875 H 2.6875 V 54.6875 h 6.59375 v 15.53125 z"
                 id="DejaVuSans-116" />
              <path
                 d="m 45.40625,46.390625 v 29.59375 h 8.984375 V 0 H 45.40625 v 8.203125 q -2.828125,-4.875 -7.15625,-7.25 -4.3125,-2.375 -10.375,-2.375 -9.90625,0 -16.140625,7.90625 -6.21875,7.921875 -6.21875,20.8125 0,12.890625 6.21875,20.796875 Q 17.96875,56 27.875,56 q 6.0625,0 10.375,-2.375 4.328125,-2.359375 7.15625,-7.234375 z M 14.796875,27.296875 q 0,-9.90625 4.078125,-15.546875 4.078125,-5.640625 11.203125,-5.640625 7.125,0 11.21875,5.640625 4.109375,5.640625 4.109375,15.546875 0,9.90625 -4.109375,15.546875 -4.09375,5.640625 -11.21875,5.640625 -7.125,0 -11.203125,-5.640625 -4.078125,-5.640625 -4.078125,-15.546875 z"
                 id="DejaVuSans-100" />
              <path
                 id="DejaVuSans-32"
                 d="" />
              <path
                 d="m 41.109375,46.296875 q -1.515625,0.875 -3.296875,1.28125 Q 36.03125,48 33.890625,48 26.265625,48 22.1875,43.046875 18.109375,38.09375 18.109375,28.8125 V 0 h -9.03125 v 54.6875 h 9.03125 v -8.5 q 2.84375,4.984375 7.375,7.390625 Q 30.03125,56 36.53125,56 q 0.921875,0 2.046875,-0.125 1.125,-0.109375 2.484375,-0.359375 z"
                 id="DejaVuSans-114" />
              <path
                 d="m 18.109375,8.203125 v -29 H 9.078125 V 54.6875 h 9.03125 v -8.296875 q 2.84375,4.875 7.15625,7.234375 Q 29.59375,56 35.59375,56 q 9.96875,0 16.1875,-7.90625 6.234375,-7.90625 6.234375,-20.796875 0,-12.890625 -6.234375,-20.8125 -6.21875,-7.90625 -16.1875,-7.90625 -6,0 -10.328125,2.375 -4.3125,2.375 -7.15625,7.25 z M 48.6875,27.296875 q 0,9.90625 -4.078125,15.546875 -4.078125,5.640625 -11.203125,5.640625 -7.140625,0 -11.21875,-5.640625 -4.078125,-5.640625 -4.078125,-15.546875 0,-9.90625 4.078125,-15.546875 4.078125,-5.640625 11.21875,-5.640625 7.125,0 11.203125,5.640625 4.078125,5.640625 4.078125,15.546875 z"
                 id="DejaVuSans-112" />
              <path
                 d="m 30.609375,48.390625 q -7.21875,0 -11.421875,-5.640625 -4.203125,-5.640625 -4.203125,-15.453125 0,-9.8125 4.171875,-15.453125 4.1875,-5.640625 11.453125,-5.640625 7.1875,0 11.375,5.65625 4.203125,5.671875 4.203125,15.4375 0,9.71875 -4.203125,15.40625 -4.1875,5.6875 -11.375,5.6875 z m 0,7.609375 q 11.71875,0 18.40625,-7.625 6.703125,-7.609375 6.703125,-21.078125 0,-13.421875 -6.703125,-21.078125 -6.6875,-7.640625 -18.40625,-7.640625 -11.765625,0 -18.4375,7.640625 -6.65625,7.65625 -6.65625,21.078125 0,13.46875 6.65625,21.078125 Q 18.84375,56 30.609375,56 Z"
                 id="DejaVuSans-111" />
              <path
                 d="m 72.703125,32.078125 q -4.25,0 -6.671875,-3.609375 -2.40625,-3.609375 -2.40625,-10.0625 0,-6.34375 2.40625,-9.984375 2.421875,-3.640625 6.671875,-3.640625 4.15625,0 6.5625,3.640625 2.421875,3.640625 2.421875,9.984375 0,6.40625 -2.421875,10.03125 -2.40625,3.640625 -6.5625,3.640625 z m 0,6.203125 q 7.71875,0 12.25,-5.375 Q 89.5,27.546875 89.5,18.40625 q 0,-9.125 -4.5625,-14.484375 -4.5625,-5.34375 -12.234375,-5.34375 -7.8125,0 -12.359375,5.34375 -4.53125,5.359375 -4.53125,14.484375 0,9.1875 4.5625,14.53125 4.5625,5.34375 12.328125,5.34375 z M 22.3125,68.015625 q -4.203125,0 -6.625,-3.640625 -2.40625,-3.625 -2.40625,-9.984375 0,-6.4375 2.390625,-10.0625 2.390625,-3.609375 6.640625,-3.609375 4.25,0 6.65625,3.609375 2.421875,3.625 2.421875,10.0625 0,6.296875 -2.4375,9.953125 -2.4375,3.671875 -6.640625,3.671875 z m 44.09375,6.203125 h 7.8125 L 28.609375,-1.421875 h -7.8125 z m -44.09375,0 q 7.71875,0 12.296875,-5.34375 4.59375,-5.34375 4.59375,-14.484375 0,-9.21875 -4.5625,-14.546875 -4.5625,-5.328125 -12.328125,-5.328125 -7.765625,0 -12.28125,5.34375 -4.515625,5.359375 -4.515625,14.53125 0,9.09375 4.53125,14.453125 4.546875,5.375 12.265625,5.375 z"
                 id="DejaVuSans-37" />
            </defs>
            <g
               transform="matrix(0,-0.12,-0.12,0,139.89937,256.3815)"
               id="g4698">
              <use
                 xlink:href="#DejaVuSans-82"
                 id="use4658" />
              <use
                 x="64.982422"
                 xlink:href="#DejaVuSans-101"
                 id="use4660" />
              <use
                 x="126.50586"
                 xlink:href="#DejaVuSans-97"
                 id="use4662" />
              <use
                 x="187.78516"
                 xlink:href="#DejaVuSans-99"
                 id="use4664" />
              <use
                 x="242.76562"
                 xlink:href="#DejaVuSans-116"
                 id="use4666" />
              <use
                 x="281.97461"
                 xlink:href="#DejaVuSans-101"
                 id="use4668" />
              <use
                 x="343.49805"
                 xlink:href="#DejaVuSans-100"
                 id="use4670" />
              <use
                 x="406.97461"
                 xlink:href="#DejaVuSans-32"
                 id="use4672" />
              <use
                 x="438.76172"
                 xlink:href="#DejaVuSans-114"
                 id="use4674" />
              <use
                 x="477.625"
                 xlink:href="#DejaVuSans-101"
                 id="use4676" />
              <use
                 x="539.14844"
                 xlink:href="#DejaVuSans-112"
                 id="use4678" />
              <use
                 x="602.625"
                 xlink:href="#DejaVuSans-111"
                 id="use4680" />
              <use
                 x="663.80664"
                 xlink:href="#DejaVuSans-114"
                 id="use4682" />
              <use
                 x="704.91992"
                 xlink:href="#DejaVuSans-116"
                 id="use4684" />
              <use
                 x="744.12891"
                 xlink:href="#DejaVuSans-101"
                 id="use4686" />
              <use
                 x="805.65234"
                 xlink:href="#DejaVuSans-114"
                 id="use4688" />
              <use
                 x="846.76562"
                 xlink:href="#DejaVuSans-32"
                 id="use4690" />
              <use
                 x="878.55273"
                 xlink:href="#DejaVuSans-40"
                 id="use4692" />
              <use
                 x="917.56641"
                 xlink:href="#DejaVuSans-37"
                 id="use4694" />
              <use
                 x="1012.5859"
                 xlink:href="#DejaVuSans-41"
                 id="use4696" />
            </g>
          </g>
        </g>
        <g
           id="line2d_21">
          <path
             clip-path="url(#p5a11bf1ff3)"
             d="m 172.8,297.52036 1.86323,-0.13201 2.32905,-0.43701 3.26066,-0.90003 4.65809,-1.557 8.85036,-3.23714 12.11103,-4.64626 7.91874,-3.25298 6.52133,-2.9079 6.05551,-2.95205 5.5897,-2.98175 5.58971,-3.25206 5.5897,-3.52874 5.58971,-3.79601 6.05551,-4.38617 6.98713,-5.35473 8.38456,-6.72566 14.44007,-11.93178 14.90587,-12.22222 11.17941,-8.87174 10.7136,-8.20823 10.7136,-7.93002 12.11103,-8.68269 13.04264,-9.07726 14.44007,-9.77927 14.90588,-9.8321 14.90588,-9.5676 4.65809,-2.93154 v 0"
             style="fill:none;stroke:#ff0000;stroke-width:2;stroke-dasharray:7.4, 3.2;stroke-dashoffset:0"
             id="path4702" />
        </g>
        <g
           id="line2d_22">
          <path
             clip-path="url(#p5a11bf1ff3)"
             d="m 172.8,297.52036 1.86323,-0.13201 2.32905,-0.43701 3.26066,-0.90003 4.65809,-1.557 8.85036,-3.23714 12.11103,-4.64643 7.91874,-3.25506 6.52133,-2.91571 5.5897,-2.7357 5.1239,-2.74691 4.65808,-2.72881 4.65809,-2.97699 4.65809,-3.25047 4.65808,-3.54741 4.19228,-3.464 4.19228,-3.73605 4.19228,-4.02017 4.19228,-4.31719 4.19228,-4.62294 4.19227,-4.93615 4.19228,-5.25531 4.65809,-6.21775 4.65809,-6.61649 4.65808,-7.01062 4.65809,-7.39425 5.1239,-8.55454 5.5897,-9.79408 6.05551,-11.07171 7.91875,-14.99054 13.50845,-25.66637 5.58971,-9.96912 3.72647,-6.2317 3.26066,-5.05648 3.26066,-4.62522 2.79485,-3.5815 2.79485,-3.19892 2.32905,-2.360803 2.32904,-2.077129 2.32904,-1.791157 2.32905,-1.522504 2.32904,-1.265584 2.32904,-1.030648 2.32905,-0.815794 2.79485,-0.736781 2.79485,-0.524422 3.72647,-0.449546 4.65809,-0.294501 6.52132,-0.156481 12.11103,-0.04762 v 0"
             style="fill:none;stroke:#0000ff;stroke-width:2;stroke-dasharray:7.4, 3.2;stroke-dashoffset:0"
             id="path4705" />
        </g>
        <g
           id="patch_3">
          <path
             d="M 172.8,307.944 V 78.624"
             style="fill:none;stroke:#000000;stroke-width:0.8;stroke-linecap:square;stroke-linejoin:miter"
             id="path4708" />
        </g>
        <g
           id="patch_4">
          <path
             d="M 405.70435,307.944 V 78.624"
             style="fill:none;stroke:#000000;stroke-width:0.8;stroke-linecap:square;stroke-linejoin:miter"
             id="path4711" />
        </g>
        <g
           id="patch_5">
          <path
             d="M 172.8,307.944 H 405.70435"
             style="fill:none;stroke:#000000;stroke-width:0.8;stroke-linecap:square;stroke-linejoin:miter"
             id="path4714" />
        </g>
        <g
           id="patch_6">
          <path
             d="M 172.8,78.624 H 405.70435"
             style="fill:none;stroke:#000000;stroke-width:0.8;stroke-linecap:square;stroke-linejoin:miter"
             id="path4717" />
        </g>
        <g
           id="text_13">
          <!-- AND Gate Fuel Sim -->
          <defs
             id="defs4728">
            <path
               d="M 34.1875,63.1875 20.796875,26.90625 h 26.8125 z m -5.578125,9.71875 h 11.1875 L 67.578125,0 h -10.25 L 50.6875,18.703125 H 17.828125 L 11.1875,0 H 0.78125 Z"
               id="DejaVuSans-65" />
            <path
               d="M 9.8125,72.90625 H 23.09375 L 55.421875,11.921875 V 72.90625 h 9.5625 V 0 h -13.28125 l -32.3125,60.984375 V 0 H 9.8125 Z"
               id="DejaVuSans-78" />
            <path
               d="M 19.671875,64.796875 V 8.109375 H 31.59375 q 15.09375,0 22.09375,6.828125 7,6.84375 7,21.59375 0,14.640625 -7,21.453125 -7,6.8125 -22.09375,6.8125 z M 9.8125,72.90625 h 20.265625 q 21.1875,0 31.09375,-8.8125 9.921875,-8.8125 9.921875,-27.5625 0,-18.859375 -9.96875,-27.703125 Q 51.171875,0 30.078125,0 H 9.8125 Z"
               id="DejaVuSans-68" />
            <path
               d="M 59.515625,10.40625 V 29.984375 H 43.40625 v 8.109375 h 25.875 V 6.78125 Q 63.578125,2.734375 56.6875,0.65625 49.8125,-1.421875 42,-1.421875 q -17.09375,0 -26.75,9.984375 -9.640625,10 -9.640625,27.8125 0,17.875 9.640625,27.859375 9.65625,9.984375 26.75,9.984375 7.125,0 13.546875,-1.765625 6.421875,-1.75 11.84375,-5.171875 v -10.5 q -5.46875,4.640625 -11.625,6.984375 -6.15625,2.34375 -12.9375,2.34375 -13.390625,0 -20.109375,-7.46875 -6.703125,-7.46875 -6.703125,-22.265625 0,-14.75 6.703125,-22.21875 6.71875,-7.46875 20.109375,-7.46875 5.21875,0 9.3125,0.90625 4.109375,0.90625 7.375,2.8125 z"
               id="DejaVuSans-71" />
            <path
               d="m 9.8125,72.90625 h 41.890625 v -8.3125 H 19.671875 V 43.109375 h 28.90625 V 34.8125 H 19.671875 V 0 H 9.8125 Z"
               id="DejaVuSans-70" />
            <path
               d="M 8.5,21.578125 V 54.6875 h 8.984375 V 21.921875 q 0,-7.765625 3.015625,-11.65625 3.03125,-3.875 9.09375,-3.875 7.265625,0 11.484375,4.640625 4.234375,4.640625 4.234375,12.65625 v 31 h 8.984375 V 0 H 45.3125 V 8.40625 Q 42.046875,3.421875 37.71875,1 33.40625,-1.421875 27.6875,-1.421875 18.265625,-1.421875 13.375,4.4375 8.5,10.296875 8.5,21.578125 Z M 31.109375,56 Z"
               id="DejaVuSans-117" />
            <path
               d="M 9.421875,75.984375 H 18.40625 V 0 H 9.421875 Z"
               id="DejaVuSans-108" />
            <path
               d="m 53.515625,70.515625 v -9.625 q -5.609375,2.6875 -10.59375,4 -4.984375,1.328125 -9.625,1.328125 -8.046875,0 -12.421875,-3.125 -4.375,-3.125 -4.375,-8.890625 0,-4.84375 2.90625,-7.3125 2.90625,-2.453125 11.015625,-3.96875 L 36.375,41.703125 Q 47.40625,39.59375 52.65625,34.296875 57.90625,29 57.90625,20.125 q 0,-10.609375 -7.109375,-16.078125 -7.09375,-5.46875 -20.8125,-5.46875 -5.171875,0 -11.015625,1.171875 Q 13.140625,0.921875 6.890625,3.21875 V 13.375 q 6,-3.359375 11.765625,-5.078125 5.765625,-1.703125 11.328125,-1.703125 8.4375,0 13.03125,3.3125 4.59375,3.328125 4.59375,9.484375 0,5.359375 -3.296875,8.390625 Q 41.015625,30.8125 33.5,32.328125 L 27.484375,33.5 q -11.03125,2.1875 -15.96875,6.875 -4.921875,4.6875 -4.921875,13.046875 0,9.671875 6.8125,15.234375 6.8125,5.5625 18.765625,5.5625 5.140625,0 10.453125,-0.9375 5.328125,-0.921875 10.890625,-2.765625 z"
               id="DejaVuSans-83" />
          </defs>
          <g
             transform="matrix(0.12,0,0,-0.12,232.34592,72.624)"
             id="g4764">
            <use
               x="220.21484"
               xlink:href="#DejaVuSans-32"
               id="use4736" />
            <use
               x="491.50391"
               xlink:href="#DejaVuSans-32"
               id="use4746" />
            <use
               x="727.99609"
               xlink:href="#DejaVuSans-32"
               id="use4756" />
          </g>
        </g>
        <g
           id="legend_1">
          <g
             id="line2d_23">
            <path
               d="m 181.8,91.722437 h 20"
               style="fill:none;stroke:#ff0000;stroke-width:2;stroke-dasharray:7.4, 3.2;stroke-dashoffset:0"
               id="path4767" />
          </g>
          <g
             id="line2d_24" />
          <g
             id="text_14">
            <!-- S{2} w/o F -->
            <defs
               id="defs4775">
              <path
                 d="m 51.125,-9.28125 v -7.03125 h -3.03125 q -12.15625,0 -16.28125,3.625 -4.125,3.609375 -4.125,14.390625 V 13.375 q 0,7.375 -2.640625,10.203125 -2.640625,2.84375 -9.5625,2.84375 H 12.5 v 6.984375 h 2.984375 q 6.984375,0 9.59375,2.796875 2.609375,2.8125 2.609375,10.09375 v 11.71875 q 0,10.78125 4.125,14.375 4.125,3.59375 16.28125,3.59375 H 51.125 V 69 h -3.328125 q -6.875,0 -8.984375,-2.15625 -2.09375,-2.140625 -2.09375,-9.03125 V 45.703125 Q 36.71875,38.03125 34.5,34.5625 32.28125,31.109375 26.90625,29.890625 32.328125,28.5625 34.515625,25.09375 36.71875,21.625 36.71875,14.015625 V 1.90625 q 0,-6.890625 2.09375,-9.03125 2.109375,-2.15625 8.984375,-2.15625 z"
                 id="DejaVuSans-123" />
              <path
                 d="m 12.5,-9.28125 h 3.421875 q 6.828125,0 8.90625,2.109375 2.078125,2.09375 2.078125,9.078125 v 12.109375 q 0,7.609375 2.1875,11.078125 2.203125,3.46875 7.625,4.796875 -5.421875,1.21875 -7.625,4.671875 -2.1875,3.46875 -2.1875,11.140625 V 57.8125 q 0,6.9375 -2.078125,9.0625 Q 22.75,69 15.921875,69 H 12.5 v 6.984375 h 3.078125 q 12.15625,0 16.234375,-3.59375 4.078125,-3.59375 4.078125,-14.375 v -11.71875 q 0,-7.28125 2.625,-10.09375 Q 41.15625,33.40625 48.09375,33.40625 H 51.125 v -6.984375 h -3.03125 q -6.9375,0 -9.578125,-2.84375 Q 35.890625,20.75 35.890625,13.375 V 1.703125 q 0,-10.78125 -4.078125,-14.390625 -4.078125,-3.625 -16.234375,-3.625 H 12.5 Z"
                 id="DejaVuSans-125" />
              <path
                 d="M 4.203125,54.6875 H 13.1875 L 24.421875,12.015625 35.59375,54.6875 H 46.1875 L 57.421875,12.015625 68.609375,54.6875 H 77.59375 L 63.28125,0 H 52.6875 L 40.921875,44.828125 29.109375,0 H 18.5 Z"
                 id="DejaVuSans-119" />
              <path
                 d="M 25.390625,72.90625 H 33.6875 L 8.296875,-9.28125 H 0 Z"
                 id="DejaVuSans-47" />
            </defs>
            <g
               transform="matrix(0.1,0,0,-0.1,209.8,95.222437)"
               id="g4797">
              <use
                 xlink:href="#DejaVuSans-83"
                 id="use4777" />
              <use
                 x="63.476562"
                 xlink:href="#DejaVuSans-123"
                 id="use4779" />
              <use
                 x="127.09961"
                 xlink:href="#DejaVuSans-50"
                 id="use4781" />
              <use
                 x="190.72266"
                 xlink:href="#DejaVuSans-125"
                 id="use4783" />
              <use
                 x="254.3457"
                 xlink:href="#DejaVuSans-32"
                 id="use4785" />
              <use
                 x="286.13281"
                 xlink:href="#DejaVuSans-119"
                 id="use4787" />
              <use
                 x="367.91992"
                 xlink:href="#DejaVuSans-47"
                 id="use4789" />
              <use
                 x="401.61133"
                 xlink:href="#DejaVuSans-111"
                 id="use4791" />
              <use
                 x="462.79297"
                 xlink:href="#DejaVuSans-32"
                 id="use4793" />
              <use
                 x="494.58008"
                 xlink:href="#DejaVuSans-70"
                 id="use4795" />
            </g>
          </g>
          <g
             id="line2d_25">
            <path
               d="m 181.8,106.40056 h 20"
               style="fill:none;stroke:#0000ff;stroke-width:2;stroke-dasharray:7.4, 3.2;stroke-dashoffset:0"
               id="path4800" />
          </g>
          <g
             id="line2d_26" />
          <g
             id="text_15">
            <!-- S{2} w/ F -->
            <g
               transform="matrix(0.1,0,0,-0.1,209.8,109.90056)"
               id="g4822">
              <use
                 xlink:href="#DejaVuSans-83"
                 id="use4804" />
              <use
                 x="63.476562"
                 xlink:href="#DejaVuSans-123"
                 id="use4806" />
              <use
                 x="127.09961"
                 xlink:href="#DejaVuSans-50"
                 id="use4808" />
              <use
                 x="190.72266"
                 xlink:href="#DejaVuSans-125"
                 id="use4810" />
              <use
                 x="254.3457"
                 xlink:href="#DejaVuSans-32"
                 id="use4812" />
              <use
                 x="286.13281"
                 xlink:href="#DejaVuSans-119"
                 id="use4814" />
              <use
                 x="367.91992"
                 xlink:href="#DejaVuSans-47"
                 id="use4816" />
              <use
                 x="401.61133"
                 xlink:href="#DejaVuSans-32"
                 id="use4818" />
              <use
                 x="433.39844"
                 xlink:href="#DejaVuSans-70"
                 id="use4820" />
            </g>
          </g>
        </g>
      </g>
    </g>
  </g>
  <defs
     id="defs4831">
    <clipPath
       id="p5a11bf1ff3">
      <rect
         height="229.32001"
         width="232.90434"
         x="172.8"
         y="78.624001"
         id="rect4828" />
    </clipPath>
  </defs>
  <rect
     style="fill:none;fill-rule:evenodd;stroke:#000000;stroke-width:0.999997;stroke-linecap:butt;stroke-linejoin:round;stroke-dasharray:none"
     id="rect2235"
     width="746.80347"
     height="297.00354"
     x="1.5982666"
     y="1.49823"
     ry="0" />
</svg>
