<?xml version="1.0" encoding="UTF-8" standalone="no"?>
<!-- Created with matplotlib (https://matplotlib.org/) -->

<svg
   height="300pt"
   version="1.1"
   viewBox="0 0 749.99999 299.99999"
   width="750pt"
   id="svg5982"
   sodipodi:docname="discontinuous_simulations.svg"
   inkscape:version="1.2.1 (9c6d41e410, 2022-07-14)"
   xmlns:inkscape="http://www.inkscape.org/namespaces/inkscape"
   xmlns:sodipodi="http://sodipodi.sourceforge.net/DTD/sodipodi-0.dtd"
   xmlns:xlink="http://www.w3.org/1999/xlink"
   xmlns="http://www.w3.org/2000/svg"
   xmlns:svg="http://www.w3.org/2000/svg">
  <sodipodi:namedview
     id="namedview5984"
     pagecolor="#ffffff"
     bordercolor="#666666"
     borderopacity="1.0"
     inkscape:showpageshadow="2"
     inkscape:pageopacity="0.0"
     inkscape:pagecheckerboard="0"
     inkscape:deskcolor="#d1d1d1"
     inkscape:document-units="pt"
     showgrid="false"
     inkscape:zoom="1.1731405"
     inkscape:cx="508.03806"
     inkscape:cy="325.62171"
     inkscape:window-width="1920"
     inkscape:window-height="986"
     inkscape:window-x="-11"
     inkscape:window-y="-11"
     inkscape:window-maximized="1"
     inkscape:current-layer="svg5982" />
  <defs
     id="defs5550">
    <rect
       x="333.92179"
       y="238.68777"
       width="228.44107"
       height="187.45429"
       id="rect6795" />
    <marker
       style="overflow:visible"
       id="Arrow2"
       refX="0"
       refY="0"
       orient="auto-start-reverse"
       inkscape:stockid="Arrow2"
       markerWidth="7.6999998"
       markerHeight="5.5999999"
       viewBox="0 0 7.7 5.6"
       inkscape:isstock="true"
       inkscape:collect="always"
       preserveAspectRatio="xMidYMid">
      <path
         transform="scale(0.7)"
         d="M -2,-4 9,0 -2,4 c 2,-2.33 2,-5.66 0,-8 z"
         style="fill:context-stroke;fill-rule:evenodd;stroke:none"
         id="arrow2L" />
    </marker>
    <style
       type="text/css"
       id="style5548">
*{stroke-linecap:butt;stroke-linejoin:round;}
  </style>
  </defs>
  <g
     id="figure_1"
     transform="translate(-325.48333,-50.63074)">
    <g
       id="patch_1" />
    <g
       id="axes_1">
      <g
         id="patch_2">
        <path
           d="M 550.92706,307.944 H 866.03294 V 78.624 H 550.92706 Z"
           style="fill:#ffffff"
           id="path5555" />
      </g>
      <g
         id="matplotlib.axis_1">
        <g
           id="xtick_1">
          <g
             id="line2d_1">
            <defs
               id="defs5559">
              <path
                 d="M 0,0 V -3"
                 id="md67af3750c"
                 style="stroke:#000000" />
            </defs>
            <g
               id="g5563">
              <use
                 style="stroke:#000000"
                 x="550.92706"
                 xlink:href="#md67af3750c"
                 y="307.944"
                 id="use5561" />
            </g>
          </g>
          <g
             id="line2d_2">
            <defs
               id="defs5567">
              <path
                 d="M 0,0 V 3"
                 id="m45319998fc"
                 style="stroke:#000000" />
            </defs>
            <g
               id="g5571">
              <use
                 style="stroke:#000000"
                 x="550.92706"
                 xlink:href="#m45319998fc"
                 y="78.624001"
                 id="use5569" />
            </g>
          </g>
          <g
             id="text_1">
            <!-- 0 -->
            <defs
               id="defs5575">
              <path
                 d="m 56.984375,36.375 q 0,-19.578125 -6.125,-28.734375 -6.125,-9.15625 -19.015625,-9.15625 -13.09375,0 -19.125,9.28125 -6.03125,9.28125 -6.03125,28.515625 0,19.390625 6.09375,28.640625 6.109375,9.25 19.0625,9.25 13.078125,0 19.109375,-9.40625 Q 56.984375,55.375 56.984375,36.375 Z M 44.140625,14.203125 q 1.703125,3.96875 2.3125,9.3125 0.625,5.34375 0.625,12.859375 0,7.421875 -0.625,12.890625 -0.609375,5.46875 -2.359375,9.28125 -1.703125,3.765625 -4.671875,5.65625 -2.953125,1.90625 -7.578125,1.90625 -4.59375,0 -7.609375,-1.90625 -3,-1.890625 -4.75,-5.75 -1.65625,-3.625 -2.265625,-9.4375 -0.609375,-5.796875 -0.609375,-12.734375 0,-7.625 0.53125,-12.75 0.53125,-5.125 2.296875,-9.171875 1.609375,-3.8125 4.5625,-5.8125 2.953125,-2 7.84375,-2 4.578125,0 7.609375,1.90625 3.03125,1.90625 4.6875,5.75 z"
                 id="Verdana-48" />
            </defs>
            <g
               transform="matrix(0.12,0,0,-0.12,547.11237,320.56212)"
               id="g5579">
              <use
                 xlink:href="#Verdana-48"
                 id="use5577" />
            </g>
          </g>
        </g>
        <g
           id="xtick_2">
          <g
             id="line2d_3">
            <g
               id="g5585">
              <use
                 style="stroke:#000000"
                 x="616.5741"
                 xlink:href="#md67af3750c"
                 y="307.944"
                 id="use5583" />
            </g>
          </g>
          <g
             id="line2d_4">
            <g
               id="g5590">
              <use
                 style="stroke:#000000"
                 x="616.5741"
                 xlink:href="#m45319998fc"
                 y="78.624001"
                 id="use5588" />
            </g>
          </g>
          <g
             id="text_2">
            <!-- 50 -->
            <defs
               id="defs5594">
              <path
                 d="M 56.5,23.09375 Q 56.5,18.015625 54.640625,13.375 52.78125,8.734375 49.5625,5.5625 q -3.515625,-3.40625 -8.375,-5.25 -4.859375,-1.828125 -11.25,-1.828125 -5.96875,0 -11.484375,1.25 -5.515625,1.25 -9.328125,3 V 13.03125 h 0.6875 q 4,-2.53125 9.375,-4.3125 5.375,-1.78125 10.546875,-1.78125 3.46875,0 6.71875,0.96875 3.25,0.984375 5.78125,3.421875 2.15625,2.09375 3.25,5.015625 1.09375,2.9375 1.09375,6.796875 0,3.765625 -1.296875,6.34375 Q 44,32.078125 41.703125,33.640625 39.15625,35.5 35.515625,36.25 q -3.625,0.765625 -8.125,0.765625 -4.296875,0 -8.28125,-0.59375 Q 15.140625,35.84375 12.25,35.25 V 72.703125 H 56 V 64.15625 H 21.6875 V 44.828125 q 2.09375,0.1875 4.28125,0.28125 2.203125,0.109375 3.8125,0.109375 5.90625,0 10.34375,-1 4.453125,-1 8.171875,-3.546875 3.90625,-2.6875 6.046875,-6.9375 Q 56.5,29.5 56.5,23.09375 Z"
                 id="Verdana-53" />
            </defs>
            <g
               transform="matrix(0.12,0,0,-0.12,608.94474,320.56212)"
               id="g5600">
              <use
                 xlink:href="#Verdana-53"
                 id="use5596" />
              <use
                 x="63.574219"
                 xlink:href="#Verdana-48"
                 id="use5598" />
            </g>
          </g>
        </g>
        <g
           id="xtick_3">
          <g
             id="line2d_5">
            <g
               id="g5606">
              <use
                 style="stroke:#000000"
                 x="682.22119"
                 xlink:href="#md67af3750c"
                 y="307.944"
                 id="use5604" />
            </g>
          </g>
          <g
             id="line2d_6">
            <g
               id="g5611">
              <use
                 style="stroke:#000000"
                 x="682.22119"
                 xlink:href="#m45319998fc"
                 y="78.624001"
                 id="use5609" />
            </g>
          </g>
          <g
             id="text_3">
            <!-- 100 -->
            <defs
               id="defs5615">
              <path
                 d="M 52.9375,0 H 13.578125 V 7.421875 H 28.71875 V 56.15625 H 13.578125 v 6.640625 q 3.078125,0 6.59375,0.5 3.515625,0.515625 5.3125,1.5 2.25,1.21875 3.546875,3.09375 1.296875,1.890625 1.484375,5.0625 H 38.09375 V 7.421875 H 52.9375 Z"
                 id="Verdana-49" />
            </defs>
            <g
               transform="matrix(0.12,0,0,-0.12,670.77711,320.56212)"
               id="g5623">
              <use
                 xlink:href="#Verdana-49"
                 id="use5617" />
              <use
                 x="63.574219"
                 xlink:href="#Verdana-48"
                 id="use5619" />
              <use
                 x="127.14844"
                 xlink:href="#Verdana-48"
                 id="use5621" />
            </g>
          </g>
        </g>
        <g
           id="xtick_4">
          <g
             id="line2d_7">
            <g
               id="g5629">
              <use
                 style="stroke:#000000"
                 x="747.86823"
                 xlink:href="#md67af3750c"
                 y="307.944"
                 id="use5627" />
            </g>
          </g>
          <g
             id="line2d_8">
            <g
               id="g5634">
              <use
                 style="stroke:#000000"
                 x="747.86823"
                 xlink:href="#m45319998fc"
                 y="78.624001"
                 id="use5632" />
            </g>
          </g>
          <g
             id="text_4">
            <!-- 150 -->
            <g
               transform="matrix(0.12,0,0,-0.12,736.42417,320.56212)"
               id="g5643">
              <use
                 xlink:href="#Verdana-49"
                 id="use5637" />
              <use
                 x="63.574219"
                 xlink:href="#Verdana-53"
                 id="use5639" />
              <use
                 x="127.14844"
                 xlink:href="#Verdana-48"
                 id="use5641" />
            </g>
          </g>
        </g>
        <g
           id="xtick_5">
          <g
             id="line2d_9">
            <g
               id="g5649">
              <use
                 style="stroke:#000000"
                 x="813.51532"
                 xlink:href="#md67af3750c"
                 y="307.944"
                 id="use5647" />
            </g>
          </g>
          <g
             id="line2d_10">
            <g
               id="g5654">
              <use
                 style="stroke:#000000"
                 x="813.51532"
                 xlink:href="#m45319998fc"
                 y="78.624001"
                 id="use5652" />
            </g>
          </g>
          <g
             id="text_5">
            <!-- 200 -->
            <defs
               id="defs5658">
              <path
                 d="M 57.078125,0 H 7.859375 v 10.203125 q 5.125,4.390625 10.28125,8.78125 5.15625,4.40625 9.59375,8.75 9.375,9.078125 12.84375,14.421875 3.46875,5.359375 3.46875,11.5625 0,5.65625 -3.734375,8.84375 -3.734375,3.203125 -10.421875,3.203125 -4.453125,0 -9.625,-1.5625 -5.171875,-1.5625 -10.109375,-4.78125 H 9.671875 v 10.25 q 3.46875,1.71875 9.25,3.125 5.78125,1.421875 11.203125,1.421875 11.1875,0 17.53125,-5.40625 Q 54,63.421875 54,54.203125 q 0,-4.15625 -1.046875,-7.75 Q 51.90625,42.875 49.859375,39.65625 47.953125,36.625 45.390625,33.6875 q -2.5625,-2.921875 -6.234375,-6.484375 -5.21875,-5.125 -10.796875,-9.9375 -5.5625,-4.8125 -10.390625,-8.921875 h 39.109375 z"
                 id="Verdana-50" />
            </defs>
            <g
               transform="matrix(0.12,0,0,-0.12,802.07123,320.56212)"
               id="g5666">
              <use
                 xlink:href="#Verdana-50"
                 id="use5660" />
              <use
                 x="63.574219"
                 xlink:href="#Verdana-48"
                 id="use5662" />
              <use
                 x="127.14844"
                 xlink:href="#Verdana-48"
                 id="use5664" />
            </g>
          </g>
        </g>
        <g
           id="text_6">
          <!-- Time (min) -->
          <defs
             id="defs5678">
            <path
               d="M 61.625,64.109375 H 35.640625 V 0 h -9.65625 V 64.109375 H 0 v 8.59375 h 61.625 z"
               id="Verdana-84" />
            <path
               d="M 18.890625,63.671875 H 8.546875 V 73.1875 h 10.34375 z M 18.3125,0 H 9.125 v 54.546875 h 9.1875 z"
               id="Verdana-105" />
            <path
               d="m 88.625,0 h -9.1875 v 31.0625 q 0,3.515625 -0.3125,6.78125 -0.3125,3.265625 -1.34375,5.21875 -1.125,2.109375 -3.21875,3.171875 Q 72.46875,47.3125 68.5,47.3125 q -3.84375,0 -7.703125,-1.9375 -3.859375,-1.921875 -7.71875,-4.890625 0.140625,-1.125 0.234375,-2.625 Q 53.421875,36.375 53.421875,34.90625 V 0 h -9.1875 v 31.0625 q 0,3.609375 -0.3125,6.84375 -0.3125,3.25 -1.34375,5.203125 -1.125,2.109375 -3.234375,3.15625 Q 37.25,47.3125 33.296875,47.3125 q -3.75,0 -7.546875,-1.859375 -3.78125,-1.84375 -7.53125,-4.734375 V 0 h -9.1875 v 54.546875 h 9.1875 v -6.0625 q 4.296875,3.5625 8.5625,5.5625 4.28125,2.015625 9.109375,2.015625 5.5625,0 9.4375,-2.34375 3.890625,-2.34375 5.796875,-6.5 5.5625,4.6875 10.15625,6.765625 4.59375,2.078125 9.8125,2.078125 8.984375,0 13.25,-5.453125 4.28125,-5.4375 4.28125,-15.203125 z"
               id="Verdana-109" />
            <path
               d="M 54.6875,26.3125 H 14.5 q 0,-5.015625 1.515625,-8.765625 1.515625,-3.734375 4.15625,-6.125 2.53125,-2.34375 6.015625,-3.515625 3.5,-1.171875 7.703125,-1.171875 5.5625,0 11.203125,2.21875 5.640625,2.234375 8.03125,4.375 h 0.484375 v -10 Q 48.96875,1.375 44.140625,0.046875 q -4.828125,-1.3125 -10.15625,-1.3125 -13.578125,0 -21.203125,7.34375 -7.609375,7.34375 -7.609375,20.875 0,13.375 7.296875,21.234375 7.3125,7.875 19.21875,7.875 11.03125,0 17.015625,-6.453125 5.984375,-6.4375 5.984375,-18.3125 z M 45.75,33.34375 q -0.04687,7.234375 -3.640625,11.1875 -3.578125,3.953125 -10.90625,3.953125 -7.375,0 -11.75,-4.34375 Q 15.09375,39.796875 14.5,33.34375 Z"
               id="Verdana-101" />
            <path
               id="Verdana-32"
               d="" />
            <path
               d="m 38.234375,-20.125 h -11.1875 Q 18.40625,-10.203125 13.625,1.515625 8.84375,13.234375 8.84375,27.9375 q 0,14.6875 4.78125,26.40625 4.78125,11.71875 13.421875,21.640625 h 11.1875 v -0.5 Q 34.28125,71.921875 30.6875,67.25 27.09375,62.59375 24.03125,56.390625 q -2.9375,-6 -4.765625,-13.234375 Q 17.4375,35.9375 17.4375,27.9375 q 0,-8.359375 1.78125,-15.296875 Q 21,5.71875 24.03125,-0.53125 q 2.921875,-6.015625 6.671875,-10.875 3.765625,-4.859375 7.53125,-8.21875 z"
               id="Verdana-40" />
            <path
               d="m 54.640625,0 h -9.1875 v 31.0625 q 0,3.75 -0.4375,7.046875 -0.4375,3.296875 -1.609375,5.15625 -1.21875,2.046875 -3.515625,3.046875 -2.296875,1 -5.953125,1 -3.765625,0 -7.875,-1.859375 -4.09375,-1.84375 -7.84375,-4.734375 V 0 h -9.1875 v 54.546875 h 9.1875 v -6.0625 q 4.296875,3.5625 8.875,5.5625 4.59375,2.015625 9.4375,2.015625 8.828125,0 13.46875,-5.328125 4.640625,-5.328125 4.640625,-15.328125 z"
               id="Verdana-110" />
            <path
               d="m 36.578125,27.9375 q 0,-14.703125 -4.796875,-26.421875 Q 27,-10.203125 18.359375,-20.125 h -11.1875 v 0.5 q 3.765625,3.359375 7.546875,8.21875 3.78125,4.859375 6.671875,10.875 3.03125,6.25 4.8125,13.171875 1.78125,6.9375 1.78125,15.296875 0,8 -1.8125,15.21875 -1.8125,7.234375 -4.78125,13.234375 Q 18.3125,62.59375 14.71875,67.25 11.140625,71.921875 7.171875,75.484375 v 0.5 h 11.1875 Q 27,66.0625 31.78125,54.34375 36.578125,42.625 36.578125,27.9375 Z"
               id="Verdana-41" />
          </defs>
          <g
             transform="matrix(0.12,0,0,-0.12,674.88844,336.09525)"
             id="g5700">
            <use
               xlink:href="#Verdana-84"
               id="use5680" />
            <use
               x="61.621094"
               xlink:href="#Verdana-105"
               id="use5682" />
            <use
               x="89.0625"
               xlink:href="#Verdana-109"
               id="use5684" />
            <use
               x="186.32812"
               xlink:href="#Verdana-101"
               id="use5686" />
            <use
               x="245.89844"
               xlink:href="#Verdana-32"
               id="use5688" />
            <use
               x="281.05469"
               xlink:href="#Verdana-40"
               id="use5690" />
            <use
               x="326.46484"
               xlink:href="#Verdana-109"
               id="use5692" />
            <use
               x="423.73047"
               xlink:href="#Verdana-105"
               id="use5694" />
            <use
               x="451.17188"
               xlink:href="#Verdana-110"
               id="use5696" />
            <use
               x="514.45312"
               xlink:href="#Verdana-41"
               id="use5698" />
          </g>
        </g>
      </g>
      <g
         id="matplotlib.axis_2">
        <g
           id="ytick_1">
          <g
             id="line2d_11">
            <defs
               id="defs5705">
              <path
                 d="M 0,0 H 3"
                 id="me0719c2f34"
                 style="stroke:#000000" />
            </defs>
            <g
               id="g5709">
              <use
                 style="stroke:#000000"
                 x="550.92706"
                 xlink:href="#me0719c2f34"
                 y="288.83401"
                 id="use5707" />
            </g>
          </g>
          <g
             id="line2d_12">
            <defs
               id="defs5713">
              <path
                 d="M 0,0 H -3"
                 id="m5263014347"
                 style="stroke:#000000" />
            </defs>
            <g
               id="g5717">
              <use
                 style="stroke:#000000"
                 x="866.03296"
                 xlink:href="#m5263014347"
                 y="288.83401"
                 id="use5715" />
            </g>
          </g>
          <g
             id="text_7">
            <!-- 0 -->
            <g
               transform="matrix(0.12,0,0,-0.12,539.79768,293.39306)"
               id="g5722">
              <use
                 xlink:href="#Verdana-48"
                 id="use5720" />
            </g>
          </g>
        </g>
        <g
           id="ytick_2">
          <g
             id="line2d_13">
            <g
               id="g5728">
              <use
                 style="stroke:#000000"
                 x="550.92706"
                 xlink:href="#me0719c2f34"
                 y="250.614"
                 id="use5726" />
            </g>
          </g>
          <g
             id="line2d_14">
            <g
               id="g5733">
              <use
                 style="stroke:#000000"
                 x="866.03296"
                 xlink:href="#m5263014347"
                 y="250.614"
                 id="use5731" />
            </g>
          </g>
          <g
             id="text_8">
            <!-- 20 -->
            <g
               transform="matrix(0.12,0,0,-0.12,532.16831,255.17306)"
               id="g5740">
              <use
                 xlink:href="#Verdana-50"
                 id="use5736" />
              <use
                 x="63.574219"
                 xlink:href="#Verdana-48"
                 id="use5738" />
            </g>
          </g>
        </g>
        <g
           id="ytick_3">
          <g
             id="line2d_15">
            <g
               id="g5746">
              <use
                 style="stroke:#000000"
                 x="550.92706"
                 xlink:href="#me0719c2f34"
                 y="212.394"
                 id="use5744" />
            </g>
          </g>
          <g
             id="line2d_16">
            <g
               id="g5751">
              <use
                 style="stroke:#000000"
                 x="866.03296"
                 xlink:href="#m5263014347"
                 y="212.394"
                 id="use5749" />
            </g>
          </g>
          <g
             id="text_9">
            <!-- 40 -->
            <defs
               id="defs5755">
              <path
                 d="M 58.734375,20.453125 H 47.953125 V 0 h -9.375 V 20.453125 H 3.765625 V 31.6875 L 38.96875,72.703125 h 8.984375 v -44.4375 h 10.78125 z m -20.15625,7.8125 v 32.8125 L 10.40625,28.265625 Z"
                 id="Verdana-52" />
            </defs>
            <g
               transform="matrix(0.12,0,0,-0.12,532.16831,216.95306)"
               id="g5761">
              <use
                 xlink:href="#Verdana-52"
                 id="use5757" />
              <use
                 x="63.574219"
                 xlink:href="#Verdana-48"
                 id="use5759" />
            </g>
          </g>
        </g>
        <g
           id="ytick_4">
          <g
             id="line2d_17">
            <g
               id="g5767">
              <use
                 style="stroke:#000000"
                 x="550.92706"
                 xlink:href="#me0719c2f34"
                 y="174.174"
                 id="use5765" />
            </g>
          </g>
          <g
             id="line2d_18">
            <g
               id="g5772">
              <use
                 style="stroke:#000000"
                 x="866.03296"
                 xlink:href="#m5263014347"
                 y="174.174"
                 id="use5770" />
            </g>
          </g>
          <g
             id="text_10">
            <!-- 60 -->
            <defs
               id="defs5776">
              <path
                 d="m 58.15625,23.578125 q 0,-11.078125 -7.296875,-18.09375 -7.296875,-7 -17.90625,-7 -5.359375,0 -9.765625,1.65625 -4.390625,1.671875 -7.75,4.9375 Q 11.234375,9.125 8.953125,15.8125 6.6875,22.515625 6.6875,31.9375 q 0,9.671875 2.078125,17.140625 2.078125,7.46875 6.609375,13.28125 4.296875,5.515625 11.078125,8.609375 6.796875,3.109375 15.828125,3.109375 2.890625,0 4.84375,-0.25 1.953125,-0.25 3.953125,-0.875 V 63.625 H 50.59375 q -1.375,0.734375 -4.140625,1.390625 -2.75,0.65625 -5.625,0.65625 -10.5,0 -16.75,-6.5625 -6.25,-6.5625 -7.28125,-17.75 4.109375,2.484375 8.078125,3.78125 3.984375,1.296875 9.203125,1.296875 4.640625,0 8.171875,-0.859375 3.546875,-0.84375 7.265625,-3.4375 4.296875,-2.984375 6.46875,-7.53125 2.171875,-4.53125 2.171875,-11.03125 z M 48.25,23.1875 q 0,4.546875 -1.34375,7.515625 -1.34375,2.984375 -4.421875,5.1875 -2.25,1.5625 -4.984375,2.046875 -2.734375,0.484375 -5.71875,0.484375 -4.140625,0 -7.703125,-0.984375 -3.5625,-0.96875 -7.328125,-3.015625 -0.09375,-1.078125 -0.15625,-2.078125 -0.04687,-1 -0.04687,-2.515625 0,-7.703125 1.59375,-12.171875 1.59375,-4.46875 4.375,-7.0625 2.234375,-2.140625 4.84375,-3.140625 2.625,-1 5.703125,-1 7.078125,0 11.125,4.3125 Q 48.25,15.09375 48.25,23.1875 Z"
                 id="Verdana-54" />
            </defs>
            <g
               transform="matrix(0.12,0,0,-0.12,532.16831,178.73306)"
               id="g5782">
              <use
                 xlink:href="#Verdana-54"
                 id="use5778" />
              <use
                 x="63.574219"
                 xlink:href="#Verdana-48"
                 id="use5780" />
            </g>
          </g>
        </g>
        <g
           id="ytick_5">
          <g
             id="line2d_19">
            <g
               id="g5788">
              <use
                 style="stroke:#000000"
                 x="550.92706"
                 xlink:href="#me0719c2f34"
                 y="135.95399"
                 id="use5786" />
            </g>
          </g>
          <g
             id="line2d_20">
            <g
               id="g5793">
              <use
                 style="stroke:#000000"
                 x="866.03296"
                 xlink:href="#m5263014347"
                 y="135.95399"
                 id="use5791" />
            </g>
          </g>
          <g
             id="text_11">
            <!-- 80 -->
            <defs
               id="defs5797">
              <path
                 d="m 57.625,20.265625 q 0,-9.421875 -7.359375,-15.671875 -7.34375,-6.25 -18.484375,-6.25 -11.8125,0 -18.828125,6.09375 -7,6.109375 -7,15.625 0,6.0625 3.515625,10.96875 3.515625,4.90625 9.921875,7.78125 v 0.296875 q -5.859375,3.125 -8.671875,6.828125 -2.8125,3.71875 -2.8125,9.28125 0,8.203125 6.734375,13.671875 6.75,5.46875 17.140625,5.46875 10.890625,0 17.390625,-5.21875 6.5,-5.21875 6.5,-13.28125 0,-4.9375 -3.078125,-9.703125 -3.078125,-4.75 -9.03125,-7.4375 V 38.421875 Q 50.390625,35.5 54,31.203125 q 3.625,-4.296875 3.625,-10.9375 z m -11.578125,35.5 q 0,5.21875 -4.03125,8.3125 -4.03125,3.109375 -10.28125,3.109375 -6.140625,0 -10.078125,-2.9375 -3.9375,-2.921875 -3.9375,-7.90625 0,-3.515625 1.984375,-6.078125 1.984375,-2.5625 5.984375,-4.5625 1.796875,-0.875 5.1875,-2.296875 Q 34.28125,42 37.5,41.0625 q 4.828125,3.21875 6.6875,6.6875 1.859375,3.46875 1.859375,8.015625 z M 47.5625,19.34375 q 0,4.484375 -1.984375,7.1875 -1.96875,2.71875 -7.734375,5.453125 -2.296875,1.078125 -5.03125,2 -2.734375,0.921875 -7.28125,2.59375 -4.390625,-2.390625 -7.046875,-6.5 -2.65625,-4.09375 -2.65625,-9.28125 0,-6.59375 4.53125,-10.890625 4.546875,-4.296875 11.53125,-4.296875 7.125,0 11.390625,3.65625 4.28125,3.671875 4.28125,10.078125 z"
                 id="Verdana-56" />
            </defs>
            <g
               transform="matrix(0.12,0,0,-0.12,532.16831,140.51306)"
               id="g5803">
              <use
                 xlink:href="#Verdana-56"
                 id="use5799" />
              <use
                 x="63.574219"
                 xlink:href="#Verdana-48"
                 id="use5801" />
            </g>
          </g>
        </g>
        <g
           id="ytick_6">
          <g
             id="line2d_21">
            <g
               id="g5809">
              <use
                 style="stroke:#000000"
                 x="550.92706"
                 xlink:href="#me0719c2f34"
                 y="97.734001"
                 id="use5807" />
            </g>
          </g>
          <g
             id="line2d_22">
            <g
               id="g5814">
              <use
                 style="stroke:#000000"
                 x="866.03296"
                 xlink:href="#m5263014347"
                 y="97.734001"
                 id="use5812" />
            </g>
          </g>
          <g
             id="text_12">
            <!-- 100 -->
            <g
               transform="matrix(0.12,0,0,-0.12,524.53893,102.29306)"
               id="g5823">
              <use
                 xlink:href="#Verdana-49"
                 id="use5817" />
              <use
                 x="63.574219"
                 xlink:href="#Verdana-48"
                 id="use5819" />
              <use
                 x="127.14844"
                 xlink:href="#Verdana-48"
                 id="use5821" />
            </g>
          </g>
        </g>
        <g
           id="text_13">
          <!-- Reacted reporter (%) -->
          <defs
             id="defs5836">
            <path
               d="M 69.921875,0 H 57.375 L 33.0625,28.90625 H 19.4375 V 0 H 9.765625 V 72.703125 H 30.125 q 6.59375,0 10.984375,-0.859375 4.40625,-0.84375 7.921875,-3.046875 3.953125,-2.484375 6.171875,-6.28125 2.21875,-3.78125 2.21875,-9.578125 0,-7.875 -3.953125,-13.171875 Q 49.515625,34.46875 42.578125,31.78125 Z M 47.3125,52.25 q 0,3.125 -1.09375,5.53125 -1.09375,2.421875 -3.640625,4.078125 -2.09375,1.421875 -4.984375,1.984375 -2.875,0.5625 -6.78125,0.5625 h -11.375 v -27.4375 h 9.765625 q 4.59375,0 8,0.796875 3.421875,0.8125 5.8125,3 2.203125,2.0625 3.25,4.71875 Q 47.3125,48.140625 47.3125,52.25 Z"
               id="Verdana-82" />
            <path
               d="M 51.421875,0 H 42.28125 V 5.8125 Q 41.0625,4.984375 38.984375,3.484375 36.921875,2 34.96875,1.125 32.671875,0 29.6875,-0.75 q -2.984375,-0.765625 -6.984375,-0.765625 -7.375,0 -12.5,4.875 -5.125,4.890625 -5.125,12.46875 0,6.1875 2.65625,10.015625 2.671875,3.84375 7.59375,6.046875 4.984375,2.1875 11.96875,2.96875 6.984375,0.78125 14.984375,1.171875 v 1.421875 q 0,3.125 -1.09375,5.171875 -1.09375,2.046875 -3.15625,3.21875 -1.953125,1.125 -4.6875,1.515625 Q 30.609375,47.75 27.640625,47.75 q -3.609375,0 -8.0625,-0.953125 -4.4375,-0.953125 -9.171875,-2.75 h -0.5 V 53.375 q 2.6875,0.734375 7.765625,1.609375 5.078125,0.875 10.015625,0.875 5.765625,0 10.03125,-0.953125 4.28125,-0.953125 7.40625,-3.25 3.0625,-2.234375 4.671875,-5.8125 1.625,-3.5625 1.625,-8.828125 z M 42.28125,13.421875 v 15.1875 Q 38.09375,28.375 32.390625,27.875 q -5.6875,-0.484375 -9,-1.40625 -3.953125,-1.125 -6.40625,-3.5 -2.4375,-2.359375 -2.4375,-6.515625 0,-4.6875 2.828125,-7.0625 2.84375,-2.359375 8.65625,-2.359375 4.828125,0 8.828125,1.875 4.015625,1.890625 7.421875,4.515625 z"
               id="Verdana-97" />
            <path
               d="M 49.359375,3.421875 Q 44.78125,1.21875 40.65625,0 q -4.125,-1.21875 -8.765625,-1.21875 -5.90625,0 -10.84375,1.734375 -4.9375,1.734375 -8.453125,5.25 -3.5625,3.515625 -5.515625,8.875 -1.953125,5.375 -1.953125,12.5625 0,13.375 7.34375,20.984375 7.359375,7.625 19.421875,7.625 4.6875,0 9.203125,-1.328125 4.515625,-1.3125 8.265625,-3.21875 V 41.0625 H 48.875 Q 44.671875,44.34375 40.203125,46.09375 35.75,47.859375 31.5,47.859375 q -7.8125,0 -12.328125,-5.25 -4.515625,-5.25 -4.515625,-15.40625 0,-9.875 4.40625,-15.171875 4.421875,-5.296875 12.4375,-5.296875 2.78125,0 5.65625,0.734375 2.890625,0.734375 5.171875,1.90625 2.015625,1.03125 3.765625,2.171875 1.765625,1.15625 2.78125,1.984375 h 0.484375 z"
               id="Verdana-99" />
            <path
               d="m 37.359375,0.484375 q -2.59375,-0.6875 -5.65625,-1.125 -3.046875,-0.4375 -5.4375,-0.4375 -8.34375,0 -12.6875,4.484375 -4.34375,4.5 -4.34375,14.421875 v 29 H 3.03125 v 7.71875 H 9.234375 V 70.21875 H 18.40625 V 54.546875 h 18.953125 v -7.71875 H 18.40625 V 21.96875 q 0,-4.296875 0.1875,-6.71875 0.203125,-2.40625 1.375,-4.5 1.078125,-1.953125 2.953125,-2.859375 1.890625,-0.90625 5.734375,-0.90625 2.25,0 4.6875,0.65625 2.453125,0.65625 3.515625,1.09375 h 0.5 z"
               id="Verdana-116" />
            <path
               d="M 53.265625,0 H 44.09375 v 5.71875 q -3.953125,-3.421875 -8.25,-5.328125 -4.296875,-1.90625 -9.328125,-1.90625 -9.765625,0 -15.5,7.515625 -5.734375,7.53125 -5.734375,20.859375 0,6.9375 1.96875,12.34375 1.984375,5.421875 5.34375,9.234375 3.328125,3.71875 7.734375,5.671875 Q 24.75,56.0625 29.5,56.0625 q 4.296875,0 7.609375,-0.90625 Q 40.4375,54.25 44.09375,52.34375 v 23.640625 h 9.171875 z M 44.09375,13.421875 v 31.3125 q -3.71875,1.65625 -6.65625,2.28125 -2.921875,0.640625 -6.375,0.640625 -7.71875,0 -12.015625,-5.375 Q 14.75,36.921875 14.75,27.046875 q 0,-9.71875 3.3125,-14.765625 3.328125,-5.046875 10.65625,-5.046875 3.90625,0 7.90625,1.71875 4,1.734375 7.46875,4.46875 z"
               id="Verdana-100" />
            <path
               d="m 43.0625,44.53125 h -0.484375 q -2.046875,0.484375 -3.984375,0.703125 -1.921875,0.21875 -4.5625,0.21875 -4.25,0 -8.203125,-1.875 Q 21.875,41.703125 18.21875,38.71875 V 0 h -9.1875 v 54.546875 h 9.1875 v -8.0625 q 5.46875,4.390625 9.640625,6.21875 4.171875,1.84375 8.515625,1.84375 2.390625,0 3.46875,-0.125 1.078125,-0.125 3.21875,-0.46875 z"
               id="Verdana-114" />
            <path
               d="m 57.03125,27.9375 q 0,-6.640625 -1.90625,-12.140625 -1.90625,-5.5 -5.375,-9.296875 -3.21875,-3.625 -7.59375,-5.609375 -4.359375,-1.96875 -9.25,-1.96875 -4.25,0 -7.6875,0.9375 -3.4375,0.921875 -7,2.875 V -20.125 h -9.1875 v 74.671875 h 9.1875 v -5.71875 q 3.65625,3.078125 8.21875,5.15625 4.5625,2.078125 9.75,2.078125 9.859375,0 15.34375,-7.453125 5.5,-7.453125 5.5,-20.671875 z m -9.46875,-0.25 q 0,9.859375 -3.375,14.734375 -3.359375,4.890625 -10.34375,4.890625 -3.953125,0 -7.96875,-1.71875 -4,-1.703125 -7.65625,-4.484375 v -30.90625 q 3.90625,-1.75 6.703125,-2.390625 2.8125,-0.640625 6.375,-0.640625 7.671875,0 11.96875,5.171875 4.296875,5.1875 4.296875,15.34375 z"
               id="Verdana-112" />
            <path
               d="m 55.515625,27.25 q 0,-13.328125 -6.84375,-21.046875 -6.828125,-7.71875 -18.296875,-7.71875 -11.578125,0 -18.390625,7.71875 -6.8125,7.71875 -6.8125,21.046875 0,13.328125 6.8125,21.0625 6.8125,7.75 18.390625,7.75 11.46875,0 18.296875,-7.75 6.84375,-7.734375 6.84375,-21.0625 z m -9.46875,0 q 0,10.59375 -4.15625,15.734375 -4.140625,5.15625 -11.515625,5.15625 -7.46875,0 -11.59375,-5.15625 -4.125,-5.140625 -4.125,-15.734375 0,-10.25 4.140625,-15.5625 4.15625,-5.296875 11.578125,-5.296875 7.328125,0 11.5,5.25 4.171875,5.25 4.171875,15.609375 z"
               id="Verdana-111" />
            <path
               d="m 43.171875,52.546875 q 0,-10.9375 -4.625,-16.265625 Q 33.9375,30.953125 25.25,30.953125 q -8.890625,0 -13.4375,5.328125 -4.53125,5.328125 -4.53125,16.203125 0,10.9375 4.625,16.265625 4.640625,5.328125 13.34375,5.328125 8.828125,0 13.375,-5.375 4.546875,-5.375 4.546875,-16.15625 z M 76.90625,72.703125 38.8125,0 H 30.765625 L 68.84375,72.703125 Z m 23.4375,-52.53125 q 0,-10.9375 -4.640625,-16.265625 Q 91.0625,-1.421875 82.375,-1.421875 q -8.84375,0 -13.390625,5.375 -4.53125,5.375 -4.53125,16.171875 0,10.9375 4.609375,16.25 4.625,5.328125 13.3125,5.328125 8.890625,0 13.421875,-5.328125 4.546875,-5.3125 4.546875,-16.203125 z m -65.875,32.375 Q 34.46875,60.9375 32.296875,64.25 30.125,67.578125 25.25,67.578125 q -4.984375,0 -7.140625,-3.328125 -2.140625,-3.3125 -2.140625,-11.765625 0,-8.4375 2.140625,-11.734375 2.15625,-3.296875 7.140625,-3.296875 4.875,0 7.046875,3.296875 2.171875,3.296875 2.171875,11.796875 z m 57.1875,-32.375 q 0,8.390625 -2.171875,11.703125 -2.171875,3.328125 -7.0625,3.328125 -4.984375,0 -7.140625,-3.328125 -2.140625,-3.3125 -2.140625,-11.75 0,-8.453125 2.140625,-11.75 2.15625,-3.296875 7.140625,-3.296875 4.890625,0 7.0625,3.296875 2.171875,3.296875 2.171875,11.796875 z"
               id="Verdana-37" />
          </defs>
          <g
             transform="matrix(0,-0.12,-0.12,0,518.12393,257.98744)"
             id="g5878">
            <use
               xlink:href="#Verdana-82"
               id="use5838" />
            <use
               x="67.03125"
               xlink:href="#Verdana-101"
               id="use5840" />
            <use
               x="126.60156"
               xlink:href="#Verdana-97"
               id="use5842" />
            <use
               x="186.66016"
               xlink:href="#Verdana-99"
               id="use5844" />
            <use
               x="238.75977"
               xlink:href="#Verdana-116"
               id="use5846" />
            <use
               x="278.16406"
               xlink:href="#Verdana-101"
               id="use5848" />
            <use
               x="337.73438"
               xlink:href="#Verdana-100"
               id="use5850" />
            <use
               x="400.03906"
               xlink:href="#Verdana-32"
               id="use5852" />
            <use
               x="435.19531"
               xlink:href="#Verdana-114"
               id="use5854" />
            <use
               x="477.87109"
               xlink:href="#Verdana-101"
               id="use5856" />
            <use
               x="537.44141"
               xlink:href="#Verdana-112"
               id="use5858" />
            <use
               x="599.74609"
               xlink:href="#Verdana-111"
               id="use5860" />
            <use
               x="660.43945"
               xlink:href="#Verdana-114"
               id="use5862" />
            <use
               x="703.11523"
               xlink:href="#Verdana-116"
               id="use5864" />
            <use
               x="742.51953"
               xlink:href="#Verdana-101"
               id="use5866" />
            <use
               x="802.08984"
               xlink:href="#Verdana-114"
               id="use5868" />
            <use
               x="844.76562"
               xlink:href="#Verdana-32"
               id="use5870" />
            <use
               x="879.92188"
               xlink:href="#Verdana-40"
               id="use5872" />
            <use
               x="925.33203"
               xlink:href="#Verdana-37"
               id="use5874" />
            <use
               x="1032.9492"
               xlink:href="#Verdana-41"
               id="use5876" />
          </g>
        </g>
      </g>
      <g
         id="line2d_23">
        <path
           clip-path="url(#p575bf007f6)"
           d="m 550.92706,288.834 3.07228,-0.11325 4.56904,-0.41396 8.74418,-1.05641 41.35765,-5.38739 23.63294,-3.17783 1.65431,-0.49318 1.41798,-0.62887 1.41797,-0.85003 1.41798,-1.08845 1.6543,-1.58193 1.65431,-1.92004 1.65431,-2.25244 1.89063,-2.96605 2.12697,-3.80732 2.12696,-4.26688 2.3633,-5.2276 2.59962,-6.27217 3.07228,-8.01086 3.54494,-9.88689 4.25393,-12.53702 6.38089,-19.59461 8.74419,-26.76195 4.0176,-11.8513 3.78127,-10.49026 3.30862,-8.56844 3.07228,-7.34487 2.83595,-6.17971 2.59963,-5.11956 2.36329,-4.15279 2.12696,-3.32497 2.12697,-2.92715 2.12696,-2.54334 2.12697,-2.17064 2.12696,-1.8231 2.12697,-1.50337 2.12696,-1.21243 2.12697,-0.95495 2.36329,-0.805954 2.59962,-0.640894 2.83596,-0.471897 3.54494,-0.35478 4.72659,-0.229505 7.56254,-0.112489 24.1056,-0.02246 99.02202,-1.5e-5 v 0"
           style="fill:none;stroke:#0000ff;stroke-width:2;stroke-dasharray:7.4, 3.2;stroke-dashoffset:0"
           id="path5882" />
      </g>
      <g
         id="patch_3">
        <path
           d="M 550.92706,307.944 V 78.624"
           style="fill:none;stroke:#000000;stroke-width:0.8;stroke-linecap:square;stroke-linejoin:miter"
           id="path5885" />
      </g>
      <g
         id="patch_4">
        <path
           d="M 866.03294,307.944 V 78.624"
           style="fill:none;stroke:#000000;stroke-width:0.8;stroke-linecap:square;stroke-linejoin:miter"
           id="path5888" />
      </g>
      <g
         id="patch_5">
        <path
           d="M 550.92706,307.944 H 866.03294"
           style="fill:none;stroke:#000000;stroke-width:0.8;stroke-linecap:square;stroke-linejoin:miter"
           id="path5891" />
      </g>
      <g
         id="patch_6">
        <path
           d="M 550.92706,78.624 H 866.03294"
           style="fill:none;stroke:#000000;stroke-width:0.8;stroke-linecap:square;stroke-linejoin:miter"
           id="path5894" />
      </g>
      <g
         id="text_14">
        <!-- Discontinuous Simulation -->
        <defs
           id="defs5902">
          <path
             d="M 71.1875,36.28125 Q 71.1875,26.375 66.859375,18.3125 62.546875,10.25 55.375,5.8125 50.390625,2.734375 44.265625,1.359375 38.140625,0 28.125,0 H 9.765625 V 72.703125 H 27.9375 q 10.640625,0 16.90625,-1.546875 6.28125,-1.53125 10.625,-4.21875 7.421875,-4.625 11.5625,-12.34375 4.15625,-7.71875 4.15625,-18.3125 z m -10.109375,0.140625 q 0,8.546875 -2.984375,14.40625 Q 55.125,56.6875 49.21875,60.0625 44.921875,62.5 40.078125,63.453125 35.25,64.40625 28.515625,64.40625 H 19.4375 V 8.296875 h 9.078125 q 6.984375,0 12.1875,1.03125 5.203125,1.03125 9.546875,3.8125 5.421875,3.46875 8.125,9.125 2.703125,5.671875 2.703125,14.15625 z"
             id="Verdana-68" />
          <path
             d="M 48,15.71875 Q 48,8.25 41.8125,3.46875 35.640625,-1.3125 24.953125,-1.3125 q -6.0625,0 -11.109375,1.4375 Q 8.796875,1.5625 5.375,3.265625 v 10.3125 h 0.484375 q 4.34375,-3.28125 9.65625,-5.203125 5.328125,-1.921875 10.21875,-1.921875 6.046875,0 9.46875,1.953125 3.421875,1.953125 3.421875,6.140625 0,3.234375 -1.859375,4.890625 -1.859375,1.65625 -7.125,2.828125 -1.953125,0.4375 -5.109375,1.015625 -3.140625,0.59375 -5.734375,1.28125 -7.171875,1.90625 -10.1875,5.59375 -3,3.6875 -3,9.046875 0,3.375 1.390625,6.34375 1.40625,2.984375 4.234375,5.328125 2.734375,2.296875 6.953125,3.640625 4.21875,1.34375 9.453125,1.34375 4.875,0 9.875,-1.203125 5.015625,-1.1875 8.328125,-2.890625 V 41.9375 h -0.484375 q -3.515625,2.59375 -8.546875,4.375 -5.03125,1.78125 -9.859375,1.78125 -5.03125,0 -8.5,-1.9375 -3.46875,-1.921875 -3.46875,-5.71875 0,-3.375 2.109375,-5.078125 2.046875,-1.71875 6.640625,-2.796875 2.53125,-0.578125 5.671875,-1.171875 3.15625,-0.578125 5.265625,-1.0625 6.390625,-1.46875 9.859375,-5.03125 Q 48,21.6875 48,15.71875 Z"
             id="Verdana-115" />
          <path
             d="m 54.25,0 h -9.1875 v 6.0625 q -4.625,-3.671875 -8.875,-5.625 -4.25,-1.953125 -9.375,-1.953125 -8.59375,0 -13.390625,5.25 -4.78125,5.25 -4.78125,15.40625 v 35.40625 h 9.1875 v -31.0625 q 0,-4.140625 0.390625,-7.109375 0.390625,-2.953125 1.65625,-5.046875 1.3125,-2.140625 3.40625,-3.125 2.109375,-0.96875 6.109375,-0.96875 3.5625,0 7.78125,1.84375 Q 41.40625,10.9375 45.0625,13.8125 V 54.546875 H 54.25 Z"
             id="Verdana-117" />
          <path
             d="m 62.59375,20.75 q 0,-4.25 -1.984375,-8.40625 -1.96875,-4.140625 -5.53125,-7.015625 -3.90625,-3.125 -9.109375,-4.890625 -5.203125,-1.75 -12.515625,-1.75 -7.859375,0 -14.140625,1.453125 Q 13.03125,1.609375 6.546875,4.5 v 12.109375 h 0.6875 Q 12.75,12.015625 19.96875,9.515625 27.203125,7.03125 33.546875,7.03125 q 8.984375,0 13.984375,3.359375 5.015625,3.375 5.015625,9 0,4.828125 -2.375,7.125 -2.375,2.296875 -7.203125,3.5625 -3.65625,0.984375 -7.9375,1.609375 -4.265625,0.640625 -9.046875,1.609375 -9.671875,2.0625 -14.34375,7.015625 -4.65625,4.953125 -4.65625,12.90625 0,9.140625 7.703125,14.96875 7.71875,5.84375 19.59375,5.84375 7.65625,0 14.046875,-1.46875 6.40625,-1.46875 11.34375,-3.609375 v -11.4375 h -0.6875 q -4.15625,3.515625 -10.921875,5.828125 -6.75,2.328125 -13.828125,2.328125 -7.765625,0 -12.484375,-3.21875 -4.703125,-3.21875 -4.703125,-8.296875 0,-4.546875 2.34375,-7.140625 2.34375,-2.578125 8.25,-3.953125 3.125,-0.671875 8.875,-1.65625 5.765625,-0.96875 9.78125,-2 8.09375,-2.15625 12.1875,-6.5 Q 62.59375,28.5625 62.59375,20.75 Z"
             id="Verdana-83" />
          <path
             d="M 18.3125,0 H 9.125 v 75.984375 h 9.1875 z"
             id="Verdana-108" />
        </defs>
        <g
           transform="matrix(0.12,0,0,-0.12,632.16469,72.624)"
           id="g5952">
          <use
             xlink:href="#Verdana-68"
             id="use5904" />
          <use
             x="77.050781"
             xlink:href="#Verdana-105"
             id="use5906" />
          <use
             x="104.49219"
             xlink:href="#Verdana-115"
             id="use5908" />
          <use
             x="156.5918"
             xlink:href="#Verdana-99"
             id="use5910" />
          <use
             x="208.69141"
             xlink:href="#Verdana-111"
             id="use5912" />
          <use
             x="269.38477"
             xlink:href="#Verdana-110"
             id="use5914" />
          <use
             x="332.66602"
             xlink:href="#Verdana-116"
             id="use5916" />
          <use
             x="372.07031"
             xlink:href="#Verdana-105"
             id="use5918" />
          <use
             x="399.51172"
             xlink:href="#Verdana-110"
             id="use5920" />
          <use
             x="462.79297"
             xlink:href="#Verdana-117"
             id="use5922" />
          <use
             x="526.07422"
             xlink:href="#Verdana-111"
             id="use5924" />
          <use
             x="586.76758"
             xlink:href="#Verdana-117"
             id="use5926" />
          <use
             x="650.04883"
             xlink:href="#Verdana-115"
             id="use5928" />
          <use
             x="702.14844"
             xlink:href="#Verdana-32"
             id="use5930" />
          <use
             x="737.30469"
             xlink:href="#Verdana-83"
             id="use5932" />
          <use
             x="805.66406"
             xlink:href="#Verdana-105"
             id="use5934" />
          <use
             x="833.10547"
             xlink:href="#Verdana-109"
             id="use5936" />
          <use
             x="930.37109"
             xlink:href="#Verdana-117"
             id="use5938" />
          <use
             x="993.65234"
             xlink:href="#Verdana-108"
             id="use5940" />
          <use
             x="1021.0938"
             xlink:href="#Verdana-97"
             id="use5942" />
          <use
             x="1081.1523"
             xlink:href="#Verdana-116"
             id="use5944" />
          <use
             x="1120.5566"
             xlink:href="#Verdana-105"
             id="use5946" />
          <use
             x="1147.998"
             xlink:href="#Verdana-111"
             id="use5948" />
          <use
             x="1208.6914"
             xlink:href="#Verdana-110"
             id="use5950" />
        </g>
      </g>
      <g
         id="legend_1">
        <g
           id="line2d_24">
          <path
             d="m 559.92706,91.722437 h 20"
             style="fill:none;stroke:#0000ff;stroke-width:2;stroke-dasharray:7.4, 3.2;stroke-dashoffset:0"
             id="path5955" />
        </g>
        <g
           id="line2d_25" />
        <g
           id="text_15">
          <!-- S{2} -->
          <defs
             id="defs5961">
            <path
               d="m 54.34375,-19.140625 h -7.328125 q -8.734375,0 -14.1875,4.859375 -5.4375,4.859375 -5.4375,14.03125 v 7.28125 q 0,8.25 -4.0625,12.90625 Q 19.28125,24.609375 10.9375,24.609375 H 8.453125 v 7.625 H 10.9375 q 8.34375,0 12.390625,4.65625 4.0625,4.65625 4.0625,12.921875 v 7.265625 q 0,9.1875 5.4375,14.046875 5.453125,4.859375 14.1875,4.859375 h 7.328125 v -6.75 h -5.5625 q -6.640625,0 -9.640625,-3.078125 -3,-3.0625 -3,-9.90625 v -8.546875 q 0,-6.78125 -3.765625,-11.40625 Q 28.609375,31.6875 21.921875,29 V 27.828125 Q 28.609375,25.140625 32.375,20.53125 36.140625,15.921875 36.140625,9.125 V 0.59375 q 0,-6.84375 3,-9.921875 3,-3.078125 9.640625,-3.078125 h 5.5625 z"
               id="Verdana-123" />
            <path
               d="M 55.03125,24.609375 H 52.546875 Q 44.1875,24.609375 40.125,19.9375 36.078125,15.28125 36.078125,7.03125 V -0.25 q 0,-9.171875 -5.4375,-14.03125 -5.4375,-4.859375 -14.1875,-4.859375 H 9.125 v 6.734375 h 5.578125 q 6.640625,0 9.640625,3.078125 3,3.078125 3,9.921875 V 9.125 q 0,6.796875 3.75,11.40625 3.765625,4.609375 10.453125,7.296875 V 29 q -6.6875,2.6875 -10.453125,7.296875 -3.75,4.625 -3.75,11.40625 V 56.25 q 0,6.84375 -3,9.90625 -3,3.078125 -9.640625,3.078125 H 9.125 v 6.75 h 7.328125 q 8.75,0 14.1875,-4.859375 5.4375,-4.859375 5.4375,-14.046875 V 49.8125 q 0,-8.265625 4.046875,-12.921875 4.0625,-4.65625 12.421875,-4.65625 h 2.484375 z"
               id="Verdana-125" />
          </defs>
          <g
             transform="matrix(0.1,0,0,-0.1,587.92706,95.222437)"
             id="g5971">
            <use
               xlink:href="#Verdana-83"
               id="use5963" />
            <use
               x="68.359375"
               xlink:href="#Verdana-123"
               id="use5965" />
            <use
               x="131.83594"
               xlink:href="#Verdana-50"
               id="use5967" />
            <use
               x="195.41016"
               xlink:href="#Verdana-125"
               id="use5969" />
          </g>
        </g>
      </g>
    </g>
  </g>
  <defs
     id="defs5980">
    <clipPath
       id="p575bf007f6">
      <rect
         height="229.32001"
         width="315.1059"
         x="550.92706"
         y="78.624001"
         id="rect5977" />
    </clipPath>
  </defs>
  <path
     style="fill:none;stroke:#000000;stroke-width:1;stroke-linecap:butt;stroke-linejoin:miter;stroke-dasharray:none;stroke-opacity:1;marker-end:url(#Arrow2)"
     d="m 294.29118,198.90648 9.94532,19.43859"
     id="path6040" />
  <text
     xml:space="preserve"
     transform="matrix(0.75,0,0,0.75,-44.301897,-7.3767823)"
     id="text6793"
     style="font-size:14.6667px;line-height:1.25;font-family:sans-serif;text-align:center;letter-spacing:0px;white-space:pre;shape-inside:url(#rect6795);display:inline"
     x="32.053955"
     y="0"><tspan
       x="412.12394"
       y="252.06838"
       id="tspan7424">I{1}temp
</tspan><tspan
       x="425.66271"
       y="270.40175"
       id="tspan7426">added</tspan></text>
  <rect
     style="fill:none;fill-rule:evenodd;stroke:#000000;stroke-width:1;stroke-linecap:butt;stroke-linejoin:round;stroke-dasharray:none"
     id="rect2235"
     width="746.80347"
     height="297.00354"
     x="1.5982666"
     y="1.49823"
     ry="0" />
</svg>
