<?xml version="1.0" encoding="UTF-8" standalone="no"?>
<!-- Created with matplotlib (https://matplotlib.org/) -->

<svg
   height="300pt"
   version="1.1"
   viewBox="0 0 749.99999 299.99999"
   width="750pt"
   id="svg5312"
   sodipodi:docname="threshold_simulation.svg"
   inkscape:version="1.2.1 (9c6d41e410, 2022-07-14)"
   xmlns:inkscape="http://www.inkscape.org/namespaces/inkscape"
   xmlns:sodipodi="http://sodipodi.sourceforge.net/DTD/sodipodi-0.dtd"
   xmlns:xlink="http://www.w3.org/1999/xlink"
   xmlns="http://www.w3.org/2000/svg"
   xmlns:svg="http://www.w3.org/2000/svg">
  <sodipodi:namedview
     id="namedview5314"
     pagecolor="#ffffff"
     bordercolor="#666666"
     borderopacity="1.0"
     inkscape:showpageshadow="2"
     inkscape:pageopacity="0.0"
     inkscape:pagecheckerboard="0"
     inkscape:deskcolor="#d1d1d1"
     inkscape:document-units="pt"
     showgrid="false"
     inkscape:zoom="0.82953558"
     inkscape:cx="521.97882"
     inkscape:cy="429.15579"
     inkscape:window-width="1920"
     inkscape:window-height="986"
     inkscape:window-x="-11"
     inkscape:window-y="-11"
     inkscape:window-maximized="1"
     inkscape:current-layer="svg5312" />
  <defs
     id="defs4839">
    <style
       type="text/css"
       id="style4837">
*{stroke-linecap:butt;stroke-linejoin:round;}
  </style>
  </defs>
  <g
     id="patch_1" />
  <g
     id="g6144"
     transform="translate(84.083193,-52.438981)"
     inkscape:export-filename="threshold_simulation.png"
     inkscape:export-xdpi="600"
     inkscape:export-ydpi="600">
    <g
       id="patch_2">
      <path
         d="M 172.8,307.944 H 405.70435 V 78.624 H 172.8 Z"
         style="fill:#ffffff"
         id="path4844" />
    </g>
    <g
       id="matplotlib.axis_1">
      <g
         id="xtick_1">
        <g
           id="line2d_1">
          <defs
             id="defs4848">
            <path
               d="M 0,0 V -3"
               id="m06bf25cbc4"
               style="stroke:#000000" />
          </defs>
          <g
             id="g4852">
            <use
               style="stroke:#000000"
               x="172.8"
               xlink:href="#m06bf25cbc4"
               y="307.944"
               id="use4850" />
          </g>
        </g>
        <g
           id="line2d_2">
          <defs
             id="defs4856">
            <path
               d="M 0,0 V 3"
               id="md65a567e17"
               style="stroke:#000000" />
          </defs>
          <g
             id="g4860">
            <use
               style="stroke:#000000"
               x="172.8"
               xlink:href="#md65a567e17"
               y="78.624001"
               id="use4858" />
          </g>
        </g>
        <g
           id="text_1">
          <!-- 0 -->
          <defs
             id="defs4864">
            <path
               d="m 31.78125,66.40625 q -7.609375,0 -11.453125,-7.5 Q 16.5,51.421875 16.5,36.375 q 0,-14.984375 3.828125,-22.484375 3.84375,-7.5 11.453125,-7.5 7.671875,0 11.5,7.5 3.84375,7.5 3.84375,22.484375 0,15.046875 -3.84375,22.53125 -3.828125,7.5 -11.5,7.5 z m 0,7.8125 q 12.265625,0 18.734375,-9.703125 6.46875,-9.6875 6.46875,-28.140625 0,-18.40625 -6.46875,-28.109375 -6.46875,-9.6875 -18.734375,-9.6875 -12.25,0 -18.71875,9.6875 Q 6.59375,17.96875 6.59375,36.375 q 0,18.453125 6.46875,28.140625 6.46875,9.703125 18.71875,9.703125 z"
               id="DejaVuSans-48" />
          </defs>
          <g
             transform="matrix(0.12,0,0,-0.12,168.9825,320.56212)"
             id="g4868">
            <use
               xlink:href="#DejaVuSans-48"
               id="use4866" />
          </g>
        </g>
      </g>
      <g
         id="xtick_2">
        <g
           id="line2d_3">
          <g
             id="g4874">
            <use
               style="stroke:#000000"
               x="221.32173"
               xlink:href="#m06bf25cbc4"
               y="307.944"
               id="use4872" />
          </g>
        </g>
        <g
           id="line2d_4">
          <g
             id="g4879">
            <use
               style="stroke:#000000"
               x="221.32173"
               xlink:href="#md65a567e17"
               y="78.624001"
               id="use4877" />
          </g>
        </g>
        <g
           id="text_2">
          <!-- 50 -->
          <defs
             id="defs4883">
            <path
               d="m 10.796875,72.90625 h 38.71875 v -8.3125 h -29.6875 V 46.734375 q 2.140625,0.734375 4.28125,1.09375 2.15625,0.359375 4.3125,0.359375 Q 40.625,48.1875 47.75,41.5 54.890625,34.8125 54.890625,23.390625 54.890625,11.625 47.5625,5.09375 40.234375,-1.421875 26.90625,-1.421875 q -4.59375,0 -9.359375,0.78125 -4.75,0.78125 -9.828125,2.34375 V 11.625 q 4.390625,-2.390625 9.078125,-3.5625 4.6875,-1.171875 9.90625,-1.171875 8.453125,0 13.375,4.4375 4.9375,4.4375 4.9375,12.0625 0,7.609375 -4.9375,12.046875 -4.921875,4.453125 -13.375,4.453125 -3.953125,0 -7.890625,-0.875 -3.921875,-0.875 -8.015625,-2.734375 z"
               id="DejaVuSans-53" />
          </defs>
          <g
             transform="matrix(0.12,0,0,-0.12,213.68674,320.56212)"
             id="g4889">
            <use
               xlink:href="#DejaVuSans-53"
               id="use4885" />
            <use
               x="63.623047"
               xlink:href="#DejaVuSans-48"
               id="use4887" />
          </g>
        </g>
      </g>
      <g
         id="xtick_3">
        <g
           id="line2d_5">
          <g
             id="g4895">
            <use
               style="stroke:#000000"
               x="269.84348"
               xlink:href="#m06bf25cbc4"
               y="307.944"
               id="use4893" />
          </g>
        </g>
        <g
           id="line2d_6">
          <g
             id="g4900">
            <use
               style="stroke:#000000"
               x="269.84348"
               xlink:href="#md65a567e17"
               y="78.624001"
               id="use4898" />
          </g>
        </g>
        <g
           id="text_3">
          <!-- 100 -->
          <defs
             id="defs4904">
            <path
               d="m 12.40625,8.296875 h 16.109375 v 55.625 L 10.984375,60.40625 v 8.984375 l 17.4375,3.515625 H 38.28125 V 8.296875 H 54.390625 V 0 H 12.40625 Z"
               id="DejaVuSans-49" />
          </defs>
          <g
             transform="matrix(0.12,0,0,-0.12,258.39098,320.56212)"
             id="g4912">
            <use
               xlink:href="#DejaVuSans-49"
               id="use4906" />
            <use
               x="63.623047"
               xlink:href="#DejaVuSans-48"
               id="use4908" />
            <use
               x="127.24609"
               xlink:href="#DejaVuSans-48"
               id="use4910" />
          </g>
        </g>
      </g>
      <g
         id="xtick_4">
        <g
           id="line2d_7">
          <g
             id="g4918">
            <use
               style="stroke:#000000"
               x="318.3652"
               xlink:href="#m06bf25cbc4"
               y="307.944"
               id="use4916" />
          </g>
        </g>
        <g
           id="line2d_8">
          <g
             id="g4923">
            <use
               style="stroke:#000000"
               x="318.3652"
               xlink:href="#md65a567e17"
               y="78.624001"
               id="use4921" />
          </g>
        </g>
        <g
           id="text_4">
          <!-- 150 -->
          <g
             transform="matrix(0.12,0,0,-0.12,306.91272,320.56212)"
             id="g4932">
            <use
               xlink:href="#DejaVuSans-49"
               id="use4926" />
            <use
               x="63.623047"
               xlink:href="#DejaVuSans-53"
               id="use4928" />
            <use
               x="127.24609"
               xlink:href="#DejaVuSans-48"
               id="use4930" />
          </g>
        </g>
      </g>
      <g
         id="xtick_5">
        <g
           id="line2d_9">
          <g
             id="g4938">
            <use
               style="stroke:#000000"
               x="366.88696"
               xlink:href="#m06bf25cbc4"
               y="307.944"
               id="use4936" />
          </g>
        </g>
        <g
           id="line2d_10">
          <g
             id="g4943">
            <use
               style="stroke:#000000"
               x="366.88696"
               xlink:href="#md65a567e17"
               y="78.624001"
               id="use4941" />
          </g>
        </g>
        <g
           id="text_5">
          <!-- 200 -->
          <defs
             id="defs4947">
            <path
               d="M 19.1875,8.296875 H 53.609375 V 0 H 7.328125 v 8.296875 q 5.609375,5.8125 15.296875,15.59375 9.703125,9.796875 12.1875,12.640625 4.734375,5.3125 6.609375,9 1.890625,3.6875 1.890625,7.25 0,5.8125 -4.078125,9.46875 -4.078125,3.671875 -10.625,3.671875 -4.640625,0 -9.796875,-1.609375 -5.140625,-1.609375 -11,-4.890625 v 9.96875 Q 13.765625,71.78125 18.9375,73 q 5.1875,1.21875 9.484375,1.21875 11.328125,0 18.0625,-5.671875 6.734375,-5.65625 6.734375,-15.125 0,-4.5 -1.6875,-8.53125 Q 49.859375,40.875 45.40625,35.40625 44.1875,33.984375 37.640625,27.21875 31.109375,20.453125 19.1875,8.296875 Z"
               id="DejaVuSans-50" />
          </defs>
          <g
             transform="matrix(0.12,0,0,-0.12,355.43446,320.56212)"
             id="g4955">
            <use
               xlink:href="#DejaVuSans-50"
               id="use4949" />
            <use
               x="63.623047"
               xlink:href="#DejaVuSans-48"
               id="use4951" />
            <use
               x="127.24609"
               xlink:href="#DejaVuSans-48"
               id="use4953" />
          </g>
        </g>
      </g>
      <g
         id="text_6">
        <!-- Time (min) -->
        <defs
           id="defs4967">
          <path
             d="M -0.296875,72.90625 H 61.375 v -8.3125 H 35.5 V 0 H 25.59375 V 64.59375 H -0.296875 Z"
             id="DejaVuSans-84" />
          <path
             d="M 9.421875,54.6875 H 18.40625 V 0 H 9.421875 Z m 0,21.296875 H 18.40625 V 64.59375 H 9.421875 Z"
             id="DejaVuSans-105" />
          <path
             d="M 52,44.1875 Q 55.375,50.25 60.0625,53.125 64.75,56 71.09375,56 q 8.546875,0 13.1875,-5.984375 4.640625,-5.96875 4.640625,-17 V 0 h -9.03125 v 32.71875 q 0,7.859375 -2.796875,11.65625 -2.78125,3.8125 -8.484375,3.8125 -6.984375,0 -11.046875,-4.640625 -4.046875,-4.625 -4.046875,-12.640625 V 0 h -9.03125 v 32.71875 q 0,7.90625 -2.78125,11.6875 -2.78125,3.78125 -8.59375,3.78125 -6.890625,0 -10.953125,-4.65625 -4.046875,-4.65625 -4.046875,-12.625 V 0 h -9.03125 v 54.6875 h 9.03125 v -8.5 q 3.078125,5.03125 7.375,7.421875 Q 29.78125,56 35.6875,56 41.65625,56 45.828125,52.96875 50,49.953125 52,44.1875 Z"
             id="DejaVuSans-109" />
          <path
             d="m 56.203125,29.59375 v -4.390625 h -41.3125 q 0.59375,-9.28125 5.59375,-14.140625 5,-4.859375 13.9375,-4.859375 5.171875,0 10.03125,1.265625 4.859375,1.265625 9.65625,3.8125 v -8.5 q -4.84375,-2.046875 -9.921875,-3.125 -5.078125,-1.078125 -10.296875,-1.078125 -13.09375,0 -20.734375,7.609375 -7.640625,7.625 -7.640625,20.625 0,13.421875 7.25,21.296875 Q 20.015625,56 32.328125,56 q 11.03125,0 17.453125,-7.109375 6.421875,-7.09375 6.421875,-19.296875 z m -8.984375,2.640625 q -0.09375,7.359375 -4.125,11.75 -4.03125,4.40625 -10.671875,4.40625 -7.515625,0 -12.03125,-4.25 -4.515625,-4.25 -5.203125,-11.96875 z"
             id="DejaVuSans-101" />
          <path
             id="DejaVuSans-32"
             d="" />
          <path
             d="M 31,75.875 Q 24.46875,64.65625 21.28125,53.65625 18.109375,42.671875 18.109375,31.390625 18.109375,20.125 21.3125,9.0625 24.515625,-2 31,-13.1875 H 23.1875 Q 15.875,-1.703125 12.234375,9.375 8.59375,20.453125 8.59375,31.390625 q 0,10.890625 3.609375,21.921875 3.625,11.046875 10.984375,22.5625 z"
             id="DejaVuSans-40" />
          <path
             d="M 54.890625,33.015625 V 0 H 45.90625 v 32.71875 q 0,7.765625 -3.03125,11.609375 -3.03125,3.859375 -9.078125,3.859375 -7.28125,0 -11.484375,-4.640625 -4.203125,-4.625 -4.203125,-12.640625 V 0 h -9.03125 v 54.6875 h 9.03125 v -8.5 q 3.234375,4.9375 7.59375,7.375 4.375,2.4375 10.09375,2.4375 9.421875,0 14.25,-5.828125 4.84375,-5.828125 4.84375,-17.15625 z"
             id="DejaVuSans-110" />
          <path
             d="m 8.015625,75.875 h 7.8125 q 7.3125,-11.515625 10.953125,-22.5625 3.640625,-11.03125 3.640625,-21.921875 0,-10.9375 -3.640625,-22.015625 -3.640625,-11.078125 -10.953125,-22.5625 h -7.8125 Q 14.5,-2 17.703125,9.0625 20.90625,20.125 20.90625,31.390625 q 0,11.28125 -3.203125,22.265625 -3.203125,11 -9.6875,22.21875 z"
             id="DejaVuSans-41" />
        </defs>
        <g
           transform="matrix(0.12,0,0,-0.12,256.66936,336.17588)"
           id="g4989">
          <use
             xlink:href="#DejaVuSans-84"
             id="use4969" />
          <use
             x="57.958984"
             xlink:href="#DejaVuSans-105"
             id="use4971" />
          <use
             x="85.742188"
             xlink:href="#DejaVuSans-109"
             id="use4973" />
          <use
             x="183.1543"
             xlink:href="#DejaVuSans-101"
             id="use4975" />
          <use
             x="244.67773"
             xlink:href="#DejaVuSans-32"
             id="use4977" />
          <use
             x="276.46484"
             xlink:href="#DejaVuSans-40"
             id="use4979" />
          <use
             x="315.47852"
             xlink:href="#DejaVuSans-109"
             id="use4981" />
          <use
             x="412.89062"
             xlink:href="#DejaVuSans-105"
             id="use4983" />
          <use
             x="440.67383"
             xlink:href="#DejaVuSans-110"
             id="use4985" />
          <use
             x="504.05273"
             xlink:href="#DejaVuSans-41"
             id="use4987" />
        </g>
      </g>
    </g>
    <g
       id="matplotlib.axis_2">
      <g
         id="ytick_1">
        <g
           id="line2d_11">
          <defs
             id="defs4994">
            <path
               d="M 0,0 H 3"
               id="mb0623d5208"
               style="stroke:#000000" />
          </defs>
          <g
             id="g4998">
            <use
               style="stroke:#000000"
               x="172.8"
               xlink:href="#mb0623d5208"
               y="288.83401"
               id="use4996" />
          </g>
        </g>
        <g
           id="line2d_12">
          <defs
             id="defs5002">
            <path
               d="M 0,0 H -3"
               id="m5ff59f4e63"
               style="stroke:#000000" />
          </defs>
          <g
             id="g5006">
            <use
               style="stroke:#000000"
               x="405.70435"
               xlink:href="#m5ff59f4e63"
               y="288.83401"
               id="use5004" />
          </g>
        </g>
        <g
           id="text_7">
          <!-- 0 -->
          <g
             transform="matrix(0.12,0,0,-0.12,161.665,293.39306)"
             id="g5011">
            <use
               xlink:href="#DejaVuSans-48"
               id="use5009" />
          </g>
        </g>
      </g>
      <g
         id="ytick_2">
        <g
           id="line2d_13">
          <g
             id="g5017">
            <use
               style="stroke:#000000"
               x="172.8"
               xlink:href="#mb0623d5208"
               y="250.614"
               id="use5015" />
          </g>
        </g>
        <g
           id="line2d_14">
          <g
             id="g5022">
            <use
               style="stroke:#000000"
               x="405.70435"
               xlink:href="#m5ff59f4e63"
               y="250.614"
               id="use5020" />
          </g>
        </g>
        <g
           id="text_8">
          <!-- 20 -->
          <g
             transform="matrix(0.12,0,0,-0.12,154.03,255.17306)"
             id="g5029">
            <use
               xlink:href="#DejaVuSans-50"
               id="use5025" />
            <use
               x="63.623047"
               xlink:href="#DejaVuSans-48"
               id="use5027" />
          </g>
        </g>
      </g>
      <g
         id="ytick_3">
        <g
           id="line2d_15">
          <g
             id="g5035">
            <use
               style="stroke:#000000"
               x="172.8"
               xlink:href="#mb0623d5208"
               y="212.394"
               id="use5033" />
          </g>
        </g>
        <g
           id="line2d_16">
          <g
             id="g5040">
            <use
               style="stroke:#000000"
               x="405.70435"
               xlink:href="#m5ff59f4e63"
               y="212.394"
               id="use5038" />
          </g>
        </g>
        <g
           id="text_9">
          <!-- 40 -->
          <defs
             id="defs5044">
            <path
               d="M 37.796875,64.3125 12.890625,25.390625 h 24.90625 z m -2.59375,8.59375 h 12.40625 V 25.390625 h 10.40625 V 17.1875 H 47.609375 V 0 h -9.8125 V 17.1875 H 4.890625 v 9.515625 z"
               id="DejaVuSans-52" />
          </defs>
          <g
             transform="matrix(0.12,0,0,-0.12,154.03,216.95306)"
             id="g5050">
            <use
               xlink:href="#DejaVuSans-52"
               id="use5046" />
            <use
               x="63.623047"
               xlink:href="#DejaVuSans-48"
               id="use5048" />
          </g>
        </g>
      </g>
      <g
         id="ytick_4">
        <g
           id="line2d_17">
          <g
             id="g5056">
            <use
               style="stroke:#000000"
               x="172.8"
               xlink:href="#mb0623d5208"
               y="174.174"
               id="use5054" />
          </g>
        </g>
        <g
           id="line2d_18">
          <g
             id="g5061">
            <use
               style="stroke:#000000"
               x="405.70435"
               xlink:href="#m5ff59f4e63"
               y="174.174"
               id="use5059" />
          </g>
        </g>
        <g
           id="text_10">
          <!-- 60 -->
          <defs
             id="defs5065">
            <path
               d="m 33.015625,40.375 q -6.640625,0 -10.53125,-4.546875 -3.875,-4.53125 -3.875,-12.4375 0,-7.859375 3.875,-12.4375 3.890625,-4.5625 10.53125,-4.5625 6.640625,0 10.515625,4.5625 3.875,4.578125 3.875,12.4375 0,7.90625 -3.875,12.4375 Q 39.65625,40.375 33.015625,40.375 Z M 52.59375,71.296875 V 62.3125 q -3.71875,1.75 -7.5,2.671875 -3.78125,0.9375 -7.5,0.9375 -9.765625,0 -14.921875,-6.59375 -5.140625,-6.59375 -5.875,-19.921875 2.875,4.25 7.21875,6.515625 4.359375,2.265625 9.578125,2.265625 10.984375,0 17.359375,-6.671875 6.375,-6.65625 6.375,-18.125 0,-11.234375 -6.640625,-18.03125 -6.640625,-6.78125 -17.671875,-6.78125 -12.65625,0 -19.34375,9.6875 -6.6875,9.703125 -6.6875,28.109375 0,17.28125 8.203125,27.5625 8.203125,10.28125 22.015625,10.28125 3.71875,0 7.5,-0.734375 3.78125,-0.734375 7.890625,-2.1875 z"
               id="DejaVuSans-54" />
          </defs>
          <g
             transform="matrix(0.12,0,0,-0.12,154.03,178.73306)"
             id="g5071">
            <use
               xlink:href="#DejaVuSans-54"
               id="use5067" />
            <use
               x="63.623047"
               xlink:href="#DejaVuSans-48"
               id="use5069" />
          </g>
        </g>
      </g>
      <g
         id="ytick_5">
        <g
           id="line2d_19">
          <g
             id="g5077">
            <use
               style="stroke:#000000"
               x="172.8"
               xlink:href="#mb0623d5208"
               y="135.95399"
               id="use5075" />
          </g>
        </g>
        <g
           id="line2d_20">
          <g
             id="g5082">
            <use
               style="stroke:#000000"
               x="405.70435"
               xlink:href="#m5ff59f4e63"
               y="135.95399"
               id="use5080" />
          </g>
        </g>
        <g
           id="text_11">
          <!-- 80 -->
          <defs
             id="defs5086">
            <path
               d="m 31.78125,34.625 q -7.03125,0 -11.0625,-3.765625 -4.015625,-3.765625 -4.015625,-10.34375 0,-6.59375 4.015625,-10.359375 4.03125,-3.765625 11.0625,-3.765625 7.03125,0 11.078125,3.78125 4.0625,3.796875 4.0625,10.34375 0,6.578125 -4.03125,10.34375 Q 38.875,34.625 31.78125,34.625 Z m -9.859375,4.1875 Q 15.578125,40.375 12.03125,44.71875 8.5,49.078125 8.5,55.328125 q 0,8.734375 6.21875,13.8125 6.234375,5.078125 17.0625,5.078125 10.890625,0 17.09375,-5.078125 6.203125,-5.078125 6.203125,-13.8125 0,-6.25 -3.546875,-10.609375 Q 48,40.375 41.703125,38.8125 q 7.125,-1.65625 11.09375,-6.5 3.984375,-4.828125 3.984375,-11.796875 0,-10.609375 -6.46875,-16.28125 -6.46875,-5.65625 -18.53125,-5.65625 -12.046875,0 -18.53125,5.65625 -6.46875,5.671875 -6.46875,16.28125 0,6.96875 4,11.796875 4.015625,4.84375 11.140625,6.5 z M 18.3125,54.390625 q 0,-5.65625 3.53125,-8.828125 3.546875,-3.171875 9.9375,-3.171875 6.359375,0 9.9375,3.171875 3.59375,3.171875 3.59375,8.828125 0,5.671875 -3.59375,8.84375 -3.578125,3.171875 -9.9375,3.171875 -6.390625,0 -9.9375,-3.171875 Q 18.3125,60.0625 18.3125,54.390625 Z"
               id="DejaVuSans-56" />
          </defs>
          <g
             transform="matrix(0.12,0,0,-0.12,154.03,140.51306)"
             id="g5092">
            <use
               xlink:href="#DejaVuSans-56"
               id="use5088" />
            <use
               x="63.623047"
               xlink:href="#DejaVuSans-48"
               id="use5090" />
          </g>
        </g>
      </g>
      <g
         id="ytick_6">
        <g
           id="line2d_21">
          <g
             id="g5098">
            <use
               style="stroke:#000000"
               x="172.8"
               xlink:href="#mb0623d5208"
               y="97.734001"
               id="use5096" />
          </g>
        </g>
        <g
           id="line2d_22">
          <g
             id="g5103">
            <use
               style="stroke:#000000"
               x="405.70435"
               xlink:href="#m5ff59f4e63"
               y="97.734001"
               id="use5101" />
          </g>
        </g>
        <g
           id="text_12">
          <!-- 100 -->
          <g
             transform="matrix(0.12,0,0,-0.12,146.395,102.29306)"
             id="g5112">
            <use
               xlink:href="#DejaVuSans-49"
               id="use5106" />
            <use
               x="63.623047"
               xlink:href="#DejaVuSans-48"
               id="use5108" />
            <use
               x="127.24609"
               xlink:href="#DejaVuSans-48"
               id="use5110" />
          </g>
        </g>
      </g>
      <g
         id="text_13">
        <!-- Reacted reporter (%) -->
        <defs
           id="defs5125">
          <path
             d="m 44.390625,34.1875 q 3.171875,-1.078125 6.171875,-4.59375 3,-3.515625 6.03125,-9.671875 L 66.609375,0 H 56 l -9.3125,18.703125 q -3.625,7.328125 -7.015625,9.71875 -3.390625,2.390625 -9.25,2.390625 h -10.75 V 0 H 9.8125 v 72.90625 h 22.265625 q 12.5,0 18.65625,-5.234375 6.15625,-5.21875 6.15625,-15.765625 0,-6.890625 -3.203125,-11.4375 -3.203125,-4.53125 -9.296875,-6.28125 z m -24.71875,30.609375 v -25.875 h 12.40625 q 7.125,0 10.765625,3.296875 3.640625,3.296875 3.640625,9.6875 0,6.390625 -3.640625,9.640625 -3.640625,3.25 -10.765625,3.25 z"
             id="DejaVuSans-82" />
          <path
             d="m 34.28125,27.484375 q -10.890625,0 -15.09375,-2.484375 -4.203125,-2.484375 -4.203125,-8.5 0,-4.78125 3.15625,-7.59375 3.15625,-2.796875 8.5625,-2.796875 7.484375,0 12,5.296875 4.515625,5.296875 4.515625,14.078125 v 2 z m 17.921875,3.71875 V 0 H 43.21875 v 8.296875 q -3.078125,-4.96875 -7.671875,-7.34375 -4.59375,-2.375 -11.234375,-2.375 -8.390625,0 -13.359375,4.71875 Q 6,8.015625 6,15.921875 q 0,9.21875 6.171875,13.90625 6.1875,4.6875 18.4375,4.6875 H 43.21875 v 0.890625 q 0,6.203125 -4.078125,9.59375 -4.078125,3.390625 -11.453125,3.390625 -4.6875,0 -9.140625,-1.125 -4.4375,-1.125 -8.53125,-3.375 v 8.3125 q 4.921875,1.90625 9.5625,2.84375 Q 24.21875,56 28.609375,56 q 11.875,0 17.734375,-6.15625 5.859375,-6.140625 5.859375,-18.640625 z"
             id="DejaVuSans-97" />
          <path
             d="M 48.78125,52.59375 V 44.1875 q -3.8125,2.109375 -7.640625,3.15625 -3.828125,1.046875 -7.734375,1.046875 -8.75,0 -13.59375,-5.546875 -4.828125,-5.53125 -4.828125,-15.546875 0,-10.015625 4.828125,-15.5625 4.84375,-5.53125 13.59375,-5.53125 3.90625,0 7.734375,1.046875 3.828125,1.046875 7.640625,3.15625 v -8.3125 q -3.765625,-1.75 -7.796875,-2.625 -4.015625,-0.890625 -8.5625,-0.890625 -12.359375,0 -19.640625,7.765625 -7.265625,7.765625 -7.265625,20.953125 0,13.375 7.34375,21.03125 Q 20.21875,56 33.015625,56 q 4.140625,0 8.09375,-0.859375 3.953125,-0.84375 7.671875,-2.546875 z"
             id="DejaVuSans-99" />
          <path
             d="M 18.3125,70.21875 V 54.6875 h 18.5 v -6.984375 h -18.5 v -29.6875 q 0,-6.6875 1.828125,-8.59375 1.828125,-1.90625 7.453125,-1.90625 H 36.8125 V 0 H 27.59375 Q 17.1875,0 13.234375,3.875 9.28125,7.765625 9.28125,18.015625 v 29.6875 H 2.6875 V 54.6875 h 6.59375 v 15.53125 z"
             id="DejaVuSans-116" />
          <path
             d="m 45.40625,46.390625 v 29.59375 h 8.984375 V 0 H 45.40625 v 8.203125 q -2.828125,-4.875 -7.15625,-7.25 -4.3125,-2.375 -10.375,-2.375 -9.90625,0 -16.140625,7.90625 -6.21875,7.921875 -6.21875,20.8125 0,12.890625 6.21875,20.796875 Q 17.96875,56 27.875,56 q 6.0625,0 10.375,-2.375 4.328125,-2.359375 7.15625,-7.234375 z M 14.796875,27.296875 q 0,-9.90625 4.078125,-15.546875 4.078125,-5.640625 11.203125,-5.640625 7.125,0 11.21875,5.640625 4.109375,5.640625 4.109375,15.546875 0,9.90625 -4.109375,15.546875 -4.09375,5.640625 -11.21875,5.640625 -7.125,0 -11.203125,-5.640625 -4.078125,-5.640625 -4.078125,-15.546875 z"
             id="DejaVuSans-100" />
          <path
             d="m 41.109375,46.296875 q -1.515625,0.875 -3.296875,1.28125 Q 36.03125,48 33.890625,48 26.265625,48 22.1875,43.046875 18.109375,38.09375 18.109375,28.8125 V 0 h -9.03125 v 54.6875 h 9.03125 v -8.5 q 2.84375,4.984375 7.375,7.390625 Q 30.03125,56 36.53125,56 q 0.921875,0 2.046875,-0.125 1.125,-0.109375 2.484375,-0.359375 z"
             id="DejaVuSans-114" />
          <path
             d="m 18.109375,8.203125 v -29 H 9.078125 V 54.6875 h 9.03125 v -8.296875 q 2.84375,4.875 7.15625,7.234375 Q 29.59375,56 35.59375,56 q 9.96875,0 16.1875,-7.90625 6.234375,-7.90625 6.234375,-20.796875 0,-12.890625 -6.234375,-20.8125 -6.21875,-7.90625 -16.1875,-7.90625 -6,0 -10.328125,2.375 -4.3125,2.375 -7.15625,7.25 z M 48.6875,27.296875 q 0,9.90625 -4.078125,15.546875 -4.078125,5.640625 -11.203125,5.640625 -7.140625,0 -11.21875,-5.640625 -4.078125,-5.640625 -4.078125,-15.546875 0,-9.90625 4.078125,-15.546875 4.078125,-5.640625 11.21875,-5.640625 7.125,0 11.203125,5.640625 4.078125,5.640625 4.078125,15.546875 z"
             id="DejaVuSans-112" />
          <path
             d="m 30.609375,48.390625 q -7.21875,0 -11.421875,-5.640625 -4.203125,-5.640625 -4.203125,-15.453125 0,-9.8125 4.171875,-15.453125 4.1875,-5.640625 11.453125,-5.640625 7.1875,0 11.375,5.65625 4.203125,5.671875 4.203125,15.4375 0,9.71875 -4.203125,15.40625 -4.1875,5.6875 -11.375,5.6875 z m 0,7.609375 q 11.71875,0 18.40625,-7.625 6.703125,-7.609375 6.703125,-21.078125 0,-13.421875 -6.703125,-21.078125 -6.6875,-7.640625 -18.40625,-7.640625 -11.765625,0 -18.4375,7.640625 -6.65625,7.65625 -6.65625,21.078125 0,13.46875 6.65625,21.078125 Q 18.84375,56 30.609375,56 Z"
             id="DejaVuSans-111" />
          <path
             d="m 72.703125,32.078125 q -4.25,0 -6.671875,-3.609375 -2.40625,-3.609375 -2.40625,-10.0625 0,-6.34375 2.40625,-9.984375 2.421875,-3.640625 6.671875,-3.640625 4.15625,0 6.5625,3.640625 2.421875,3.640625 2.421875,9.984375 0,6.40625 -2.421875,10.03125 -2.40625,3.640625 -6.5625,3.640625 z m 0,6.203125 q 7.71875,0 12.25,-5.375 Q 89.5,27.546875 89.5,18.40625 q 0,-9.125 -4.5625,-14.484375 -4.5625,-5.34375 -12.234375,-5.34375 -7.8125,0 -12.359375,5.34375 -4.53125,5.359375 -4.53125,14.484375 0,9.1875 4.5625,14.53125 4.5625,5.34375 12.328125,5.34375 z M 22.3125,68.015625 q -4.203125,0 -6.625,-3.640625 -2.40625,-3.625 -2.40625,-9.984375 0,-6.4375 2.390625,-10.0625 2.390625,-3.609375 6.640625,-3.609375 4.25,0 6.65625,3.609375 2.421875,3.625 2.421875,10.0625 0,6.296875 -2.4375,9.953125 -2.4375,3.671875 -6.640625,3.671875 z m 44.09375,6.203125 h 7.8125 L 28.609375,-1.421875 h -7.8125 z m -44.09375,0 q 7.71875,0 12.296875,-5.34375 4.59375,-5.34375 4.59375,-14.484375 0,-9.21875 -4.5625,-14.546875 -4.5625,-5.328125 -12.328125,-5.328125 -7.765625,0 -12.28125,5.34375 -4.515625,5.359375 -4.515625,14.53125 0,9.09375 4.53125,14.453125 4.546875,5.375 12.265625,5.375 z"
             id="DejaVuSans-37" />
        </defs>
        <g
           transform="matrix(0,-0.12,-0.12,0,139.89937,256.3815)"
           id="g5167">
          <use
             xlink:href="#DejaVuSans-82"
             id="use5127" />
          <use
             x="64.982422"
             xlink:href="#DejaVuSans-101"
             id="use5129" />
          <use
             x="126.50586"
             xlink:href="#DejaVuSans-97"
             id="use5131" />
          <use
             x="187.78516"
             xlink:href="#DejaVuSans-99"
             id="use5133" />
          <use
             x="242.76562"
             xlink:href="#DejaVuSans-116"
             id="use5135" />
          <use
             x="281.97461"
             xlink:href="#DejaVuSans-101"
             id="use5137" />
          <use
             x="343.49805"
             xlink:href="#DejaVuSans-100"
             id="use5139" />
          <use
             x="406.97461"
             xlink:href="#DejaVuSans-32"
             id="use5141" />
          <use
             x="438.76172"
             xlink:href="#DejaVuSans-114"
             id="use5143" />
          <use
             x="477.625"
             xlink:href="#DejaVuSans-101"
             id="use5145" />
          <use
             x="539.14844"
             xlink:href="#DejaVuSans-112"
             id="use5147" />
          <use
             x="602.625"
             xlink:href="#DejaVuSans-111"
             id="use5149" />
          <use
             x="663.80664"
             xlink:href="#DejaVuSans-114"
             id="use5151" />
          <use
             x="704.91992"
             xlink:href="#DejaVuSans-116"
             id="use5153" />
          <use
             x="744.12891"
             xlink:href="#DejaVuSans-101"
             id="use5155" />
          <use
             x="805.65234"
             xlink:href="#DejaVuSans-114"
             id="use5157" />
          <use
             x="846.76562"
             xlink:href="#DejaVuSans-32"
             id="use5159" />
          <use
             x="878.55273"
             xlink:href="#DejaVuSans-40"
             id="use5161" />
          <use
             x="917.56641"
             xlink:href="#DejaVuSans-37"
             id="use5163" />
          <use
             x="1012.5859"
             xlink:href="#DejaVuSans-41"
             id="use5165" />
        </g>
      </g>
    </g>
    <g
       id="line2d_23">
      <path
         clip-path="url(#p7645a71461)"
         d="m 172.8,288.834 2.09614,-0.12809 2.44549,-0.37854 2.4455,-0.59866 2.09614,-0.76292 1.74678,-0.891 1.39743,-0.92868 1.39742,-1.15765 1.39743,-1.41818 1.39743,-1.70639 1.39742,-2.01759 1.39743,-2.34652 1.74678,-3.41381 1.74678,-3.95889 1.74679,-4.50394 2.09614,-6.10453 2.09613,-6.83281 2.4455,-8.81933 2.79485,-11.06901 3.14421,-13.45972 4.19228,-19.0663 9.08327,-41.76774 3.14421,-13.2363 2.44549,-9.4315 2.09614,-7.30441 2.09614,-6.47783 1.74678,-4.72142 1.74679,-4.09087 1.74678,-3.45546 1.39743,-2.32059 1.39742,-1.95141 1.39743,-1.60984 1.39742,-1.29942 1.39743,-1.02641 1.39743,-0.794416 1.74678,-0.725065 1.74678,-0.491044 2.09614,-0.377031 2.79485,-0.265711 4.19228,-0.146577 9.78198,-0.04364 L 405.8208,97.734 v 0"
         style="fill:none;stroke:#0000ff;stroke-width:2;stroke-dasharray:7.4, 3.2;stroke-dashoffset:0"
         id="path5171" />
    </g>
    <g
       id="line2d_24">
      <path
         clip-path="url(#p7645a71461)"
         d="m 172.8,288.834 2.09614,-0.12808 2.44549,-0.37502 2.79486,-0.63919 3.49356,-1.03052 9.43263,-3.14442 13.27555,-4.26746 26.55109,-8.25579 54.84898,-16.79379 85.9417,-26.07496 32.1408,-9.69718 v 0"
         style="fill:none;stroke:#ff0000;stroke-width:2;stroke-dasharray:7.4, 3.2;stroke-dashoffset:0"
         id="path5174" />
    </g>
    <g
       id="patch_3">
      <path
         d="M 172.8,307.944 V 78.624"
         style="fill:none;stroke:#000000;stroke-width:0.8;stroke-linecap:square;stroke-linejoin:miter"
         id="path5177" />
    </g>
    <g
       id="patch_4">
      <path
         d="M 405.70435,307.944 V 78.624"
         style="fill:none;stroke:#000000;stroke-width:0.8;stroke-linecap:square;stroke-linejoin:miter"
         id="path5180" />
    </g>
    <g
       id="patch_5">
      <path
         d="M 172.8,307.944 H 405.70435"
         style="fill:none;stroke:#000000;stroke-width:0.8;stroke-linecap:square;stroke-linejoin:miter"
         id="path5183" />
    </g>
    <g
       id="patch_6">
      <path
         d="M 172.8,78.624 H 405.70435"
         style="fill:none;stroke:#000000;stroke-width:0.8;stroke-linecap:square;stroke-linejoin:miter"
         id="path5186" />
    </g>
    <g
       id="legend_1">
      <g
         id="line2d_25">
        <path
           d="m 289.43716,278.68619 h 20"
           style="fill:none;stroke:#0000ff;stroke-width:2;stroke-dasharray:7.4, 3.2;stroke-dashoffset:0"
           id="path5239" />
      </g>
      <g
         id="line2d_26" />
      <g
         id="text_15">
        <!-- TGtemp=0 nM -->
        <defs
           id="defs5246">
          <path
             d="M 59.515625,10.40625 V 29.984375 H 43.40625 v 8.109375 h 25.875 V 6.78125 Q 63.578125,2.734375 56.6875,0.65625 49.8125,-1.421875 42,-1.421875 q -17.09375,0 -26.75,9.984375 -9.640625,10 -9.640625,27.8125 0,17.875 9.640625,27.859375 9.65625,9.984375 26.75,9.984375 7.125,0 13.546875,-1.765625 6.421875,-1.75 11.84375,-5.171875 v -10.5 q -5.46875,4.640625 -11.625,6.984375 -6.15625,2.34375 -12.9375,2.34375 -13.390625,0 -20.109375,-7.46875 -6.703125,-7.46875 -6.703125,-22.265625 0,-14.75 6.703125,-22.21875 6.71875,-7.46875 20.109375,-7.46875 5.21875,0 9.3125,0.90625 4.109375,0.90625 7.375,2.8125 z"
             id="DejaVuSans-71" />
          <path
             d="M 10.59375,45.40625 H 73.1875 V 37.203125 H 10.59375 Z m 0,-19.921875 H 73.1875 V 17.1875 H 10.59375 Z"
             id="DejaVuSans-61" />
          <path
             d="M 9.8125,72.90625 H 24.515625 L 43.109375,23.296875 61.8125,72.90625 H 76.515625 V 0 h -9.625 v 64.015625 l -18.796875,-50 H 38.1875 l -18.796875,50 V 0 H 9.8125 Z"
             id="DejaVuSans-77" />
        </defs>
        <g
           transform="matrix(0.1,0,0,-0.1,317.43716,282.18619)"
           id="g5270">
          <use
             xlink:href="#DejaVuSans-84"
             id="use5248" />
          <use
             x="61.083984"
             xlink:href="#DejaVuSans-71"
             id="use5250" />
          <use
             x="138.57422"
             xlink:href="#DejaVuSans-116"
             id="use5252" />
          <use
             x="177.7832"
             xlink:href="#DejaVuSans-101"
             id="use5254" />
          <use
             x="239.30664"
             xlink:href="#DejaVuSans-109"
             id="use5256" />
          <use
             x="336.71875"
             xlink:href="#DejaVuSans-112"
             id="use5258" />
          <use
             x="400.19531"
             xlink:href="#DejaVuSans-61"
             id="use5260" />
          <use
             x="483.98438"
             xlink:href="#DejaVuSans-48"
             id="use5262" />
          <use
             x="547.60742"
             xlink:href="#DejaVuSans-32"
             id="use5264" />
          <use
             x="579.39453"
             xlink:href="#DejaVuSans-110"
             id="use5266" />
          <use
             x="642.77344"
             xlink:href="#DejaVuSans-77"
             id="use5268" />
        </g>
      </g>
      <g
         id="line2d_27">
        <path
           d="m 289.43716,293.36431 h 20"
           style="fill:none;stroke:#ff0000;stroke-width:2;stroke-dasharray:7.4, 3.2;stroke-dashoffset:0"
           id="path5273" />
      </g>
      <g
         id="line2d_28" />
      <g
         id="text_16">
        <!-- TGtemp=50 nM -->
        <g
           transform="matrix(0.1,0,0,-0.1,317.43716,296.86431)"
           id="g5301">
          <use
             xlink:href="#DejaVuSans-84"
             id="use5277" />
          <use
             x="61.083984"
             xlink:href="#DejaVuSans-71"
             id="use5279" />
          <use
             x="138.57422"
             xlink:href="#DejaVuSans-116"
             id="use5281" />
          <use
             x="177.7832"
             xlink:href="#DejaVuSans-101"
             id="use5283" />
          <use
             x="239.30664"
             xlink:href="#DejaVuSans-109"
             id="use5285" />
          <use
             x="336.71875"
             xlink:href="#DejaVuSans-112"
             id="use5287" />
          <use
             x="400.19531"
             xlink:href="#DejaVuSans-61"
             id="use5289" />
          <use
             x="483.98438"
             xlink:href="#DejaVuSans-53"
             id="use5291" />
          <use
             x="547.60742"
             xlink:href="#DejaVuSans-48"
             id="use5293" />
          <use
             x="611.23047"
             xlink:href="#DejaVuSans-32"
             id="use5295" />
          <use
             x="643.01758"
             xlink:href="#DejaVuSans-110"
             id="use5297" />
          <use
             x="706.39648"
             xlink:href="#DejaVuSans-77"
             id="use5299" />
        </g>
      </g>
    </g>
  </g>
  <defs
     id="defs5310">
    <clipPath
       id="p7645a71461">
      <rect
         height="229.32001"
         width="232.90434"
         x="172.8"
         y="78.624001"
         id="rect5307" />
    </clipPath>
  </defs>
  <rect
     style="fill:none;fill-rule:evenodd;stroke:#000000;stroke-width:0.999997;stroke-linecap:butt;stroke-linejoin:round;stroke-dasharray:none"
     id="rect2235"
     width="746.80347"
     height="297.00354"
     x="1.5982666"
     y="1.49823"
     ry="0" />
</svg>
