<?xml version="1.0" encoding="UTF-8" standalone="no"?>
<!-- Created with matplotlib (https://matplotlib.org/) -->

<svg
   height="300pt"
   version="1.1"
   viewBox="0 0 749.99999 299.99999"
   width="750pt"
   id="svg458"
   sodipodi:docname="AB+CD_simulations.svg"
   inkscape:version="1.2.1 (9c6d41e410, 2022-07-14)"
   xmlns:inkscape="http://www.inkscape.org/namespaces/inkscape"
   xmlns:sodipodi="http://sodipodi.sourceforge.net/DTD/sodipodi-0.dtd"
   xmlns:xlink="http://www.w3.org/1999/xlink"
   xmlns="http://www.w3.org/2000/svg"
   xmlns:svg="http://www.w3.org/2000/svg">
  <sodipodi:namedview
     id="namedview460"
     pagecolor="#ffffff"
     bordercolor="#666666"
     borderopacity="1.0"
     inkscape:showpageshadow="2"
     inkscape:pageopacity="0.0"
     inkscape:pagecheckerboard="0"
     inkscape:deskcolor="#d1d1d1"
     inkscape:document-units="pt"
     showgrid="false"
     inkscape:zoom="1.1731405"
     inkscape:cx="475.64637"
     inkscape:cy="159.4012"
     inkscape:window-width="1920"
     inkscape:window-height="986"
     inkscape:window-x="-11"
     inkscape:window-y="-11"
     inkscape:window-maximized="1"
     inkscape:current-layer="svg458" />
  <defs
     id="defs4">
    <rect
       x="-111.66608"
       y="72.455092"
       width="74.159918"
       height="161.95844"
       id="rect4486" />
    <style
       type="text/css"
       id="style2">
*{stroke-linecap:butt;stroke-linejoin:round;}
  </style>
    <rect
       x="-111.66608"
       y="72.455092"
       width="90.355762"
       height="168.77774"
       id="rect4544" />
  </defs>
  <g
     id="figure_1"
     transform="translate(79.891434,-54.22662)">
    <g
       id="patch_1" />
    <g
       id="axes_1">
      <g
         id="patch_2">
        <path
           d="M 172.8,307.944 H 405.70435 V 78.624 H 172.8 Z"
           style="fill:#ffffff"
           id="path9" />
      </g>
      <g
         id="matplotlib.axis_1">
        <g
           id="xtick_1">
          <g
             id="line2d_1">
            <defs
               id="defs13">
              <path
                 d="M 0,0 V -3"
                 id="md8deef6bb7"
                 style="stroke:#000000" />
            </defs>
            <g
               id="g17">
              <use
                 style="stroke:#000000"
                 x="172.8"
                 xlink:href="#md8deef6bb7"
                 y="307.944"
                 id="use15" />
            </g>
          </g>
          <g
             id="line2d_2">
            <defs
               id="defs21">
              <path
                 d="M 0,0 V 3"
                 id="mb45b46b75a"
                 style="stroke:#000000" />
            </defs>
            <g
               id="g25">
              <use
                 style="stroke:#000000"
                 x="172.8"
                 xlink:href="#mb45b46b75a"
                 y="78.624001"
                 id="use23" />
            </g>
          </g>
          <g
             id="text_1">
            <!-- 0 -->
            <defs
               id="defs29">
              <path
                 d="m 31.78125,66.40625 q -7.609375,0 -11.453125,-7.5 Q 16.5,51.421875 16.5,36.375 q 0,-14.984375 3.828125,-22.484375 3.84375,-7.5 11.453125,-7.5 7.671875,0 11.5,7.5 3.84375,7.5 3.84375,22.484375 0,15.046875 -3.84375,22.53125 -3.828125,7.5 -11.5,7.5 z m 0,7.8125 q 12.265625,0 18.734375,-9.703125 6.46875,-9.6875 6.46875,-28.140625 0,-18.40625 -6.46875,-28.109375 -6.46875,-9.6875 -18.734375,-9.6875 -12.25,0 -18.71875,9.6875 Q 6.59375,17.96875 6.59375,36.375 q 0,18.453125 6.46875,28.140625 6.46875,9.703125 18.71875,9.703125 z"
                 id="DejaVuSans-48" />
            </defs>
            <g
               transform="matrix(0.12,0,0,-0.12,168.9825,320.56212)"
               id="g33">
              <use
                 xlink:href="#DejaVuSans-48"
                 id="use31" />
            </g>
          </g>
        </g>
        <g
           id="xtick_2">
          <g
             id="line2d_3">
            <g
               id="g39">
              <use
                 style="stroke:#000000"
                 x="231.02609"
                 xlink:href="#md8deef6bb7"
                 y="307.944"
                 id="use37" />
            </g>
          </g>
          <g
             id="line2d_4">
            <g
               id="g44">
              <use
                 style="stroke:#000000"
                 x="231.02609"
                 xlink:href="#mb45b46b75a"
                 y="78.624001"
                 id="use42" />
            </g>
          </g>
          <g
             id="text_2">
            <!-- 50 -->
            <defs
               id="defs48">
              <path
                 d="m 10.796875,72.90625 h 38.71875 v -8.3125 h -29.6875 V 46.734375 q 2.140625,0.734375 4.28125,1.09375 2.15625,0.359375 4.3125,0.359375 Q 40.625,48.1875 47.75,41.5 54.890625,34.8125 54.890625,23.390625 54.890625,11.625 47.5625,5.09375 40.234375,-1.421875 26.90625,-1.421875 q -4.59375,0 -9.359375,0.78125 -4.75,0.78125 -9.828125,2.34375 V 11.625 q 4.390625,-2.390625 9.078125,-3.5625 4.6875,-1.171875 9.90625,-1.171875 8.453125,0 13.375,4.4375 4.9375,4.4375 4.9375,12.0625 0,7.609375 -4.9375,12.046875 -4.921875,4.453125 -13.375,4.453125 -3.953125,0 -7.890625,-0.875 -3.921875,-0.875 -8.015625,-2.734375 z"
                 id="DejaVuSans-53" />
            </defs>
            <g
               transform="matrix(0.12,0,0,-0.12,223.39109,320.56212)"
               id="g54">
              <use
                 xlink:href="#DejaVuSans-53"
                 id="use50" />
              <use
                 x="63.623047"
                 xlink:href="#DejaVuSans-48"
                 id="use52" />
            </g>
          </g>
        </g>
        <g
           id="xtick_3">
          <g
             id="line2d_5">
            <g
               id="g60">
              <use
                 style="stroke:#000000"
                 x="289.25217"
                 xlink:href="#md8deef6bb7"
                 y="307.944"
                 id="use58" />
            </g>
          </g>
          <g
             id="line2d_6">
            <g
               id="g65">
              <use
                 style="stroke:#000000"
                 x="289.25217"
                 xlink:href="#mb45b46b75a"
                 y="78.624001"
                 id="use63" />
            </g>
          </g>
          <g
             id="text_3">
            <!-- 100 -->
            <defs
               id="defs69">
              <path
                 d="m 12.40625,8.296875 h 16.109375 v 55.625 L 10.984375,60.40625 v 8.984375 l 17.4375,3.515625 H 38.28125 V 8.296875 H 54.390625 V 0 H 12.40625 Z"
                 id="DejaVuSans-49" />
            </defs>
            <g
               transform="matrix(0.12,0,0,-0.12,277.79967,320.56212)"
               id="g77">
              <use
                 xlink:href="#DejaVuSans-49"
                 id="use71" />
              <use
                 x="63.623047"
                 xlink:href="#DejaVuSans-48"
                 id="use73" />
              <use
                 x="127.24609"
                 xlink:href="#DejaVuSans-48"
                 id="use75" />
            </g>
          </g>
        </g>
        <g
           id="xtick_4">
          <g
             id="line2d_7">
            <g
               id="g83">
              <use
                 style="stroke:#000000"
                 x="347.47827"
                 xlink:href="#md8deef6bb7"
                 y="307.944"
                 id="use81" />
            </g>
          </g>
          <g
             id="line2d_8">
            <g
               id="g88">
              <use
                 style="stroke:#000000"
                 x="347.47827"
                 xlink:href="#mb45b46b75a"
                 y="78.624001"
                 id="use86" />
            </g>
          </g>
          <g
             id="text_4">
            <!-- 150 -->
            <g
               transform="matrix(0.12,0,0,-0.12,336.02576,320.56212)"
               id="g97">
              <use
                 xlink:href="#DejaVuSans-49"
                 id="use91" />
              <use
                 x="63.623047"
                 xlink:href="#DejaVuSans-53"
                 id="use93" />
              <use
                 x="127.24609"
                 xlink:href="#DejaVuSans-48"
                 id="use95" />
            </g>
          </g>
        </g>
        <g
           id="xtick_5">
          <g
             id="line2d_9">
            <g
               id="g103">
              <use
                 style="stroke:#000000"
                 x="405.70435"
                 xlink:href="#md8deef6bb7"
                 y="307.944"
                 id="use101" />
            </g>
          </g>
          <g
             id="line2d_10">
            <g
               id="g108">
              <use
                 style="stroke:#000000"
                 x="405.70435"
                 xlink:href="#mb45b46b75a"
                 y="78.624001"
                 id="use106" />
            </g>
          </g>
          <g
             id="text_5">
            <!-- 200 -->
            <defs
               id="defs112">
              <path
                 d="M 19.1875,8.296875 H 53.609375 V 0 H 7.328125 v 8.296875 q 5.609375,5.8125 15.296875,15.59375 9.703125,9.796875 12.1875,12.640625 4.734375,5.3125 6.609375,9 1.890625,3.6875 1.890625,7.25 0,5.8125 -4.078125,9.46875 -4.078125,3.671875 -10.625,3.671875 -4.640625,0 -9.796875,-1.609375 -5.140625,-1.609375 -11,-4.890625 v 9.96875 Q 13.765625,71.78125 18.9375,73 q 5.1875,1.21875 9.484375,1.21875 11.328125,0 18.0625,-5.671875 6.734375,-5.65625 6.734375,-15.125 0,-4.5 -1.6875,-8.53125 Q 49.859375,40.875 45.40625,35.40625 44.1875,33.984375 37.640625,27.21875 31.109375,20.453125 19.1875,8.296875 Z"
                 id="DejaVuSans-50" />
            </defs>
            <g
               transform="matrix(0.12,0,0,-0.12,394.25185,320.56212)"
               id="g120">
              <use
                 xlink:href="#DejaVuSans-50"
                 id="use114" />
              <use
                 x="63.623047"
                 xlink:href="#DejaVuSans-48"
                 id="use116" />
              <use
                 x="127.24609"
                 xlink:href="#DejaVuSans-48"
                 id="use118" />
            </g>
          </g>
        </g>
        <g
           id="text_6">
          <!-- Time (min) -->
          <defs
             id="defs132">
            <path
               d="M -0.296875,72.90625 H 61.375 v -8.3125 H 35.5 V 0 H 25.59375 V 64.59375 H -0.296875 Z"
               id="DejaVuSans-84" />
            <path
               d="M 9.421875,54.6875 H 18.40625 V 0 H 9.421875 Z m 0,21.296875 H 18.40625 V 64.59375 H 9.421875 Z"
               id="DejaVuSans-105" />
            <path
               d="M 52,44.1875 Q 55.375,50.25 60.0625,53.125 64.75,56 71.09375,56 q 8.546875,0 13.1875,-5.984375 4.640625,-5.96875 4.640625,-17 V 0 h -9.03125 v 32.71875 q 0,7.859375 -2.796875,11.65625 -2.78125,3.8125 -8.484375,3.8125 -6.984375,0 -11.046875,-4.640625 -4.046875,-4.625 -4.046875,-12.640625 V 0 h -9.03125 v 32.71875 q 0,7.90625 -2.78125,11.6875 -2.78125,3.78125 -8.59375,3.78125 -6.890625,0 -10.953125,-4.65625 -4.046875,-4.65625 -4.046875,-12.625 V 0 h -9.03125 v 54.6875 h 9.03125 v -8.5 q 3.078125,5.03125 7.375,7.421875 Q 29.78125,56 35.6875,56 41.65625,56 45.828125,52.96875 50,49.953125 52,44.1875 Z"
               id="DejaVuSans-109" />
            <path
               d="m 56.203125,29.59375 v -4.390625 h -41.3125 q 0.59375,-9.28125 5.59375,-14.140625 5,-4.859375 13.9375,-4.859375 5.171875,0 10.03125,1.265625 4.859375,1.265625 9.65625,3.8125 v -8.5 q -4.84375,-2.046875 -9.921875,-3.125 -5.078125,-1.078125 -10.296875,-1.078125 -13.09375,0 -20.734375,7.609375 -7.640625,7.625 -7.640625,20.625 0,13.421875 7.25,21.296875 Q 20.015625,56 32.328125,56 q 11.03125,0 17.453125,-7.109375 6.421875,-7.09375 6.421875,-19.296875 z m -8.984375,2.640625 q -0.09375,7.359375 -4.125,11.75 -4.03125,4.40625 -10.671875,4.40625 -7.515625,0 -12.03125,-4.25 -4.515625,-4.25 -5.203125,-11.96875 z"
               id="DejaVuSans-101" />
            <path
               id="DejaVuSans-32"
               d="" />
            <path
               d="M 31,75.875 Q 24.46875,64.65625 21.28125,53.65625 18.109375,42.671875 18.109375,31.390625 18.109375,20.125 21.3125,9.0625 24.515625,-2 31,-13.1875 H 23.1875 Q 15.875,-1.703125 12.234375,9.375 8.59375,20.453125 8.59375,31.390625 q 0,10.890625 3.609375,21.921875 3.625,11.046875 10.984375,22.5625 z"
               id="DejaVuSans-40" />
            <path
               d="M 54.890625,33.015625 V 0 H 45.90625 v 32.71875 q 0,7.765625 -3.03125,11.609375 -3.03125,3.859375 -9.078125,3.859375 -7.28125,0 -11.484375,-4.640625 -4.203125,-4.625 -4.203125,-12.640625 V 0 h -9.03125 v 54.6875 h 9.03125 v -8.5 q 3.234375,4.9375 7.59375,7.375 4.375,2.4375 10.09375,2.4375 9.421875,0 14.25,-5.828125 4.84375,-5.828125 4.84375,-17.15625 z"
               id="DejaVuSans-110" />
            <path
               d="m 8.015625,75.875 h 7.8125 q 7.3125,-11.515625 10.953125,-22.5625 3.640625,-11.03125 3.640625,-21.921875 0,-10.9375 -3.640625,-22.015625 -3.640625,-11.078125 -10.953125,-22.5625 h -7.8125 Q 14.5,-2 17.703125,9.0625 20.90625,20.125 20.90625,31.390625 q 0,11.28125 -3.203125,22.265625 -3.203125,11 -9.6875,22.21875 z"
               id="DejaVuSans-41" />
          </defs>
          <g
             transform="matrix(0.12,0,0,-0.12,256.66936,336.17588)"
             id="g154">
            <use
               xlink:href="#DejaVuSans-84"
               id="use134" />
            <use
               x="57.958984"
               xlink:href="#DejaVuSans-105"
               id="use136" />
            <use
               x="85.742188"
               xlink:href="#DejaVuSans-109"
               id="use138" />
            <use
               x="183.1543"
               xlink:href="#DejaVuSans-101"
               id="use140" />
            <use
               x="244.67773"
               xlink:href="#DejaVuSans-32"
               id="use142" />
            <use
               x="276.46484"
               xlink:href="#DejaVuSans-40"
               id="use144" />
            <use
               x="315.47852"
               xlink:href="#DejaVuSans-109"
               id="use146" />
            <use
               x="412.89062"
               xlink:href="#DejaVuSans-105"
               id="use148" />
            <use
               x="440.67383"
               xlink:href="#DejaVuSans-110"
               id="use150" />
            <use
               x="504.05273"
               xlink:href="#DejaVuSans-41"
               id="use152" />
          </g>
        </g>
      </g>
      <g
         id="matplotlib.axis_2">
        <g
           id="ytick_1">
          <g
             id="line2d_11">
            <defs
               id="defs159">
              <path
                 d="M 0,0 H 3"
                 id="m52630a1741"
                 style="stroke:#000000" />
            </defs>
            <g
               id="g163">
              <use
                 style="stroke:#000000"
                 x="172.8"
                 xlink:href="#m52630a1741"
                 y="288.83401"
                 id="use161" />
            </g>
          </g>
          <g
             id="line2d_12">
            <defs
               id="defs167">
              <path
                 d="M 0,0 H -3"
                 id="m6fb3118f7c"
                 style="stroke:#000000" />
            </defs>
            <g
               id="g171">
              <use
                 style="stroke:#000000"
                 x="405.70435"
                 xlink:href="#m6fb3118f7c"
                 y="288.83401"
                 id="use169" />
            </g>
          </g>
          <g
             id="text_7">
            <!-- 0 -->
            <g
               transform="matrix(0.12,0,0,-0.12,161.665,293.39306)"
               id="g176">
              <use
                 xlink:href="#DejaVuSans-48"
                 id="use174" />
            </g>
          </g>
        </g>
        <g
           id="ytick_2">
          <g
             id="line2d_13">
            <g
               id="g182">
              <use
                 style="stroke:#000000"
                 x="172.8"
                 xlink:href="#m52630a1741"
                 y="250.614"
                 id="use180" />
            </g>
          </g>
          <g
             id="line2d_14">
            <g
               id="g187">
              <use
                 style="stroke:#000000"
                 x="405.70435"
                 xlink:href="#m6fb3118f7c"
                 y="250.614"
                 id="use185" />
            </g>
          </g>
          <g
             id="text_8">
            <!-- 20 -->
            <g
               transform="matrix(0.12,0,0,-0.12,154.03,255.17306)"
               id="g194">
              <use
                 xlink:href="#DejaVuSans-50"
                 id="use190" />
              <use
                 x="63.623047"
                 xlink:href="#DejaVuSans-48"
                 id="use192" />
            </g>
          </g>
        </g>
        <g
           id="ytick_3">
          <g
             id="line2d_15">
            <g
               id="g200">
              <use
                 style="stroke:#000000"
                 x="172.8"
                 xlink:href="#m52630a1741"
                 y="212.394"
                 id="use198" />
            </g>
          </g>
          <g
             id="line2d_16">
            <g
               id="g205">
              <use
                 style="stroke:#000000"
                 x="405.70435"
                 xlink:href="#m6fb3118f7c"
                 y="212.394"
                 id="use203" />
            </g>
          </g>
          <g
             id="text_9">
            <!-- 40 -->
            <defs
               id="defs209">
              <path
                 d="M 37.796875,64.3125 12.890625,25.390625 h 24.90625 z m -2.59375,8.59375 h 12.40625 V 25.390625 h 10.40625 V 17.1875 H 47.609375 V 0 h -9.8125 V 17.1875 H 4.890625 v 9.515625 z"
                 id="DejaVuSans-52" />
            </defs>
            <g
               transform="matrix(0.12,0,0,-0.12,154.03,216.95306)"
               id="g215">
              <use
                 xlink:href="#DejaVuSans-52"
                 id="use211" />
              <use
                 x="63.623047"
                 xlink:href="#DejaVuSans-48"
                 id="use213" />
            </g>
          </g>
        </g>
        <g
           id="ytick_4">
          <g
             id="line2d_17">
            <g
               id="g221">
              <use
                 style="stroke:#000000"
                 x="172.8"
                 xlink:href="#m52630a1741"
                 y="174.174"
                 id="use219" />
            </g>
          </g>
          <g
             id="line2d_18">
            <g
               id="g226">
              <use
                 style="stroke:#000000"
                 x="405.70435"
                 xlink:href="#m6fb3118f7c"
                 y="174.174"
                 id="use224" />
            </g>
          </g>
          <g
             id="text_10">
            <!-- 60 -->
            <defs
               id="defs230">
              <path
                 d="m 33.015625,40.375 q -6.640625,0 -10.53125,-4.546875 -3.875,-4.53125 -3.875,-12.4375 0,-7.859375 3.875,-12.4375 3.890625,-4.5625 10.53125,-4.5625 6.640625,0 10.515625,4.5625 3.875,4.578125 3.875,12.4375 0,7.90625 -3.875,12.4375 Q 39.65625,40.375 33.015625,40.375 Z M 52.59375,71.296875 V 62.3125 q -3.71875,1.75 -7.5,2.671875 -3.78125,0.9375 -7.5,0.9375 -9.765625,0 -14.921875,-6.59375 -5.140625,-6.59375 -5.875,-19.921875 2.875,4.25 7.21875,6.515625 4.359375,2.265625 9.578125,2.265625 10.984375,0 17.359375,-6.671875 6.375,-6.65625 6.375,-18.125 0,-11.234375 -6.640625,-18.03125 -6.640625,-6.78125 -17.671875,-6.78125 -12.65625,0 -19.34375,9.6875 -6.6875,9.703125 -6.6875,28.109375 0,17.28125 8.203125,27.5625 8.203125,10.28125 22.015625,10.28125 3.71875,0 7.5,-0.734375 3.78125,-0.734375 7.890625,-2.1875 z"
                 id="DejaVuSans-54" />
            </defs>
            <g
               transform="matrix(0.12,0,0,-0.12,154.03,178.73306)"
               id="g236">
              <use
                 xlink:href="#DejaVuSans-54"
                 id="use232" />
              <use
                 x="63.623047"
                 xlink:href="#DejaVuSans-48"
                 id="use234" />
            </g>
          </g>
        </g>
        <g
           id="ytick_5">
          <g
             id="line2d_19">
            <g
               id="g242">
              <use
                 style="stroke:#000000"
                 x="172.8"
                 xlink:href="#m52630a1741"
                 y="135.95399"
                 id="use240" />
            </g>
          </g>
          <g
             id="line2d_20">
            <g
               id="g247">
              <use
                 style="stroke:#000000"
                 x="405.70435"
                 xlink:href="#m6fb3118f7c"
                 y="135.95399"
                 id="use245" />
            </g>
          </g>
          <g
             id="text_11">
            <!-- 80 -->
            <defs
               id="defs251">
              <path
                 d="m 31.78125,34.625 q -7.03125,0 -11.0625,-3.765625 -4.015625,-3.765625 -4.015625,-10.34375 0,-6.59375 4.015625,-10.359375 4.03125,-3.765625 11.0625,-3.765625 7.03125,0 11.078125,3.78125 4.0625,3.796875 4.0625,10.34375 0,6.578125 -4.03125,10.34375 Q 38.875,34.625 31.78125,34.625 Z m -9.859375,4.1875 Q 15.578125,40.375 12.03125,44.71875 8.5,49.078125 8.5,55.328125 q 0,8.734375 6.21875,13.8125 6.234375,5.078125 17.0625,5.078125 10.890625,0 17.09375,-5.078125 6.203125,-5.078125 6.203125,-13.8125 0,-6.25 -3.546875,-10.609375 Q 48,40.375 41.703125,38.8125 q 7.125,-1.65625 11.09375,-6.5 3.984375,-4.828125 3.984375,-11.796875 0,-10.609375 -6.46875,-16.28125 -6.46875,-5.65625 -18.53125,-5.65625 -12.046875,0 -18.53125,5.65625 -6.46875,5.671875 -6.46875,16.28125 0,6.96875 4,11.796875 4.015625,4.84375 11.140625,6.5 z M 18.3125,54.390625 q 0,-5.65625 3.53125,-8.828125 3.546875,-3.171875 9.9375,-3.171875 6.359375,0 9.9375,3.171875 3.59375,3.171875 3.59375,8.828125 0,5.671875 -3.59375,8.84375 -3.578125,3.171875 -9.9375,3.171875 -6.390625,0 -9.9375,-3.171875 Q 18.3125,60.0625 18.3125,54.390625 Z"
                 id="DejaVuSans-56" />
            </defs>
            <g
               transform="matrix(0.12,0,0,-0.12,154.03,140.51306)"
               id="g257">
              <use
                 xlink:href="#DejaVuSans-56"
                 id="use253" />
              <use
                 x="63.623047"
                 xlink:href="#DejaVuSans-48"
                 id="use255" />
            </g>
          </g>
        </g>
        <g
           id="ytick_6">
          <g
             id="line2d_21">
            <g
               id="g263">
              <use
                 style="stroke:#000000"
                 x="172.8"
                 xlink:href="#m52630a1741"
                 y="97.734001"
                 id="use261" />
            </g>
          </g>
          <g
             id="line2d_22">
            <g
               id="g268">
              <use
                 style="stroke:#000000"
                 x="405.70435"
                 xlink:href="#m6fb3118f7c"
                 y="97.734001"
                 id="use266" />
            </g>
          </g>
          <g
             id="text_12">
            <!-- 100 -->
            <g
               transform="matrix(0.12,0,0,-0.12,146.395,102.29306)"
               id="g277">
              <use
                 xlink:href="#DejaVuSans-49"
                 id="use271" />
              <use
                 x="63.623047"
                 xlink:href="#DejaVuSans-48"
                 id="use273" />
              <use
                 x="127.24609"
                 xlink:href="#DejaVuSans-48"
                 id="use275" />
            </g>
          </g>
        </g>
        <g
           id="text_13">
          <!-- Reacted reporter (%) -->
          <defs
             id="defs290">
            <path
               d="m 44.390625,34.1875 q 3.171875,-1.078125 6.171875,-4.59375 3,-3.515625 6.03125,-9.671875 L 66.609375,0 H 56 l -9.3125,18.703125 q -3.625,7.328125 -7.015625,9.71875 -3.390625,2.390625 -9.25,2.390625 h -10.75 V 0 H 9.8125 v 72.90625 h 22.265625 q 12.5,0 18.65625,-5.234375 6.15625,-5.21875 6.15625,-15.765625 0,-6.890625 -3.203125,-11.4375 -3.203125,-4.53125 -9.296875,-6.28125 z m -24.71875,30.609375 v -25.875 h 12.40625 q 7.125,0 10.765625,3.296875 3.640625,3.296875 3.640625,9.6875 0,6.390625 -3.640625,9.640625 -3.640625,3.25 -10.765625,3.25 z"
               id="DejaVuSans-82" />
            <path
               d="m 34.28125,27.484375 q -10.890625,0 -15.09375,-2.484375 -4.203125,-2.484375 -4.203125,-8.5 0,-4.78125 3.15625,-7.59375 3.15625,-2.796875 8.5625,-2.796875 7.484375,0 12,5.296875 4.515625,5.296875 4.515625,14.078125 v 2 z m 17.921875,3.71875 V 0 H 43.21875 v 8.296875 q -3.078125,-4.96875 -7.671875,-7.34375 -4.59375,-2.375 -11.234375,-2.375 -8.390625,0 -13.359375,4.71875 Q 6,8.015625 6,15.921875 q 0,9.21875 6.171875,13.90625 6.1875,4.6875 18.4375,4.6875 H 43.21875 v 0.890625 q 0,6.203125 -4.078125,9.59375 -4.078125,3.390625 -11.453125,3.390625 -4.6875,0 -9.140625,-1.125 -4.4375,-1.125 -8.53125,-3.375 v 8.3125 q 4.921875,1.90625 9.5625,2.84375 Q 24.21875,56 28.609375,56 q 11.875,0 17.734375,-6.15625 5.859375,-6.140625 5.859375,-18.640625 z"
               id="DejaVuSans-97" />
            <path
               d="M 48.78125,52.59375 V 44.1875 q -3.8125,2.109375 -7.640625,3.15625 -3.828125,1.046875 -7.734375,1.046875 -8.75,0 -13.59375,-5.546875 -4.828125,-5.53125 -4.828125,-15.546875 0,-10.015625 4.828125,-15.5625 4.84375,-5.53125 13.59375,-5.53125 3.90625,0 7.734375,1.046875 3.828125,1.046875 7.640625,3.15625 v -8.3125 q -3.765625,-1.75 -7.796875,-2.625 -4.015625,-0.890625 -8.5625,-0.890625 -12.359375,0 -19.640625,7.765625 -7.265625,7.765625 -7.265625,20.953125 0,13.375 7.34375,21.03125 Q 20.21875,56 33.015625,56 q 4.140625,0 8.09375,-0.859375 3.953125,-0.84375 7.671875,-2.546875 z"
               id="DejaVuSans-99" />
            <path
               d="M 18.3125,70.21875 V 54.6875 h 18.5 v -6.984375 h -18.5 v -29.6875 q 0,-6.6875 1.828125,-8.59375 1.828125,-1.90625 7.453125,-1.90625 H 36.8125 V 0 H 27.59375 Q 17.1875,0 13.234375,3.875 9.28125,7.765625 9.28125,18.015625 v 29.6875 H 2.6875 V 54.6875 h 6.59375 v 15.53125 z"
               id="DejaVuSans-116" />
            <path
               d="m 45.40625,46.390625 v 29.59375 h 8.984375 V 0 H 45.40625 v 8.203125 q -2.828125,-4.875 -7.15625,-7.25 -4.3125,-2.375 -10.375,-2.375 -9.90625,0 -16.140625,7.90625 -6.21875,7.921875 -6.21875,20.8125 0,12.890625 6.21875,20.796875 Q 17.96875,56 27.875,56 q 6.0625,0 10.375,-2.375 4.328125,-2.359375 7.15625,-7.234375 z M 14.796875,27.296875 q 0,-9.90625 4.078125,-15.546875 4.078125,-5.640625 11.203125,-5.640625 7.125,0 11.21875,5.640625 4.109375,5.640625 4.109375,15.546875 0,9.90625 -4.109375,15.546875 -4.09375,5.640625 -11.21875,5.640625 -7.125,0 -11.203125,-5.640625 -4.078125,-5.640625 -4.078125,-15.546875 z"
               id="DejaVuSans-100" />
            <path
               d="m 41.109375,46.296875 q -1.515625,0.875 -3.296875,1.28125 Q 36.03125,48 33.890625,48 26.265625,48 22.1875,43.046875 18.109375,38.09375 18.109375,28.8125 V 0 h -9.03125 v 54.6875 h 9.03125 v -8.5 q 2.84375,4.984375 7.375,7.390625 Q 30.03125,56 36.53125,56 q 0.921875,0 2.046875,-0.125 1.125,-0.109375 2.484375,-0.359375 z"
               id="DejaVuSans-114" />
            <path
               d="m 18.109375,8.203125 v -29 H 9.078125 V 54.6875 h 9.03125 v -8.296875 q 2.84375,4.875 7.15625,7.234375 Q 29.59375,56 35.59375,56 q 9.96875,0 16.1875,-7.90625 6.234375,-7.90625 6.234375,-20.796875 0,-12.890625 -6.234375,-20.8125 -6.21875,-7.90625 -16.1875,-7.90625 -6,0 -10.328125,2.375 -4.3125,2.375 -7.15625,7.25 z M 48.6875,27.296875 q 0,9.90625 -4.078125,15.546875 -4.078125,5.640625 -11.203125,5.640625 -7.140625,0 -11.21875,-5.640625 -4.078125,-5.640625 -4.078125,-15.546875 0,-9.90625 4.078125,-15.546875 4.078125,-5.640625 11.21875,-5.640625 7.125,0 11.203125,5.640625 4.078125,5.640625 4.078125,15.546875 z"
               id="DejaVuSans-112" />
            <path
               d="m 30.609375,48.390625 q -7.21875,0 -11.421875,-5.640625 -4.203125,-5.640625 -4.203125,-15.453125 0,-9.8125 4.171875,-15.453125 4.1875,-5.640625 11.453125,-5.640625 7.1875,0 11.375,5.65625 4.203125,5.671875 4.203125,15.4375 0,9.71875 -4.203125,15.40625 -4.1875,5.6875 -11.375,5.6875 z m 0,7.609375 q 11.71875,0 18.40625,-7.625 6.703125,-7.609375 6.703125,-21.078125 0,-13.421875 -6.703125,-21.078125 -6.6875,-7.640625 -18.40625,-7.640625 -11.765625,0 -18.4375,7.640625 -6.65625,7.65625 -6.65625,21.078125 0,13.46875 6.65625,21.078125 Q 18.84375,56 30.609375,56 Z"
               id="DejaVuSans-111" />
            <path
               d="m 72.703125,32.078125 q -4.25,0 -6.671875,-3.609375 -2.40625,-3.609375 -2.40625,-10.0625 0,-6.34375 2.40625,-9.984375 2.421875,-3.640625 6.671875,-3.640625 4.15625,0 6.5625,3.640625 2.421875,3.640625 2.421875,9.984375 0,6.40625 -2.421875,10.03125 -2.40625,3.640625 -6.5625,3.640625 z m 0,6.203125 q 7.71875,0 12.25,-5.375 Q 89.5,27.546875 89.5,18.40625 q 0,-9.125 -4.5625,-14.484375 -4.5625,-5.34375 -12.234375,-5.34375 -7.8125,0 -12.359375,5.34375 -4.53125,5.359375 -4.53125,14.484375 0,9.1875 4.5625,14.53125 4.5625,5.34375 12.328125,5.34375 z M 22.3125,68.015625 q -4.203125,0 -6.625,-3.640625 -2.40625,-3.625 -2.40625,-9.984375 0,-6.4375 2.390625,-10.0625 2.390625,-3.609375 6.640625,-3.609375 4.25,0 6.65625,3.609375 2.421875,3.625 2.421875,10.0625 0,6.296875 -2.4375,9.953125 -2.4375,3.671875 -6.640625,3.671875 z m 44.09375,6.203125 h 7.8125 L 28.609375,-1.421875 h -7.8125 z m -44.09375,0 q 7.71875,0 12.296875,-5.34375 4.59375,-5.34375 4.59375,-14.484375 0,-9.21875 -4.5625,-14.546875 -4.5625,-5.328125 -12.328125,-5.328125 -7.765625,0 -12.28125,5.34375 -4.515625,5.359375 -4.515625,14.53125 0,9.09375 4.53125,14.453125 4.546875,5.375 12.265625,5.375 z"
               id="DejaVuSans-37" />
          </defs>
          <g
             transform="matrix(0,-0.12,-0.12,0,139.89937,256.3815)"
             id="g332">
            <use
               xlink:href="#DejaVuSans-82"
               id="use292" />
            <use
               x="64.982422"
               xlink:href="#DejaVuSans-101"
               id="use294" />
            <use
               x="126.50586"
               xlink:href="#DejaVuSans-97"
               id="use296" />
            <use
               x="187.78516"
               xlink:href="#DejaVuSans-99"
               id="use298" />
            <use
               x="242.76562"
               xlink:href="#DejaVuSans-116"
               id="use300" />
            <use
               x="281.97461"
               xlink:href="#DejaVuSans-101"
               id="use302" />
            <use
               x="343.49805"
               xlink:href="#DejaVuSans-100"
               id="use304" />
            <use
               x="406.97461"
               xlink:href="#DejaVuSans-32"
               id="use306" />
            <use
               x="438.76172"
               xlink:href="#DejaVuSans-114"
               id="use308" />
            <use
               x="477.625"
               xlink:href="#DejaVuSans-101"
               id="use310" />
            <use
               x="539.14844"
               xlink:href="#DejaVuSans-112"
               id="use312" />
            <use
               x="602.625"
               xlink:href="#DejaVuSans-111"
               id="use314" />
            <use
               x="663.80664"
               xlink:href="#DejaVuSans-114"
               id="use316" />
            <use
               x="704.91992"
               xlink:href="#DejaVuSans-116"
               id="use318" />
            <use
               x="744.12891"
               xlink:href="#DejaVuSans-101"
               id="use320" />
            <use
               x="805.65234"
               xlink:href="#DejaVuSans-114"
               id="use322" />
            <use
               x="846.76562"
               xlink:href="#DejaVuSans-32"
               id="use324" />
            <use
               x="878.55273"
               xlink:href="#DejaVuSans-40"
               id="use326" />
            <use
               x="917.56641"
               xlink:href="#DejaVuSans-37"
               id="use328" />
            <use
               x="1012.5859"
               xlink:href="#DejaVuSans-41"
               id="use330" />
          </g>
        </g>
      </g>
      <g
         id="line2d_23">
        <path
           clip-path="url(#p9664e7e13d)"
           d="m 172.8,288.834 1.39743,-0.0992 1.95639,-0.39128 2.51537,-0.7662 3.63331,-1.37151 6.42816,-2.70529 24.31521,-10.64109 93.34806,-40.81143 66.238,-28.72696 33.25874,-14.29093 v 0"
           style="fill:none;stroke:#808080;stroke-width:2;stroke-dasharray:7.4, 3.2;stroke-dashoffset:0"
           id="path336" />
      </g>
      <g
         id="line2d_24">
        <path
           clip-path="url(#p9664e7e13d)"
           d="m 172.8,288.834 1.39743,-0.0992 1.95639,-0.39129 2.51537,-0.76629 3.63331,-1.37146 6.42816,-2.70563 22.07933,-9.6602 94.466,-41.30588 65.95851,-28.60739 34.65617,-14.89407 v 0"
           style="fill:none;stroke:#808080;stroke-width:2;stroke-dasharray:7.4, 3.2;stroke-dashoffset:0"
           id="path339" />
      </g>
      <g
         id="line2d_25">
        <path
           clip-path="url(#p9664e7e13d)"
           d="m 172.8,288.834 1.39743,-0.0992 1.95639,-0.39128 2.51537,-0.7662 3.63331,-1.37151 6.42816,-2.70529 24.31521,-10.64109 93.34806,-40.81143 66.238,-28.72696 33.25874,-14.29093 v 0"
           style="fill:none;stroke:#808080;stroke-width:2;stroke-dasharray:7.4, 3.2;stroke-dashoffset:0"
           id="path342" />
      </g>
      <g
         id="line2d_26">
        <path
           clip-path="url(#p9664e7e13d)"
           d="m 172.8,288.834 1.39743,-0.0992 1.95639,-0.39129 2.51537,-0.76631 3.63331,-1.37196 6.14867,-2.59665 7.82559,-3.52938 5.5897,-2.7557 4.19228,-2.30717 3.63331,-2.24716 3.35382,-2.33977 3.07434,-2.41617 3.07434,-2.71688 2.79485,-2.76146 2.79485,-3.0635 2.79485,-3.38589 2.79485,-3.72038 3.07434,-4.4883 3.07434,-4.90566 3.07434,-5.31867 3.35382,-6.25792 3.63331,-7.28458 3.91279,-8.37865 4.19228,-9.50818 5.03073,-11.97975 7.26662,-17.95689 9.22301,-22.72489 4.75125,-11.07844 3.63331,-7.93582 3.35382,-6.77779 2.79485,-5.16873 2.79485,-4.68703 2.51537,-3.76331 2.23588,-2.9732 2.23588,-2.61195 2.23589,-2.25426 2.23588,-1.90953 2.23588,-1.57944 2.23588,-1.28353 2.23588,-1.01833 2.23589,-0.789458 2.51536,-0.659369 2.79485,-0.509031 3.35383,-0.380555 4.47176,-0.267028 6.70764,-0.141731 16.21015,-0.03872 55.89704,-4.2e-4 v 0"
           style="fill:none;stroke:#ffa500;stroke-width:2;stroke-dasharray:7.4, 3.2;stroke-dashoffset:0"
           id="path345" />
      </g>
      <g
         id="line2d_27">
        <path
           clip-path="url(#p9664e7e13d)"
           d="m 172.8,288.834 1.39743,-0.0992 1.95639,-0.39129 2.51537,-0.76629 3.63331,-1.37146 6.42816,-2.70563 22.07933,-9.6602 94.466,-41.30588 65.95851,-28.60739 34.65617,-14.89407 v 0"
           style="fill:none;stroke:#808080;stroke-width:2;stroke-dasharray:7.4, 3.2;stroke-dashoffset:0"
           id="path348" />
      </g>
      <g
         id="line2d_28">
        <path
           clip-path="url(#p9664e7e13d)"
           d="m 172.8,288.834 1.39743,-0.0992 1.95639,-0.39129 2.51537,-0.76629 3.63331,-1.37146 6.42816,-2.70563 22.07933,-9.6602 94.466,-41.30588 65.95851,-28.60739 34.65617,-14.89407 v 0"
           style="fill:none;stroke:#808080;stroke-width:2;stroke-dasharray:7.4, 3.2;stroke-dashoffset:0"
           id="path351" />
      </g>
      <g
         id="line2d_29">
        <path
           clip-path="url(#p9664e7e13d)"
           d="m 172.8,288.834 1.39743,-0.0992 1.95639,-0.39129 2.51537,-0.76629 3.63331,-1.37146 6.42816,-2.70563 22.07933,-9.6602 94.466,-41.30588 65.95851,-28.60739 34.65617,-14.89407 v 0"
           style="fill:none;stroke:#808080;stroke-width:2;stroke-dasharray:7.4, 3.2;stroke-dashoffset:0"
           id="path354" />
      </g>
      <g
         id="line2d_30">
        <path
           clip-path="url(#p9664e7e13d)"
           d="m 172.8,288.834 1.39743,-0.0992 1.95639,-0.39129 2.51537,-0.76631 3.63331,-1.37196 6.14867,-2.59665 7.82559,-3.52938 5.5897,-2.75568 4.19228,-2.3072 3.63331,-2.24716 3.35382,-2.33976 3.07434,-2.41616 3.07434,-2.71685 2.79485,-2.76142 2.79485,-3.06349 2.79485,-3.38572 2.79485,-3.72038 3.07434,-4.48835 3.07434,-4.90577 3.07434,-5.31866 3.35382,-6.25793 3.63331,-7.28454 3.91279,-8.37868 4.19228,-9.50826 5.03073,-11.97985 7.26662,-17.95704 9.5025,-23.39367 4.47176,-10.4099 3.63331,-7.93533 3.07433,-6.23374 2.79486,-5.21872 2.79485,-4.73584 2.51537,-3.81107 2.23588,-3.01623 2.23588,-2.65544 2.23588,-2.30185 2.23588,-1.95829 1.9564,-1.43499 2.23588,-1.35225 2.23588,-1.07856 2.23588,-0.840986 2.51537,-0.708561 2.79485,-0.55079 3.35383,-0.418837 4.19227,-0.282176 6.14868,-0.16057 12.85632,-0.05275 60.64829,-0.0018 v 0"
           style="fill:none;stroke:#ffa500;stroke-width:2;stroke-dasharray:7.4, 3.2;stroke-dashoffset:0"
           id="path357" />
      </g>
      <g
         id="line2d_31">
        <path
           clip-path="url(#p9664e7e13d)"
           d="m 172.8,288.834 1.39743,-0.0992 1.95639,-0.39128 2.51537,-0.7662 3.63331,-1.37151 6.42816,-2.70529 24.31521,-10.64109 93.34806,-40.81143 66.238,-28.72696 33.25874,-14.29093 v 0"
           style="fill:none;stroke:#808080;stroke-width:2;stroke-dasharray:7.4, 3.2;stroke-dashoffset:0"
           id="path360" />
      </g>
      <g
         id="line2d_32">
        <path
           clip-path="url(#p9664e7e13d)"
           d="m 172.8,288.834 1.39743,-0.0992 1.95639,-0.39129 2.51537,-0.76629 3.63331,-1.37146 6.42816,-2.70563 22.07933,-9.6602 94.466,-41.30588 65.95851,-28.60739 34.65617,-14.89407 v 0"
           style="fill:none;stroke:#808080;stroke-width:2;stroke-dasharray:7.4, 3.2;stroke-dashoffset:0"
           id="path363" />
      </g>
      <g
         id="line2d_33">
        <path
           clip-path="url(#p9664e7e13d)"
           d="m 172.8,288.834 1.39743,-0.0992 1.95639,-0.39128 2.51537,-0.7662 3.63331,-1.37151 6.42816,-2.70529 24.31521,-10.64109 93.34806,-40.81143 66.238,-28.72696 33.25874,-14.29093 v 0"
           style="fill:none;stroke:#808080;stroke-width:2;stroke-dasharray:7.4, 3.2;stroke-dashoffset:0"
           id="path366" />
      </g>
      <g
         id="line2d_34">
        <path
           clip-path="url(#p9664e7e13d)"
           d="m 172.8,288.834 1.39743,-0.0992 1.95639,-0.39129 2.51537,-0.76631 3.63331,-1.37196 6.14867,-2.59665 7.82559,-3.52938 5.5897,-2.7557 4.19228,-2.30717 3.63331,-2.24716 3.35382,-2.33977 3.07434,-2.41617 3.07434,-2.71688 2.79485,-2.76146 2.79485,-3.0635 2.79485,-3.38589 2.79485,-3.72038 3.07434,-4.4883 3.07434,-4.90566 3.07434,-5.31867 3.35382,-6.25792 3.63331,-7.28458 3.91279,-8.37865 4.19228,-9.50818 5.03073,-11.97975 7.26662,-17.95689 9.22301,-22.72489 4.75125,-11.07844 3.63331,-7.93582 3.35382,-6.77779 2.79485,-5.16873 2.79485,-4.68703 2.51537,-3.76331 2.23588,-2.9732 2.23588,-2.61195 2.23589,-2.25426 2.23588,-1.90953 2.23588,-1.57944 2.23588,-1.28353 2.23588,-1.01833 2.23589,-0.789458 2.51536,-0.659369 2.79485,-0.509031 3.35383,-0.380555 4.47176,-0.267028 6.70764,-0.141731 16.21015,-0.03872 55.89704,-4.2e-4 v 0"
           style="fill:none;stroke:#ffa500;stroke-width:2;stroke-dasharray:7.4, 3.2;stroke-dashoffset:0"
           id="path369" />
      </g>
      <g
         id="line2d_35">
        <path
           clip-path="url(#p9664e7e13d)"
           d="m 172.8,288.834 1.39743,-0.0992 1.95639,-0.39129 2.51537,-0.76631 3.63331,-1.37196 6.14867,-2.59665 7.82559,-3.52938 5.5897,-2.7557 4.19228,-2.30717 3.63331,-2.24716 3.35382,-2.33977 3.07434,-2.41617 3.07434,-2.71688 2.79485,-2.76146 2.79485,-3.0635 2.79485,-3.38589 2.79485,-3.72038 3.07434,-4.4883 3.07434,-4.90566 3.07434,-5.31867 3.35382,-6.25792 3.63331,-7.28458 3.91279,-8.37865 4.19228,-9.50818 5.03073,-11.97975 7.26662,-17.95689 9.22301,-22.72489 4.75125,-11.07844 3.63331,-7.93582 3.35382,-6.77779 2.79485,-5.16873 2.79485,-4.68703 2.51537,-3.76331 2.23588,-2.9732 2.23588,-2.61195 2.23589,-2.25426 2.23588,-1.90953 2.23588,-1.57944 2.23588,-1.28353 2.23588,-1.01833 2.23589,-0.789458 2.51536,-0.659369 2.79485,-0.509031 3.35383,-0.380555 4.47176,-0.267028 6.70764,-0.141731 16.21015,-0.03872 55.89704,-4.2e-4 v 0"
           style="fill:none;stroke:#ffa500;stroke-width:2;stroke-dasharray:7.4, 3.2;stroke-dashoffset:0"
           id="path372" />
      </g>
      <g
         id="line2d_36">
        <path
           clip-path="url(#p9664e7e13d)"
           d="m 172.8,288.834 1.39743,-0.0992 1.95639,-0.39129 2.51537,-0.76631 3.63331,-1.37196 6.14867,-2.59665 7.82559,-3.52938 5.5897,-2.75568 4.19228,-2.3072 3.63331,-2.24716 3.35382,-2.33976 3.07434,-2.41616 3.07434,-2.71685 2.79485,-2.76142 2.79485,-3.06349 2.79485,-3.38572 2.79485,-3.72038 3.07434,-4.48835 3.07434,-4.90577 3.07434,-5.31866 3.35382,-6.25793 3.63331,-7.28454 3.91279,-8.37868 4.19228,-9.50826 5.03073,-11.97985 7.26662,-17.95704 9.5025,-23.39367 4.47176,-10.4099 3.63331,-7.93533 3.07433,-6.23374 2.79486,-5.21872 2.79485,-4.73584 2.51537,-3.81107 2.23588,-3.01623 2.23588,-2.65544 2.23588,-2.30185 2.23588,-1.95829 1.9564,-1.43499 2.23588,-1.35225 2.23588,-1.07856 2.23588,-0.840986 2.51537,-0.708561 2.79485,-0.55079 3.35383,-0.418837 4.19227,-0.282176 6.14868,-0.16057 12.85632,-0.05275 60.64829,-0.0018 v 0"
           style="fill:none;stroke:#ffa500;stroke-width:2;stroke-dasharray:7.4, 3.2;stroke-dashoffset:0"
           id="path375" />
      </g>
      <g
         id="line2d_37">
        <path
           clip-path="url(#p9664e7e13d)"
           d="m 172.8,288.834 1.39743,-0.0992 1.95639,-0.39129 2.51537,-0.76631 3.63331,-1.37196 6.14867,-2.59665 7.82559,-3.52938 5.5897,-2.7557 4.19228,-2.30717 3.63331,-2.24716 3.35382,-2.33977 3.07434,-2.41617 3.07434,-2.71688 2.79485,-2.76146 2.79485,-3.0635 2.79485,-3.38589 2.79485,-3.72038 3.07434,-4.4883 3.07434,-4.90566 3.07434,-5.31867 3.35382,-6.25792 3.63331,-7.28458 3.91279,-8.37865 4.19228,-9.50818 5.03073,-11.97975 7.26662,-17.95689 9.22301,-22.72489 4.75125,-11.07844 3.63331,-7.93582 3.35382,-6.77779 2.79485,-5.16873 2.79485,-4.68703 2.51537,-3.76331 2.23588,-2.9732 2.23588,-2.61195 2.23589,-2.25426 2.23588,-1.90953 2.23588,-1.57944 2.23588,-1.28353 2.23588,-1.01833 2.23589,-0.789458 2.51536,-0.659369 2.79485,-0.509031 3.35383,-0.380555 4.47176,-0.267028 6.70764,-0.141731 16.21015,-0.03872 55.89704,-4.2e-4 v 0"
           style="fill:none;stroke:#ffa500;stroke-width:2;stroke-dasharray:7.4, 3.2;stroke-dashoffset:0"
           id="path378" />
      </g>
      <g
         id="line2d_38">
        <path
           clip-path="url(#p9664e7e13d)"
           d="m 172.8,288.834 1.39743,-0.0992 1.95639,-0.39129 2.51537,-0.76633 3.63331,-1.37248 5.86919,-2.48523 6.42816,-2.94695 4.47176,-2.28608 3.63331,-2.1158 3.07434,-2.0567 2.79485,-2.14929 2.51536,-2.21326 2.51537,-2.52313 2.23588,-2.53781 2.23588,-2.84532 2.23589,-3.17867 2.23588,-3.53464 2.51537,-4.42463 2.51536,-4.9172 2.51537,-5.41907 2.51537,-5.92044 2.79485,-7.16115 3.07434,-8.54686 3.35382,-10.05272 3.63331,-11.61843 4.75125,-16.01599 10.62043,-36.09747 3.35383,-10.39035 2.79485,-7.90571 2.51537,-6.32465 2.23588,-4.98171 1.95639,-3.77748 1.67692,-2.79039 1.67691,-2.39374 1.67691,-2.01751 1.67691,-1.6644 1.67691,-1.34197 1.67691,-1.05393 1.67691,-0.808222 1.9564,-0.688315 2.23588,-0.52894 2.51537,-0.360672 3.35382,-0.243015 5.31022,-0.125108 15.0922,-0.02772 89.99424,-5.7e-5 v 0"
           style="fill:none;stroke:#0000ff;stroke-width:2;stroke-dasharray:7.4, 3.2;stroke-dashoffset:0"
           id="path381" />
      </g>
      <g
         id="patch_3">
        <path
           d="M 172.8,307.944 V 78.624"
           style="fill:none;stroke:#000000;stroke-width:0.8;stroke-linecap:square;stroke-linejoin:miter"
           id="path384" />
      </g>
      <g
         id="patch_4">
        <path
           d="M 405.70435,307.944 V 78.624"
           style="fill:none;stroke:#000000;stroke-width:0.8;stroke-linecap:square;stroke-linejoin:miter"
           id="path387" />
      </g>
      <g
         id="patch_5">
        <path
           d="M 172.8,307.944 H 405.70435"
           style="fill:none;stroke:#000000;stroke-width:0.8;stroke-linecap:square;stroke-linejoin:miter"
           id="path390" />
      </g>
      <g
         id="patch_6">
        <path
           d="M 172.8,78.624 H 405.70435"
           style="fill:none;stroke:#000000;stroke-width:0.8;stroke-linecap:square;stroke-linejoin:miter"
           id="path393" />
      </g>
      <g
         id="text_14">
        <!-- AG{3.1,2} + AG{5.4,2} -->
        <defs
           id="defs404">
          <path
             d="M 34.1875,63.1875 20.796875,26.90625 h 26.8125 z m -5.578125,9.71875 h 11.1875 L 67.578125,0 h -10.25 L 50.6875,18.703125 H 17.828125 L 11.1875,0 H 0.78125 Z"
             id="DejaVuSans-65" />
          <path
             d="M 59.515625,10.40625 V 29.984375 H 43.40625 v 8.109375 h 25.875 V 6.78125 Q 63.578125,2.734375 56.6875,0.65625 49.8125,-1.421875 42,-1.421875 q -17.09375,0 -26.75,9.984375 -9.640625,10 -9.640625,27.8125 0,17.875 9.640625,27.859375 9.65625,9.984375 26.75,9.984375 7.125,0 13.546875,-1.765625 6.421875,-1.75 11.84375,-5.171875 v -10.5 q -5.46875,4.640625 -11.625,6.984375 -6.15625,2.34375 -12.9375,2.34375 -13.390625,0 -20.109375,-7.46875 -6.703125,-7.46875 -6.703125,-22.265625 0,-14.75 6.703125,-22.21875 6.71875,-7.46875 20.109375,-7.46875 5.21875,0 9.3125,0.90625 4.109375,0.90625 7.375,2.8125 z"
             id="DejaVuSans-71" />
          <path
             d="m 51.125,-9.28125 v -7.03125 h -3.03125 q -12.15625,0 -16.28125,3.625 -4.125,3.609375 -4.125,14.390625 V 13.375 q 0,7.375 -2.640625,10.203125 -2.640625,2.84375 -9.5625,2.84375 H 12.5 v 6.984375 h 2.984375 q 6.984375,0 9.59375,2.796875 2.609375,2.8125 2.609375,10.09375 v 11.71875 q 0,10.78125 4.125,14.375 4.125,3.59375 16.28125,3.59375 H 51.125 V 69 h -3.328125 q -6.875,0 -8.984375,-2.15625 -2.09375,-2.140625 -2.09375,-9.03125 V 45.703125 Q 36.71875,38.03125 34.5,34.5625 32.28125,31.109375 26.90625,29.890625 32.328125,28.5625 34.515625,25.09375 36.71875,21.625 36.71875,14.015625 V 1.90625 q 0,-6.890625 2.09375,-9.03125 2.109375,-2.15625 8.984375,-2.15625 z"
             id="DejaVuSans-123" />
          <path
             d="M 40.578125,39.3125 Q 47.65625,37.796875 51.625,33 q 3.984375,-4.78125 3.984375,-11.8125 0,-10.78125 -7.421875,-16.703125 -7.421875,-5.90625 -21.09375,-5.90625 -4.578125,0 -9.4375,0.90625 -4.859375,0.90625 -10.03125,2.71875 v 9.515625 q 4.09375,-2.390625 8.96875,-3.609375 4.890625,-1.21875 10.21875,-1.21875 9.265625,0 14.125,3.65625 4.859375,3.65625 4.859375,10.640625 0,6.453125 -4.515625,10.078125 -4.515625,3.640625 -12.5625,3.640625 h -8.5 v 8.109375 h 8.890625 q 7.265625,0 11.125,2.90625 3.859375,2.90625 3.859375,8.375 0,5.609375 -3.984375,8.609375 -3.96875,3.015625 -11.390625,3.015625 -4.0625,0 -8.703125,-0.890625 Q 15.375,64.15625 9.8125,62.3125 v 8.78125 q 5.625,1.5625 10.53125,2.34375 4.90625,0.78125 9.25,0.78125 11.234375,0 17.765625,-5.109375 6.546875,-5.09375 6.546875,-13.78125 0,-6.0625 -3.46875,-10.234375 -3.46875,-4.171875 -9.859375,-5.78125 z"
             id="DejaVuSans-51" />
          <path
             d="M 10.6875,12.40625 H 21 V 0 H 10.6875 Z"
             id="DejaVuSans-46" />
          <path
             d="M 11.71875,12.40625 H 22.015625 V 4 l -8,-15.625 H 7.71875 l 4,15.625 z"
             id="DejaVuSans-44" />
          <path
             d="m 12.5,-9.28125 h 3.421875 q 6.828125,0 8.90625,2.109375 2.078125,2.09375 2.078125,9.078125 v 12.109375 q 0,7.609375 2.1875,11.078125 2.203125,3.46875 7.625,4.796875 -5.421875,1.21875 -7.625,4.671875 -2.1875,3.46875 -2.1875,11.140625 V 57.8125 q 0,6.9375 -2.078125,9.0625 Q 22.75,69 15.921875,69 H 12.5 v 6.984375 h 3.078125 q 12.15625,0 16.234375,-3.59375 4.078125,-3.59375 4.078125,-14.375 v -11.71875 q 0,-7.28125 2.625,-10.09375 Q 41.15625,33.40625 48.09375,33.40625 H 51.125 v -6.984375 h -3.03125 q -6.9375,0 -9.578125,-2.84375 Q 35.890625,20.75 35.890625,13.375 V 1.703125 q 0,-10.78125 -4.078125,-14.390625 -4.078125,-3.625 -16.234375,-3.625 H 12.5 Z"
             id="DejaVuSans-125" />
          <path
             d="M 46,62.703125 V 35.5 H 73.1875 V 27.203125 H 46 V 0 H 37.796875 V 27.203125 H 10.59375 V 35.5 h 27.203125 v 27.203125 z"
             id="DejaVuSans-43" />
        </defs>
        <g
           transform="matrix(0.12,0,0,-0.12,217.31124,72.624)"
           id="g448">
          <use
             x="525.83789"
             xlink:href="#DejaVuSans-32"
             id="use424" />
          <use
             x="641.41406"
             xlink:href="#DejaVuSans-32"
             id="use428" />
        </g>
      </g>
    </g>
  </g>
  <defs
     id="defs456">
    <clipPath
       id="p9664e7e13d">
      <rect
         height="229.32001"
         width="232.90434"
         x="172.8"
         y="78.624001"
         id="rect453" />
    </clipPath>
  </defs>
  <rect
     style="fill:none;fill-rule:evenodd;stroke:#000000;stroke-width:1;stroke-linecap:butt;stroke-linejoin:round;stroke-dasharray:none"
     id="rect2235"
     width="747.04163"
     height="296.96649"
     x="1.7539574"
     y="1.7545217"
     ry="0" />
  <text
     xml:space="preserve"
     transform="matrix(0.75,0,0,0.75,377.83199,4.4751674)"
     id="text4484"
     style="font-size:14.6667px;line-height:1.25;font-family:sans-serif;text-align:center;letter-spacing:0px;white-space:pre;shape-inside:url(#rect4486)"
     x="26.350647"
     y="0"><tspan
       x="-101.00104"
       y="85.835954"
       id="tspan5234"><tspan
         style="fill:#0000ff"
         id="tspan5232">All four </tspan></tspan><tspan
       x="-97.158906"
       y="104.16933"
       id="tspan5238"><tspan
         style="fill:#0000ff"
         id="tspan5236">inputs</tspan></tspan></text>
  <text
     xml:space="preserve"
     transform="matrix(0.75,0,0,0.75,451.3526,24.293766)"
     id="text4542"
     style="font-size:14.6667px;line-height:1.25;font-family:sans-serif;letter-spacing:0px;white-space:pre;shape-inside:url(#rect4544);text-align:center;fill:#ffa500;fill-opacity:1"
     x="40.827568"
     y="0"><tspan
       x="-107.53785"
       y="85.835954"
       id="tspan5240">Inputs that </tspan><tspan
       x="-101.02807"
       y="104.16933"
       id="tspan5242">trigger at </tspan><tspan
       x="-104.50139"
       y="122.5027"
       id="tspan5244">least 1 AG</tspan></text>
</svg>
